<svg version="1.1" id="Layer_1" xmlns="http://www.w3.org/2000/svg" xmlns:xlink="http://www.w3.org/1999/xlink" x="0px" y="0px"
	 width="100%" viewBox="0 0 2663 1929" enable-background="new 0 0 2663 1929" xml:space="preserve">
<path fill="#FEFFFF" opacity="1.000000" stroke="none" 
	d="
M1572.000000,1932.000000 
	C1048.000000,1932.000000 525.000000,1932.000000 2.000000,1932.000000 
	C2.000000,1288.666626 2.000000,645.333313 2.000000,2.000000 
	C890.000000,2.000000 1778.000000,2.000000 2666.000000,2.000000 
	C2666.000000,645.333313 2666.000000,1288.666626 2666.000000,1932.000000 
	C2301.666748,1932.000000 1937.333374,1932.000000 1572.000000,1932.000000 
M1599.613037,49.313702 
	C1588.431641,45.036335 1577.402710,40.287704 1566.027222,36.610683 
	C1554.020386,32.729553 1541.841431,29.111803 1528.901001,29.829399 
	C1519.676392,30.340935 1512.305054,33.999954 1506.767334,41.482830 
	C1503.652710,45.691544 1502.867065,50.040878 1505.771484,54.448254 
	C1509.422607,59.988392 1513.073242,65.606422 1517.399536,70.606361 
	C1524.367065,78.658600 1532.147583,86.007530 1539.112549,94.061790 
	C1549.356567,105.908005 1558.970459,118.247421 1565.412476,132.727722 
	C1572.112671,147.788757 1575.521973,163.594116 1577.108032,179.959229 
	C1579.848145,208.231537 1579.892944,236.430054 1576.935669,264.700378 
	C1574.593750,287.088196 1567.480591,308.309509 1560.786743,329.467590 
	C1551.362061,359.257416 1540.488403,388.641205 1529.019287,417.719360 
	C1512.421509,459.800629 1494.641479,501.414215 1477.546021,543.300903 
	C1464.705322,574.762695 1454.829102,607.206177 1446.600708,640.144470 
	C1443.617676,652.084839 1441.803833,664.322693 1438.682983,676.221985 
	C1430.534302,707.290710 1427.099487,739.118286 1424.439087,770.911255 
	C1422.136475,798.426636 1423.182129,826.096191 1426.036499,853.724304 
	C1430.392334,895.886902 1440.615601,936.181702 1460.094971,973.956848 
	C1474.025513,1000.971252 1492.745361,1024.126343 1516.531860,1043.048340 
	C1549.029663,1068.899780 1586.993286,1081.808228 1627.441772,1087.272827 
	C1663.580811,1092.155273 1699.705688,1090.248169 1735.866577,1084.520264 
	C1784.112671,1076.877808 1824.253540,1054.099365 1859.480225,1021.710022 
	C1905.206299,979.667114 1936.644165,927.811951 1959.918213,870.783325 
	C1970.355103,845.209839 1978.721191,818.949707 1984.727661,791.843506 
	C1989.492310,770.340881 1994.572754,748.851013 1995.432739,726.928711 
	C1998.022339,660.919922 1996.921753,595.100525 1982.787354,530.057800 
	C1975.139038,494.862579 1965.105347,460.544250 1952.223145,426.893616 
	C1939.795166,394.429077 1924.699829,363.311829 1907.242920,333.408386 
	C1878.592651,284.330963 1844.038818,239.588120 1804.758545,198.506210 
	C1776.616455,169.073364 1746.108398,142.337509 1713.746338,117.629120 
	C1678.661621,90.842041 1641.456787,67.702805 1599.613037,49.313702 
M937.807556,642.819641 
	C940.933655,638.508240 943.917725,634.085144 947.207764,629.902771 
	C980.455872,587.637573 1019.909973,552.201721 1064.832764,522.707947 
	C1106.203247,495.546356 1149.961426,473.154602 1196.850952,457.310211 
	C1221.072144,449.125702 1245.820679,442.500153 1270.338501,435.195984 
	C1291.681885,428.837555 1313.514648,424.321838 1334.246460,415.674744 
	C1381.192139,396.093964 1422.225098,368.747070 1453.850464,328.322998 
	C1472.663452,304.275940 1485.304443,277.152130 1491.117554,247.399826 
	C1496.009277,222.364319 1495.161133,197.082687 1487.481201,172.316849 
	C1480.285889,149.113647 1469.459229,127.853874 1453.888062,109.246971 
	C1434.015869,85.500351 1410.193481,66.680740 1382.818604,51.933075 
	C1341.865234,29.870451 1297.986084,19.026028 1252.006470,15.770436 
	C1217.315552,13.314132 1183.533691,19.933628 1150.428223,29.100363 
	C1112.882690,39.496544 1076.642090,53.618557 1041.210938,70.070190 
	C1005.965576,86.435555 973.306458,106.839256 941.831787,129.282104 
	C904.292236,156.049393 870.179138,186.672302 839.590210,221.283676 
	C818.366760,245.298203 798.988647,270.668701 781.540344,297.468903 
	C756.962830,335.219238 735.996399,374.956421 718.888000,416.650604 
	C707.253784,445.003845 698.129761,474.141693 690.314209,503.837097 
	C679.735413,544.031433 674.666504,584.918091 672.696106,626.146484 
	C671.459473,652.022705 672.796448,678.080261 674.057129,704.004089 
	C676.020020,744.364929 683.094543,783.977417 693.312866,823.073792 
	C701.911621,855.973083 712.914551,887.989197 726.083679,919.339844 
	C742.131042,957.542480 761.695801,993.854431 784.367065,1028.436523 
	C810.936096,1068.963989 841.885132,1105.999146 877.138062,1139.275635 
	C884.293823,1146.030151 892.768311,1151.693970 901.396423,1156.490601 
	C909.039246,1160.739502 915.805786,1158.941528 920.606140,1153.777344 
	C924.862671,1149.198120 925.342468,1142.608887 921.422424,1135.173218 
	C916.454041,1125.749390 911.365173,1116.376343 905.965759,1107.194458 
	C885.062195,1071.648071 873.318054,1032.960938 867.639771,992.454163 
	C865.012756,973.713562 864.741882,954.644348 863.356934,935.727539 
	C859.841003,887.704773 860.781372,840.086060 871.301819,792.683105 
	C883.312378,738.566284 905.114563,689.133362 937.807556,642.819641 
M956.580322,1060.774658 
	C957.017761,1067.414062 957.451538,1074.053833 957.893311,1080.692993 
	C959.770935,1108.910645 966.528198,1135.859863 978.842224,1161.369751 
	C999.183777,1203.509644 1031.187500,1234.772705 1070.381714,1259.243530 
	C1107.803467,1282.607666 1149.000977,1296.845093 1191.529053,1306.962891 
	C1229.487061,1315.993286 1268.360229,1319.796143 1307.290405,1321.844116 
	C1354.987061,1324.353271 1402.525024,1321.080322 1449.815308,1315.062134 
	C1497.096313,1309.045044 1543.448242,1298.687012 1588.939575,1284.125977 
	C1617.878052,1274.863037 1645.883423,1263.659912 1673.215942,1250.528076 
	C1697.321167,1238.947021 1719.875977,1224.876709 1741.230591,1208.855225 
	C1745.473755,1205.671631 1749.547974,1202.106567 1753.071411,1198.156616 
	C1758.318481,1192.274658 1760.199463,1185.306519 1756.615356,1177.813843 
	C1753.155884,1170.582397 1747.157593,1166.458496 1739.138550,1166.652954 
	C1734.260864,1166.771240 1729.386841,1168.235107 1724.570312,1169.350342 
	C1719.103027,1170.616211 1713.762573,1173.063232 1708.261353,1173.436035 
	C1687.333984,1174.854492 1666.373901,1176.042358 1645.407227,1176.558228 
	C1622.979980,1177.110229 1601.026123,1174.110474 1579.476562,1167.207397 
	C1557.624146,1160.207397 1537.881714,1149.505493 1519.303955,1136.381714 
	C1494.164551,1118.622559 1472.436279,1096.987793 1450.907715,1075.202637 
	C1418.039062,1041.942139 1390.247681,1004.543640 1362.924805,966.731445 
	C1344.172852,940.780457 1323.628540,916.233948 1298.670288,895.882202 
	C1269.621948,872.195312 1238.922852,850.990845 1202.046875,841.461365 
	C1184.729492,836.986206 1166.897827,833.965759 1149.110107,831.983887 
	C1127.675171,829.595764 1106.626709,833.576233 1086.108032,839.998413 
	C1063.862915,846.960999 1044.130859,858.242004 1026.807251,873.945374 
	C1000.458679,897.829590 983.302856,927.398193 971.633301,960.614319 
	C960.444946,992.460510 957.295593,1025.469482 956.580322,1060.774658 
M528.040283,1688.924072 
	C523.911621,1679.497681 520.547729,1669.640747 515.525513,1660.717285 
	C490.063751,1615.477051 450.578003,1590.474487 399.427460,1586.767944 
	C360.988800,1583.982666 322.245056,1585.343018 283.635712,1585.034790 
	C276.377686,1584.976807 275.257935,1586.507446 274.944397,1594.012817 
	C274.874969,1595.674927 274.936676,1597.342773 274.936676,1599.007935 
	C274.936859,1700.586182 274.936890,1802.164307 274.937073,1903.742554 
	C274.937073,1905.740845 274.824860,1907.746826 274.961243,1909.735840 
	C275.430054,1916.572632 276.396393,1917.709595 283.512634,1917.702271 
	C320.810577,1917.664185 358.142303,1918.426147 395.397034,1917.090454 
	C436.217438,1915.626831 470.579315,1898.700317 497.921478,1868.223389 
	C520.028992,1843.581299 531.871338,1814.021973 534.881531,1781.555908 
	C537.710144,1751.047852 537.587402,1720.328491 528.040283,1688.924072 
M977.943359,698.907776 
	C953.447937,726.454712 932.907349,756.641174 917.170105,790.027527 
	C915.609192,793.339050 913.728210,796.606934 912.891785,800.109009 
	C912.447876,801.967834 913.310913,805.081055 914.715820,806.176453 
	C916.147339,807.292603 919.004639,806.911743 921.164246,806.627869 
	C922.310974,806.477234 923.326721,805.172729 924.359802,804.337463 
	C941.518066,790.464050 959.802612,778.067993 979.770020,768.889343 
	C998.141785,760.444336 1017.238037,753.197327 1036.604248,747.385742 
	C1063.211792,739.400879 1091.005005,737.574524 1118.621338,736.559814 
	C1139.552612,735.790710 1160.562622,737.481018 1181.529175,737.262146 
	C1203.501343,737.032776 1225.588257,737.026245 1247.397705,734.746765 
	C1273.561279,732.012085 1299.363159,726.870300 1322.769897,713.368408 
	C1343.887817,701.186951 1360.729614,685.425903 1369.994385,662.403381 
	C1376.549438,646.114502 1376.621582,630.242737 1368.863525,614.119995 
	C1359.816650,595.318604 1344.539185,583.577209 1326.425781,574.978210 
	C1307.668091,566.073364 1287.844238,560.901917 1267.283569,557.454102 
	C1233.240356,551.745483 1200.279297,554.559998 1167.933105,566.117798 
	C1121.334717,582.768188 1079.706055,608.107788 1041.121826,638.773926 
	C1018.637573,656.644165 997.911255,676.348083 977.943359,698.907776 
M714.999939,1855.624146 
	C726.659973,1855.623901 738.320190,1855.591187 749.980042,1855.633301 
	C759.738342,1855.668457 759.691345,1855.721802 762.470642,1864.635132 
	C767.125366,1879.562866 771.813599,1894.480103 776.553833,1909.380859 
	C778.944763,1916.896606 779.917114,1917.697510 787.912170,1917.727539 
	C810.898621,1917.813965 833.885681,1917.796997 856.872131,1917.714722 
	C859.026733,1917.707031 861.178650,1916.950439 864.424744,1916.333984 
	C863.429382,1912.491455 862.893372,1909.304321 861.787109,1906.329468 
	C853.215454,1883.278198 844.396423,1860.318359 835.916382,1837.233765 
	C821.467224,1797.900269 807.306091,1758.460938 792.845398,1719.131714 
	C777.472046,1677.320435 761.898376,1635.582764 746.394470,1593.819580 
	C743.461609,1585.919189 742.465088,1585.050537 734.084961,1584.994385 
	C715.096680,1584.867188 696.106934,1584.903687 677.118042,1584.965942 
	C668.354187,1584.994507 667.116943,1585.953613 664.093201,1594.260498 
	C651.120850,1629.898804 638.223755,1665.564697 625.182922,1701.177856 
	C609.622253,1743.672485 593.959412,1786.129883 578.308899,1828.591553 
	C568.527893,1855.128784 558.663635,1881.635620 548.917358,1908.185669 
	C548.049194,1910.550659 547.777100,1913.134521 546.943481,1916.903442 
	C551.050293,1917.242188 554.208679,1917.718872 557.368469,1917.728638 
	C579.022400,1917.795776 600.676819,1917.790527 622.330933,1917.752930 
	C631.239807,1917.737427 632.286560,1916.968750 634.931824,1908.358765 
	C639.420593,1893.747925 643.835632,1879.114258 648.232361,1864.475464 
	C650.720825,1856.190308 651.245178,1855.665405 660.030579,1855.636597 
	C677.686890,1855.578857 695.343506,1855.622192 714.999939,1855.624146 
M20.051130,1815.000000 
	C20.051123,1826.330933 20.051111,1837.661865 20.051109,1848.992798 
	C20.051107,1860.323730 19.885088,1871.657959 20.098091,1882.984863 
	C20.308487,1894.173462 19.141315,1905.441895 20.874125,1916.923584 
	C23.899687,1917.256836 26.155195,1917.714600 28.412027,1917.721313 
	C49.407475,1917.782837 70.403313,1917.817749 91.398666,1917.748779 
	C100.034576,1917.720459 100.798073,1916.822021 101.043739,1907.835327 
	C101.098358,1905.837280 101.043182,1903.836426 101.043236,1901.836792 
	C101.044189,1866.510864 101.014694,1831.184937 101.067459,1795.859009 
	C101.082191,1785.993530 101.505226,1785.663452 111.074844,1785.501343 
	C113.407028,1785.461914 115.740433,1785.494751 118.073280,1785.494629 
	C151.732910,1785.494263 185.392593,1785.523560 219.052155,1785.475708 
	C229.143890,1785.461426 229.642288,1784.909180 229.680588,1774.610107 
	C229.732635,1760.613159 229.732864,1746.615723 229.651138,1732.619141 
	C229.636215,1730.065674 229.123016,1727.515137 228.756042,1724.208252 
	C224.601532,1724.025146 221.020874,1723.734253 217.439926,1723.730469 
	C183.780319,1723.695068 150.120453,1723.635864 116.461121,1723.737061 
	C98.031456,1723.792480 101.206390,1723.296997 101.073860,1707.832764 
	C100.942490,1692.503784 101.032578,1677.172729 101.051094,1661.842651 
	C101.067917,1647.912354 101.083054,1647.893188 114.768364,1647.888550 
	C154.093475,1647.875244 193.418640,1647.911377 232.743683,1647.853516 
	C242.569016,1647.838989 243.105164,1647.291138 243.167908,1637.845215 
	C243.260895,1623.848755 243.251556,1609.850952 243.179825,1595.854248 
	C243.129059,1585.947754 242.232620,1584.980835 232.270309,1584.974121 
	C164.951065,1584.928589 97.631775,1584.932739 30.312536,1584.974487 
	C20.417498,1584.980591 20.175423,1585.348633 20.040773,1595.045532 
	C20.026896,1596.045044 20.046791,1597.045166 20.046816,1598.044922 
	C20.048546,1669.696655 20.049850,1741.348267 20.051130,1815.000000 
M1628.325684,1832.500732 
	C1622.127075,1822.642822 1615.826782,1812.847168 1609.758545,1802.909668 
	C1603.830322,1793.201050 1596.140503,1784.408081 1593.259644,1774.371216 
	C1604.927002,1768.574951 1616.549438,1764.631104 1626.038086,1757.746216 
	C1655.373291,1736.461304 1667.689453,1706.833130 1664.848999,1670.857666 
	C1663.310547,1651.371338 1656.460571,1633.907471 1643.472778,1619.208618 
	C1626.352051,1599.832642 1604.185059,1589.582275 1578.929443,1586.901733 
	C1561.113525,1585.010742 1543.067749,1585.016724 1525.115967,1584.742554 
	C1503.134155,1584.406860 1481.143188,1584.619019 1459.156372,1584.683105 
	C1449.071411,1584.712524 1448.618408,1585.271362 1448.504517,1595.559204 
	C1448.493530,1596.558472 1448.508179,1597.557983 1448.508179,1598.557373 
	C1448.508301,1700.829956 1448.508179,1803.102661 1448.508057,1905.375244 
	C1448.508057,1907.374023 1448.387329,1909.381470 1448.529663,1911.369995 
	C1448.904175,1916.606567 1451.107666,1918.784912 1455.805908,1918.750854 
	C1460.348877,1918.718140 1462.604126,1916.428711 1463.037231,1911.124146 
	C1463.226318,1908.807739 1463.067749,1906.462891 1463.067871,1904.130981 
	C1463.069092,1865.820435 1463.049316,1827.509766 1463.104004,1789.199219 
	C1463.109497,1785.356812 1463.566650,1781.515015 1463.825195,1777.501465 
	C1467.288696,1777.157349 1469.567749,1776.736694 1471.847290,1776.733521 
	C1503.828369,1776.689331 1535.810791,1776.862793 1567.789185,1776.569214 
	C1574.420166,1776.508423 1578.084229,1779.291138 1581.351196,1784.593506 
	C1601.601318,1817.460938 1622.069092,1850.194214 1642.468140,1882.969727 
	C1648.621582,1892.856689 1654.648926,1902.825928 1660.988647,1912.592041 
	C1666.120483,1920.497681 1672.012451,1920.991089 1678.888672,1914.089111 
	C1662.310425,1887.391113 1645.665283,1860.585327 1628.325684,1832.500732 
M911.641785,1650.207275 
	C913.794006,1640.203613 918.151062,1631.408203 925.456726,1624.087402 
	C938.737915,1610.778931 954.230408,1601.924927 972.919861,1598.337158 
	C999.619751,1593.211792 1026.096680,1592.697998 1051.601807,1602.913208 
	C1071.317505,1610.809692 1086.817139,1624.158325 1096.055176,1643.910400 
	C1100.621094,1653.672485 1103.457397,1663.830444 1104.164307,1674.600586 
	C1104.475830,1679.346069 1107.742676,1680.692505 1111.854004,1680.404419 
	C1115.893799,1680.121460 1117.924194,1677.603882 1117.483398,1673.673340 
	C1116.632324,1666.083130 1116.412598,1658.250854 1114.280029,1651.004761 
	C1104.677734,1618.377441 1082.235474,1597.562866 1050.680908,1587.287964 
	C1013.051208,1575.034912 975.484192,1577.113159 940.002136,1595.110718 
	C911.016785,1609.812744 894.557678,1633.064697 896.110046,1667.274902 
	C897.101074,1689.116455 906.201538,1705.960938 922.813843,1719.684082 
	C936.475891,1730.970337 952.424744,1737.711426 968.729492,1743.343872 
	C993.865479,1752.026855 1019.556458,1759.091431 1044.790283,1767.507446 
	C1062.591675,1773.444458 1078.903198,1782.162598 1092.277588,1795.930786 
	C1110.375000,1814.560791 1110.479248,1846.923340 1102.074951,1863.255981 
	C1093.974243,1878.998901 1081.459229,1890.262329 1065.342285,1897.099365 
	C1024.398193,1914.468262 983.557678,1912.911865 943.331848,1894.685425 
	C930.420410,1888.835083 919.714905,1879.828735 911.938965,1867.679688 
	C904.629150,1856.258911 899.912598,1844.045654 899.450073,1830.302124 
	C899.246338,1824.251099 896.992249,1822.541992 891.400940,1823.107178 
	C886.570862,1823.595337 885.127197,1825.644409 885.661865,1831.509521 
	C885.903564,1834.160522 886.384460,1836.788940 886.701904,1839.434204 
	C889.826782,1865.479858 902.429504,1885.736572 924.073181,1900.403076 
	C941.250488,1912.042847 960.481995,1917.380127 980.846802,1920.831421 
	C1007.163818,1925.291504 1032.985229,1923.585083 1057.868164,1915.656738 
	C1090.785400,1905.168579 1115.974731,1885.664062 1120.591797,1848.295166 
	C1123.296021,1826.408936 1119.792969,1805.868652 1104.878540,1788.325562 
	C1094.503906,1776.122192 1081.548828,1767.742310 1067.305664,1760.890869 
	C1046.461182,1750.864502 1024.086548,1745.597046 1002.102173,1738.981689 
	C983.018799,1733.239136 963.862915,1727.584351 946.194824,1717.722046 
	C920.151062,1703.184570 907.209717,1682.248535 911.641785,1650.207275 
M2614.998779,1918.910278 
	C2625.994385,1918.908936 2636.991943,1919.028198 2647.984863,1918.860718 
	C2654.402588,1918.762939 2655.622070,1917.460693 2655.648193,1911.262207 
	C2655.657715,1909.034546 2654.964355,1906.804077 2654.382812,1903.324341 
	C2650.212158,1903.324341 2646.307129,1903.324463 2642.402100,1903.324463 
	C2588.090820,1903.323486 2533.779297,1903.338379 2479.468018,1903.288086 
	C2475.611572,1903.284424 2471.755615,1902.802124 2467.534180,1902.517822 
	C2467.244385,1898.937622 2466.854492,1896.350952 2466.852051,1893.764160 
	C2466.811035,1850.781494 2466.818604,1807.798950 2466.816895,1764.816284 
	C2466.816895,1763.483643 2466.861816,1762.150757 2466.845947,1760.818359 
	C2466.786621,1755.780762 2469.451904,1753.589478 2474.294189,1753.614990 
	C2476.959717,1753.629028 2479.625000,1753.585938 2482.290527,1753.585815 
	C2527.605469,1753.583618 2572.920654,1753.585205 2618.235596,1753.581909 
	C2620.900879,1753.581665 2623.566650,1753.569458 2626.231445,1753.521606 
	C2630.047363,1753.453247 2632.605957,1752.008667 2632.841064,1747.733398 
	C2633.073486,1743.507202 2631.698730,1740.393066 2627.191406,1739.797119 
	C2623.908447,1739.363037 2620.552246,1739.374268 2617.228516,1739.372437 
	C2570.913818,1739.347900 2524.599365,1739.369019 2478.284668,1739.345093 
	C2466.888428,1739.339233 2466.836182,1739.283569 2466.828369,1727.570801 
	C2466.802734,1688.586548 2466.796143,1649.602295 2466.831299,1610.618042 
	C2466.841309,1599.565430 2466.918213,1599.563843 2477.975342,1599.487427 
	C2479.641357,1599.475952 2481.307373,1599.487183 2482.973389,1599.487183 
	C2536.618408,1599.485962 2590.263428,1599.494141 2643.908447,1599.461304 
	C2647.449707,1599.459229 2650.990967,1599.143921 2654.831055,1598.959839 
	C2654.831055,1593.841064 2654.831055,1589.745850 2654.831055,1585.314209 
	C2587.190674,1585.314209 2520.424072,1585.314209 2452.760986,1585.314209 
	C2452.528320,1589.886719 2452.158691,1593.777710 2452.157471,1597.668579 
	C2452.126953,1695.962158 2452.141846,1794.255859 2452.117920,1892.549438 
	C2452.116699,1897.872925 2451.890625,1903.197876 2451.698486,1908.519531 
	C2451.398682,1916.810059 2453.002197,1918.633301 2461.061035,1918.898560 
	C2463.058350,1918.964355 2465.059326,1918.910278 2467.058594,1918.910278 
	C2515.705566,1918.909668 2564.352539,1918.909058 2614.998779,1918.910278 
M1381.708130,1903.278442 
	C1361.384399,1903.277710 1341.060791,1903.276978 1320.737061,1903.276733 
	C1300.746460,1903.276367 1280.755737,1903.343994 1260.765503,1903.257568 
	C1240.592651,1903.170410 1220.399658,1903.638916 1199.745728,1902.959839 
	C1199.456421,1898.644897 1199.093628,1895.731812 1199.090942,1892.818481 
	C1199.052124,1850.171875 1199.061401,1807.525391 1199.060669,1764.878784 
	C1199.060669,1763.546265 1199.106445,1762.213257 1199.086792,1760.881226 
	C1199.013062,1755.876465 1201.553467,1753.580811 1206.466431,1753.647949 
	C1209.131104,1753.684448 1211.796875,1753.623291 1214.462158,1753.623169 
	C1259.774170,1753.620972 1305.086060,1753.621948 1350.398071,1753.619141 
	C1353.063232,1753.619019 1355.728516,1753.578979 1358.393677,1753.581177 
	C1362.924316,1753.584961 1365.127930,1751.376953 1365.028320,1746.806396 
	C1364.935913,1742.568604 1363.253784,1739.709717 1358.696655,1739.415039 
	C1356.041138,1739.243164 1353.368408,1739.312622 1350.703491,1739.312256 
	C1303.725586,1739.307007 1256.747803,1739.327515 1209.769897,1739.292114 
	C1199.186157,1739.284180 1199.092163,1739.196533 1199.080444,1728.785156 
	C1199.036743,1689.803467 1199.041260,1650.821899 1199.069702,1611.840210 
	C1199.078491,1599.806396 1199.349487,1599.595581 1211.376343,1599.527222 
	C1213.042236,1599.517700 1214.708008,1599.525146 1216.373901,1599.525024 
	C1269.682129,1599.523682 1322.990356,1599.530273 1376.298584,1599.503296 
	C1379.821533,1599.501465 1383.344482,1599.243042 1387.107300,1599.094360 
	C1387.107300,1593.823364 1387.107300,1589.708252 1387.107300,1585.033447 
	C1383.365356,1584.841797 1380.441650,1584.562622 1377.517822,1584.561279 
	C1317.212891,1584.535278 1256.907959,1584.531128 1196.603027,1584.547729 
	C1184.572876,1584.551025 1184.394775,1584.777710 1184.353027,1596.872314 
	C1184.351807,1597.205444 1184.354248,1597.538696 1184.354248,1597.871826 
	C1184.354126,1700.490112 1184.353516,1803.108398 1184.353149,1905.726685 
	C1184.353149,1907.392578 1184.273438,1909.062622 1184.362549,1910.723633 
	C1184.737427,1917.714722 1185.635620,1918.752686 1192.684692,1918.910278 
	C1201.009888,1919.096558 1209.342529,1918.959473 1217.671875,1918.959351 
	C1271.313232,1918.958618 1324.954712,1918.966309 1378.596069,1918.933472 
	C1382.121460,1918.931396 1386.676636,1920.009033 1387.479370,1914.923340 
	C1388.153076,1910.654785 1390.049805,1905.325562 1381.708130,1903.278442 
M2322.172607,1908.978027 
	C2332.735107,1903.148438 2342.345215,1896.190552 2350.293701,1886.935791 
	C2366.065674,1868.572144 2373.185791,1846.664307 2376.830078,1823.323608 
	C2377.956787,1816.107788 2373.177246,1812.286011 2366.690918,1815.387939 
	C2364.642334,1816.367798 2363.028564,1819.886597 2362.645264,1822.456665 
	C2360.007812,1840.141235 2354.829834,1856.814453 2344.486328,1871.617065 
	C2337.110352,1882.173462 2327.704834,1890.286377 2316.176514,1896.169922 
	C2295.366699,1906.790283 2273.139893,1910.260254 2250.250977,1908.424683 
	C2221.729004,1906.137695 2198.042480,1893.901611 2180.247803,1871.001343 
	C2161.333252,1846.659912 2153.630615,1818.368286 2151.849854,1788.304810 
	C2150.847168,1771.370239 2151.518066,1754.334473 2151.504883,1737.344238 
	C2151.492188,1721.038940 2151.443115,1704.798950 2155.285156,1688.705566 
	C2160.447510,1667.082397 2167.724121,1646.591919 2182.467041,1629.459473 
	C2196.059814,1613.663452 2212.249268,1602.032227 2233.098145,1597.695312 
	C2253.350098,1593.482422 2273.416260,1594.257446 2293.491699,1598.902222 
	C2318.227295,1604.625366 2336.827148,1618.267090 2349.266357,1640.530518 
	C2356.201904,1652.943726 2360.037842,1666.245605 2362.469971,1680.096191 
	C2363.693359,1687.064819 2364.502930,1687.774414 2371.553467,1687.550171 
	C2373.370850,1687.492310 2375.159424,1686.526367 2378.306396,1685.567871 
	C2375.972656,1675.501099 2374.205322,1665.742676 2371.428467,1656.280396 
	C2361.093262,1621.062500 2338.109863,1598.148193 2303.319580,1586.562012 
	C2284.907715,1580.430298 2266.046875,1579.394897 2247.055908,1580.753418 
	C2219.348145,1582.735596 2195.623779,1594.314941 2176.541504,1614.265259 
	C2152.747803,1639.141479 2141.324951,1669.985840 2139.323486,1703.723633 
	C2137.609619,1732.609619 2138.307373,1761.662231 2138.588135,1790.634888 
	C2138.783447,1810.764893 2142.920410,1830.301392 2150.724121,1848.940186 
	C2163.337891,1879.067627 2183.330322,1902.878296 2214.145264,1914.687500 
	C2249.983643,1928.421997 2285.967529,1925.666626 2322.172607,1908.978027 
M1907.744019,1732.195557 
	C1887.334106,1786.889893 1866.924316,1841.584351 1845.780029,1898.246704 
	C1843.489380,1893.986694 1842.047729,1891.870117 1841.157104,1889.542847 
	C1838.430664,1882.417969 1835.980957,1875.187866 1833.307251,1868.042480 
	C1823.403198,1841.575073 1813.356323,1815.160767 1803.541626,1788.660522 
	C1789.450317,1750.612915 1775.563232,1712.489746 1761.497559,1674.432495 
	C1751.584351,1647.610107 1741.446655,1620.870483 1731.560547,1594.038208 
	C1727.981934,1584.325439 1726.159058,1583.277954 1714.368652,1586.425415 
	C1714.782715,1588.860718 1714.843140,1591.509888 1715.709595,1593.862183 
	C1717.889771,1599.780640 1720.599487,1605.503418 1722.804199,1611.413818 
	C1734.314453,1642.270386 1745.721680,1673.165283 1757.187134,1704.038574 
	C1768.999390,1735.845825 1780.837646,1767.643677 1792.663818,1799.445923 
	C1803.099365,1827.508301 1813.536133,1855.570312 1823.967651,1883.634155 
	C1827.562012,1893.304565 1831.270508,1902.935669 1834.672607,1912.673462 
	C1836.241089,1917.162598 1839.129272,1918.776367 1843.692871,1918.879028 
	C1851.519775,1919.055420 1852.985596,1918.250366 1856.201782,1910.477661 
	C1857.472534,1907.406860 1858.796875,1904.354736 1859.953491,1901.240845 
	C1874.545532,1861.953491 1889.045044,1822.631470 1903.702148,1783.368286 
	C1917.776001,1745.667480 1932.001221,1708.023193 1946.168701,1670.357178 
	C1955.885010,1644.525391 1965.647827,1618.710815 1975.281372,1592.848145 
	C1976.032837,1590.830811 1975.927979,1588.494263 1976.209351,1586.393555 
	C1964.947998,1583.376831 1962.598267,1584.484253 1959.037598,1594.171997 
	C1953.071411,1610.404419 1947.221191,1626.679810 1941.185303,1642.886353 
	C1930.273193,1672.184814 1919.260010,1701.445679 1907.744019,1732.195557 
M2051.701172,1671.000000 
	C2051.701416,1661.345093 2051.701416,1651.690186 2051.701416,1642.035278 
	C2051.701416,1632.713379 2051.754639,1623.390991 2051.686523,1614.069580 
	C2051.616699,1604.552124 2051.427490,1595.035522 2051.294189,1585.787598 
	C2039.506104,1584.195435 2038.836792,1584.735474 2038.666260,1594.630615 
	C2038.649048,1595.629150 2038.669800,1596.628052 2038.669800,1597.626831 
	C2038.669189,1700.500977 2038.668213,1803.375244 2038.668579,1906.249390 
	C2038.668579,1908.246704 2038.654785,1910.244751 2038.701416,1912.241211 
	C2038.788818,1915.983276 2039.958862,1918.693970 2044.396606,1918.818604 
	C2048.754395,1918.940796 2051.513672,1917.429688 2051.644287,1912.704956 
	C2051.708496,1910.376343 2051.702148,1908.045288 2051.702148,1905.715332 
	C2051.703613,1828.143555 2051.701904,1750.571777 2051.701172,1671.000000 
z"/>
<path fill="#01CDB4" opacity="1.000000" stroke="none" 
	d="
M1600.249390,49.727180 
	C1641.456787,67.702805 1678.661621,90.842041 1713.746338,117.629120 
	C1746.108398,142.337509 1776.616455,169.073364 1804.758545,198.506210 
	C1844.038818,239.588120 1878.592651,284.330963 1907.242920,333.408386 
	C1924.699829,363.311829 1939.795166,394.429077 1952.223145,426.893616 
	C1965.105347,460.544250 1975.139038,494.862579 1982.787354,530.057800 
	C1996.921753,595.100525 1998.022339,660.919922 1995.432739,726.928711 
	C1994.572754,748.851013 1989.492310,770.340881 1984.727661,791.843506 
	C1978.721191,818.949707 1970.355103,845.209839 1959.918213,870.783325 
	C1936.644165,927.811951 1905.206299,979.667114 1859.480225,1021.710022 
	C1824.253540,1054.099365 1784.112671,1076.877808 1735.866577,1084.520264 
	C1699.705688,1090.248169 1663.580811,1092.155273 1627.441772,1087.272827 
	C1586.993286,1081.808228 1549.029663,1068.899780 1516.531860,1043.048340 
	C1492.745361,1024.126343 1474.025513,1000.971252 1460.094971,973.956848 
	C1440.615601,936.181702 1430.392334,895.886902 1426.036499,853.724304 
	C1423.182129,826.096191 1422.136475,798.426636 1424.439087,770.911255 
	C1427.099487,739.118286 1430.534302,707.290710 1438.682983,676.221985 
	C1441.803833,664.322693 1443.617676,652.084839 1446.600708,640.144470 
	C1454.829102,607.206177 1464.705322,574.762695 1477.546021,543.300903 
	C1494.641479,501.414215 1512.421509,459.800629 1529.019287,417.719360 
	C1540.488403,388.641205 1551.362061,359.257416 1560.786743,329.467590 
	C1567.480591,308.309509 1574.593750,287.088196 1576.935669,264.700378 
	C1579.892944,236.430054 1579.848145,208.231537 1577.108032,179.959229 
	C1575.521973,163.594116 1572.112671,147.788757 1565.412476,132.727722 
	C1558.970459,118.247421 1549.356567,105.908005 1539.112549,94.061790 
	C1532.147583,86.007530 1524.367065,78.658600 1517.399536,70.606361 
	C1513.073242,65.606422 1509.422607,59.988392 1505.771484,54.448254 
	C1502.867065,50.040878 1503.652710,45.691544 1506.767334,41.482830 
	C1512.305054,33.999954 1519.676392,30.340935 1528.901001,29.829399 
	C1541.841431,29.111803 1554.020386,32.729553 1566.027222,36.610683 
	C1577.402710,40.287704 1588.431641,45.036335 1600.249390,49.727180 
z"/>
<path fill="#02CDB4" opacity="1.000000" stroke="none" 
	d="
M937.329102,643.355469 
	C905.114563,689.133362 883.312378,738.566284 871.301819,792.683105 
	C860.781372,840.086060 859.841003,887.704773 863.356934,935.727539 
	C864.741882,954.644348 865.012756,973.713562 867.639771,992.454163 
	C873.318054,1032.960938 885.062195,1071.648071 905.965759,1107.194458 
	C911.365173,1116.376343 916.454041,1125.749390 921.422424,1135.173218 
	C925.342468,1142.608887 924.862671,1149.198120 920.606140,1153.777344 
	C915.805786,1158.941528 909.039246,1160.739502 901.396423,1156.490601 
	C892.768311,1151.693970 884.293823,1146.030151 877.138062,1139.275635 
	C841.885132,1105.999146 810.936096,1068.963989 784.367065,1028.436523 
	C761.695801,993.854431 742.131042,957.542480 726.083679,919.339844 
	C712.914551,887.989197 701.911621,855.973083 693.312866,823.073792 
	C683.094543,783.977417 676.020020,744.364929 674.057129,704.004089 
	C672.796448,678.080261 671.459473,652.022705 672.696106,626.146484 
	C674.666504,584.918091 679.735413,544.031433 690.314209,503.837097 
	C698.129761,474.141693 707.253784,445.003845 718.888000,416.650604 
	C735.996399,374.956421 756.962830,335.219238 781.540344,297.468903 
	C798.988647,270.668701 818.366760,245.298203 839.590210,221.283676 
	C870.179138,186.672302 904.292236,156.049393 941.831787,129.282104 
	C973.306458,106.839256 1005.965576,86.435555 1041.210938,70.070190 
	C1076.642090,53.618557 1112.882690,39.496544 1150.428223,29.100363 
	C1183.533691,19.933628 1217.315552,13.314132 1252.006470,15.770436 
	C1297.986084,19.026028 1341.865234,29.870451 1382.818604,51.933075 
	C1410.193481,66.680740 1434.015869,85.500351 1453.888062,109.246971 
	C1469.459229,127.853874 1480.285889,149.113647 1487.481201,172.316849 
	C1495.161133,197.082687 1496.009277,222.364319 1491.117554,247.399826 
	C1485.304443,277.152130 1472.663452,304.275940 1453.850464,328.322998 
	C1422.225098,368.747070 1381.192139,396.093964 1334.246460,415.674744 
	C1313.514648,424.321838 1291.681885,428.837555 1270.338501,435.195984 
	C1245.820679,442.500153 1221.072144,449.125702 1196.850952,457.310211 
	C1149.961426,473.154602 1106.203247,495.546356 1064.832764,522.707947 
	C1019.909973,552.201721 980.455872,587.637573 947.207764,629.902771 
	C943.917725,634.085144 940.933655,638.508240 937.329102,643.355469 
z"/>
<path fill="#02CDB5" opacity="1.000000" stroke="none" 
	d="
M956.580078,1059.829468 
	C957.295593,1025.469482 960.444946,992.460510 971.633301,960.614319 
	C983.302856,927.398193 1000.458679,897.829590 1026.807251,873.945374 
	C1044.130859,858.242004 1063.862915,846.960999 1086.108032,839.998413 
	C1106.626709,833.576233 1127.675171,829.595764 1149.110107,831.983887 
	C1166.897827,833.965759 1184.729492,836.986206 1202.046875,841.461365 
	C1238.922852,850.990845 1269.621948,872.195312 1298.670288,895.882202 
	C1323.628540,916.233948 1344.172852,940.780457 1362.924805,966.731445 
	C1390.247681,1004.543640 1418.039062,1041.942139 1450.907715,1075.202637 
	C1472.436279,1096.987793 1494.164551,1118.622559 1519.303955,1136.381714 
	C1537.881714,1149.505493 1557.624146,1160.207397 1579.476562,1167.207397 
	C1601.026123,1174.110474 1622.979980,1177.110229 1645.407227,1176.558228 
	C1666.373901,1176.042358 1687.333984,1174.854492 1708.261353,1173.436035 
	C1713.762573,1173.063232 1719.103027,1170.616211 1724.570312,1169.350342 
	C1729.386841,1168.235107 1734.260864,1166.771240 1739.138550,1166.652954 
	C1747.157593,1166.458496 1753.155884,1170.582397 1756.615356,1177.813843 
	C1760.199463,1185.306519 1758.318481,1192.274658 1753.071411,1198.156616 
	C1749.547974,1202.106567 1745.473755,1205.671631 1741.230591,1208.855225 
	C1719.875977,1224.876709 1697.321167,1238.947021 1673.215942,1250.528076 
	C1645.883423,1263.659912 1617.878052,1274.863037 1588.939575,1284.125977 
	C1543.448242,1298.687012 1497.096313,1309.045044 1449.815308,1315.062134 
	C1402.525024,1321.080322 1354.987061,1324.353271 1307.290405,1321.844116 
	C1268.360229,1319.796143 1229.487061,1315.993286 1191.529053,1306.962891 
	C1149.000977,1296.845093 1107.803467,1282.607666 1070.381714,1259.243530 
	C1031.187500,1234.772705 999.183777,1203.509644 978.842224,1161.369751 
	C966.528198,1135.859863 959.770935,1108.910645 957.893311,1080.692993 
	C957.451538,1074.053833 957.017761,1067.414062 956.580078,1059.829468 
z"/>
<path fill="#05CEB5" opacity="1.000000" stroke="none" 
	d="
M528.288330,1689.686401 
	C537.587402,1720.328491 537.710144,1751.047852 534.881531,1781.555908 
	C531.871338,1814.021973 520.028992,1843.581299 497.921478,1868.223389 
	C470.579315,1898.700317 436.217438,1915.626831 395.397034,1917.090454 
	C358.142303,1918.426147 320.810577,1917.664185 283.512634,1917.702271 
	C276.396393,1917.709595 275.430054,1916.572632 274.961243,1909.735840 
	C274.824860,1907.746826 274.937073,1905.740845 274.937073,1903.742554 
	C274.936890,1802.164307 274.936859,1700.586182 274.936676,1599.007935 
	C274.936676,1597.342773 274.874969,1595.674927 274.944397,1594.012817 
	C275.257935,1586.507446 276.377686,1584.976807 283.635712,1585.034790 
	C322.245056,1585.343018 360.988800,1583.982666 399.427460,1586.767944 
	C450.578003,1590.474487 490.063751,1615.477051 515.525513,1660.717285 
	C520.547729,1669.640747 523.911621,1679.497681 528.288330,1689.686401 
M359.693420,1647.965088 
	C354.118744,1649.645630 355.828857,1654.383911 355.822876,1658.021240 
	C355.719788,1720.950439 355.741547,1783.879761 355.788696,1846.809082 
	C355.790588,1849.342285 356.310883,1851.875244 356.718384,1855.578247 
	C365.848083,1855.578247 374.418610,1855.604492 382.988922,1855.573608 
	C416.250793,1855.453613 439.002228,1837.723511 448.011566,1805.800293 
	C454.814636,1781.694702 455.621033,1757.146851 453.757660,1732.547241 
	C452.761475,1719.396240 450.214111,1706.139282 446.536438,1693.460938 
	C438.482239,1665.695312 415.489471,1648.763794 386.539429,1647.933716 
	C378.221924,1647.695190 369.892731,1647.864014 359.693420,1647.965088 
z"/>
<path fill="#04CEB5" opacity="1.000000" stroke="none" 
	d="
M978.411621,698.377441 
	C997.911255,676.348083 1018.637573,656.644165 1041.121826,638.773926 
	C1079.706055,608.107788 1121.334717,582.768188 1167.933105,566.117798 
	C1200.279297,554.559998 1233.240356,551.745483 1267.283569,557.454102 
	C1287.844238,560.901917 1307.668091,566.073364 1326.425781,574.978210 
	C1344.539185,583.577209 1359.816650,595.318604 1368.863525,614.119995 
	C1376.621582,630.242737 1376.549438,646.114502 1369.994385,662.403381 
	C1360.729614,685.425903 1343.887817,701.186951 1322.769897,713.368408 
	C1299.363159,726.870300 1273.561279,732.012085 1247.397705,734.746765 
	C1225.588257,737.026245 1203.501343,737.032776 1181.529175,737.262146 
	C1160.562622,737.481018 1139.552612,735.790710 1118.621338,736.559814 
	C1091.005005,737.574524 1063.211792,739.400879 1036.604248,747.385742 
	C1017.238037,753.197327 998.141785,760.444336 979.770020,768.889343 
	C959.802612,778.067993 941.518066,790.464050 924.359802,804.337463 
	C923.326721,805.172729 922.310974,806.477234 921.164246,806.627869 
	C919.004639,806.911743 916.147339,807.292603 914.715820,806.176453 
	C913.310913,805.081055 912.447876,801.967834 912.891785,800.109009 
	C913.728210,796.606934 915.609192,793.339050 917.170105,790.027527 
	C932.907349,756.641174 953.447937,726.454712 978.411621,698.377441 
z"/>
<path fill="#06CEB6" opacity="1.000000" stroke="none" 
	d="
M714.000000,1855.624023 
	C695.343506,1855.622192 677.686890,1855.578857 660.030579,1855.636597 
	C651.245178,1855.665405 650.720825,1856.190308 648.232361,1864.475464 
	C643.835632,1879.114258 639.420593,1893.747925 634.931824,1908.358765 
	C632.286560,1916.968750 631.239807,1917.737427 622.330933,1917.752930 
	C600.676819,1917.790527 579.022400,1917.795776 557.368469,1917.728638 
	C554.208679,1917.718872 551.050293,1917.242188 546.943481,1916.903442 
	C547.777100,1913.134521 548.049194,1910.550659 548.917358,1908.185669 
	C558.663635,1881.635620 568.527893,1855.128784 578.308899,1828.591553 
	C593.959412,1786.129883 609.622253,1743.672485 625.182922,1701.177856 
	C638.223755,1665.564697 651.120850,1629.898804 664.093201,1594.260498 
	C667.116943,1585.953613 668.354187,1584.994507 677.118042,1584.965942 
	C696.106934,1584.903687 715.096680,1584.867188 734.084961,1584.994385 
	C742.465088,1585.050537 743.461609,1585.919189 746.394470,1593.819580 
	C761.898376,1635.582764 777.472046,1677.320435 792.845398,1719.131714 
	C807.306091,1758.460938 821.467224,1797.900269 835.916382,1837.233765 
	C844.396423,1860.318359 853.215454,1883.278198 861.787109,1906.329468 
	C862.893372,1909.304321 863.429382,1912.491455 864.424744,1916.333984 
	C861.178650,1916.950439 859.026733,1917.707031 856.872131,1917.714722 
	C833.885681,1917.796997 810.898621,1917.813965 787.912170,1917.727539 
	C779.917114,1917.697510 778.944763,1916.896606 776.553833,1909.380859 
	C771.813599,1894.480103 767.125366,1879.562866 762.470642,1864.635132 
	C759.691345,1855.721802 759.738342,1855.668457 749.980042,1855.633301 
	C738.320190,1855.591187 726.659973,1855.623901 714.000000,1855.624023 
M699.232361,1698.177979 
	C690.866638,1729.775879 678.547363,1760.262939 671.237427,1793.261230 
	C694.747498,1793.261230 716.782654,1793.261230 740.447998,1793.261230 
	C735.384155,1774.078613 729.374512,1756.313232 724.006409,1738.386475 
	C718.556335,1720.185913 712.622009,1702.130249 706.899780,1684.011108 
	C706.066589,1684.018433 705.233398,1684.025635 704.400208,1684.032959 
	C702.822205,1688.240845 701.244141,1692.448730 699.232361,1698.177979 
z"/>
<path fill="#06CEB6" opacity="1.000000" stroke="none" 
	d="
M20.051159,1814.000000 
	C20.049850,1741.348267 20.048546,1669.696655 20.046816,1598.044922 
	C20.046791,1597.045166 20.026896,1596.045044 20.040773,1595.045532 
	C20.175423,1585.348633 20.417498,1584.980591 30.312536,1584.974487 
	C97.631775,1584.932739 164.951065,1584.928589 232.270309,1584.974121 
	C242.232620,1584.980835 243.129059,1585.947754 243.179825,1595.854248 
	C243.251556,1609.850952 243.260895,1623.848755 243.167908,1637.845215 
	C243.105164,1647.291138 242.569016,1647.838989 232.743683,1647.853516 
	C193.418640,1647.911377 154.093475,1647.875244 114.768364,1647.888550 
	C101.083054,1647.893188 101.067917,1647.912354 101.051094,1661.842651 
	C101.032578,1677.172729 100.942490,1692.503784 101.073860,1707.832764 
	C101.206390,1723.296997 98.031456,1723.792480 116.461121,1723.737061 
	C150.120453,1723.635864 183.780319,1723.695068 217.439926,1723.730469 
	C221.020874,1723.734253 224.601532,1724.025146 228.756042,1724.208252 
	C229.123016,1727.515137 229.636215,1730.065674 229.651138,1732.619141 
	C229.732864,1746.615723 229.732635,1760.613159 229.680588,1774.610107 
	C229.642288,1784.909180 229.143890,1785.461426 219.052155,1785.475708 
	C185.392593,1785.523560 151.732910,1785.494263 118.073280,1785.494629 
	C115.740433,1785.494751 113.407028,1785.461914 111.074844,1785.501343 
	C101.505226,1785.663452 101.082191,1785.993530 101.067459,1795.859009 
	C101.014694,1831.184937 101.044189,1866.510864 101.043236,1901.836792 
	C101.043182,1903.836426 101.098358,1905.837280 101.043739,1907.835327 
	C100.798073,1916.822021 100.034576,1917.720459 91.398666,1917.748779 
	C70.403313,1917.817749 49.407475,1917.782837 28.412027,1917.721313 
	C26.155195,1917.714600 23.899687,1917.256836 20.874125,1916.923584 
	C19.141315,1905.441895 20.308487,1894.173462 20.098091,1882.984863 
	C19.885088,1871.657959 20.051107,1860.323730 20.051109,1848.992798 
	C20.051111,1837.661865 20.051123,1826.330933 20.051159,1814.000000 
z"/>
<path fill="#20D3BD" opacity="1.000000" stroke="none" 
	d="
M1628.672852,1833.140137 
	C1645.665283,1860.585327 1662.310425,1887.391113 1678.888672,1914.089111 
	C1672.012451,1920.991089 1666.120483,1920.497681 1660.988647,1912.592041 
	C1654.648926,1902.825928 1648.621582,1892.856689 1642.468140,1882.969727 
	C1622.069092,1850.194214 1601.601318,1817.460938 1581.351196,1784.593506 
	C1578.084229,1779.291138 1574.420166,1776.508423 1567.789185,1776.569214 
	C1535.810791,1776.862793 1503.828369,1776.689331 1471.847290,1776.733521 
	C1469.567749,1776.736694 1467.288696,1777.157349 1463.825195,1777.501465 
	C1463.566650,1781.515015 1463.109497,1785.356812 1463.104004,1789.199219 
	C1463.049316,1827.509766 1463.069092,1865.820435 1463.067871,1904.130981 
	C1463.067749,1906.462891 1463.226318,1908.807739 1463.037231,1911.124146 
	C1462.604126,1916.428711 1460.348877,1918.718140 1455.805908,1918.750854 
	C1451.107666,1918.784912 1448.904175,1916.606567 1448.529663,1911.369995 
	C1448.387329,1909.381470 1448.508057,1907.374023 1448.508057,1905.375244 
	C1448.508179,1803.102661 1448.508301,1700.829956 1448.508179,1598.557373 
	C1448.508179,1597.557983 1448.493530,1596.558472 1448.504517,1595.559204 
	C1448.618408,1585.271362 1449.071411,1584.712524 1459.156372,1584.683105 
	C1481.143188,1584.619019 1503.134155,1584.406860 1525.115967,1584.742554 
	C1543.067749,1585.016724 1561.113525,1585.010742 1578.929443,1586.901733 
	C1604.185059,1589.582275 1626.352051,1599.832642 1643.472778,1619.208618 
	C1656.460571,1633.907471 1663.310547,1651.371338 1664.848999,1670.857666 
	C1667.689453,1706.833130 1655.373291,1736.461304 1626.038086,1757.746216 
	C1616.549438,1764.631104 1604.927002,1768.574951 1593.259644,1774.371216 
	C1596.140503,1784.408081 1603.830322,1793.201050 1609.758545,1802.909668 
	C1615.826782,1812.847168 1622.127075,1822.642822 1628.672852,1833.140137 
M1600.051025,1606.616089 
	C1591.404785,1604.371216 1582.803345,1600.410034 1574.104614,1600.183594 
	C1539.490112,1599.282837 1504.844971,1599.586792 1470.212036,1599.335449 
	C1465.123169,1599.298584 1462.787354,1601.422607 1463.067871,1606.482178 
	C1463.123047,1607.477661 1463.050781,1608.479858 1463.050659,1609.478882 
	C1463.048584,1657.104858 1463.022949,1704.730713 1463.068237,1752.356689 
	C1463.077271,1761.785400 1463.546509,1762.509399 1471.119995,1762.513672 
	C1506.088867,1762.533447 1541.063599,1762.691650 1576.022461,1762.051636 
	C1584.147705,1761.902954 1592.654663,1759.915161 1600.236938,1756.893677 
	C1626.798950,1746.308838 1644.037231,1727.426392 1649.167969,1698.574585 
	C1655.970947,1660.319336 1642.217407,1622.545776 1600.051025,1606.616089 
z"/>
<path fill="#20D3BD" opacity="1.000000" stroke="none" 
	d="
M911.522583,1651.090332 
	C907.209717,1682.248535 920.151062,1703.184570 946.194824,1717.722046 
	C963.862915,1727.584351 983.018799,1733.239136 1002.102173,1738.981689 
	C1024.086548,1745.597046 1046.461182,1750.864502 1067.305664,1760.890869 
	C1081.548828,1767.742310 1094.503906,1776.122192 1104.878540,1788.325562 
	C1119.792969,1805.868652 1123.296021,1826.408936 1120.591797,1848.295166 
	C1115.974731,1885.664062 1090.785400,1905.168579 1057.868164,1915.656738 
	C1032.985229,1923.585083 1007.163818,1925.291504 980.846802,1920.831421 
	C960.481995,1917.380127 941.250488,1912.042847 924.073181,1900.403076 
	C902.429504,1885.736572 889.826782,1865.479858 886.701904,1839.434204 
	C886.384460,1836.788940 885.903564,1834.160522 885.661865,1831.509521 
	C885.127197,1825.644409 886.570862,1823.595337 891.400940,1823.107178 
	C896.992249,1822.541992 899.246338,1824.251099 899.450073,1830.302124 
	C899.912598,1844.045654 904.629150,1856.258911 911.938965,1867.679688 
	C919.714905,1879.828735 930.420410,1888.835083 943.331848,1894.685425 
	C983.557678,1912.911865 1024.398193,1914.468262 1065.342285,1897.099365 
	C1081.459229,1890.262329 1093.974243,1878.998901 1102.074951,1863.255981 
	C1110.479248,1846.923340 1110.375000,1814.560791 1092.277588,1795.930786 
	C1078.903198,1782.162598 1062.591675,1773.444458 1044.790283,1767.507446 
	C1019.556458,1759.091431 993.865479,1752.026855 968.729492,1743.343872 
	C952.424744,1737.711426 936.475891,1730.970337 922.813843,1719.684082 
	C906.201538,1705.960938 897.101074,1689.116455 896.110046,1667.274902 
	C894.557678,1633.064697 911.016785,1609.812744 940.002136,1595.110718 
	C975.484192,1577.113159 1013.051208,1575.034912 1050.680908,1587.287964 
	C1082.235474,1597.562866 1104.677734,1618.377441 1114.280029,1651.004761 
	C1116.412598,1658.250854 1116.632324,1666.083130 1117.483398,1673.673340 
	C1117.924194,1677.603882 1115.893799,1680.121460 1111.854004,1680.404419 
	C1107.742676,1680.692505 1104.475830,1679.346069 1104.164307,1674.600586 
	C1103.457397,1663.830444 1100.621094,1653.672485 1096.055176,1643.910400 
	C1086.817139,1624.158325 1071.317505,1610.809692 1051.601807,1602.913208 
	C1026.096680,1592.697998 999.619751,1593.211792 972.919861,1598.337158 
	C954.230408,1601.924927 938.737915,1610.778931 925.456726,1624.087402 
	C918.151062,1631.408203 913.794006,1640.203613 911.522583,1651.090332 
z"/>
<path fill="#28D5BF" opacity="1.000000" stroke="none" 
	d="
M2613.999023,1918.909424 
	C2564.352539,1918.909058 2515.705566,1918.909668 2467.058594,1918.910278 
	C2465.059326,1918.910278 2463.058350,1918.964355 2461.061035,1918.898560 
	C2453.002197,1918.633301 2451.398682,1916.810059 2451.698486,1908.519531 
	C2451.890625,1903.197876 2452.116699,1897.872925 2452.117920,1892.549438 
	C2452.141846,1794.255859 2452.126953,1695.962158 2452.157471,1597.668579 
	C2452.158691,1593.777710 2452.528320,1589.886719 2452.760986,1585.314209 
	C2520.424072,1585.314209 2587.190674,1585.314209 2654.831055,1585.314209 
	C2654.831055,1589.745850 2654.831055,1593.841064 2654.831055,1598.959839 
	C2650.990967,1599.143921 2647.449707,1599.459229 2643.908447,1599.461304 
	C2590.263428,1599.494141 2536.618408,1599.485962 2482.973389,1599.487183 
	C2481.307373,1599.487183 2479.641357,1599.475952 2477.975342,1599.487427 
	C2466.918213,1599.563843 2466.841309,1599.565430 2466.831299,1610.618042 
	C2466.796143,1649.602295 2466.802734,1688.586548 2466.828369,1727.570801 
	C2466.836182,1739.283569 2466.888428,1739.339233 2478.284668,1739.345093 
	C2524.599365,1739.369019 2570.913818,1739.347900 2617.228516,1739.372437 
	C2620.552246,1739.374268 2623.908447,1739.363037 2627.191406,1739.797119 
	C2631.698730,1740.393066 2633.073486,1743.507202 2632.841064,1747.733398 
	C2632.605957,1752.008667 2630.047363,1753.453247 2626.231445,1753.521606 
	C2623.566650,1753.569458 2620.900879,1753.581665 2618.235596,1753.581909 
	C2572.920654,1753.585205 2527.605469,1753.583618 2482.290527,1753.585815 
	C2479.625000,1753.585938 2476.959717,1753.629028 2474.294189,1753.614990 
	C2469.451904,1753.589478 2466.786621,1755.780762 2466.845947,1760.818359 
	C2466.861816,1762.150757 2466.816895,1763.483643 2466.816895,1764.816284 
	C2466.818604,1807.798950 2466.811035,1850.781494 2466.852051,1893.764160 
	C2466.854492,1896.350952 2467.244385,1898.937622 2467.534180,1902.517822 
	C2471.755615,1902.802124 2475.611572,1903.284424 2479.468018,1903.288086 
	C2533.779297,1903.338379 2588.090820,1903.323486 2642.402100,1903.324463 
	C2646.307129,1903.324463 2650.212158,1903.324341 2654.382812,1903.324341 
	C2654.964355,1906.804077 2655.657715,1909.034546 2655.648193,1911.262207 
	C2655.622070,1917.460693 2654.402588,1918.762939 2647.984863,1918.860718 
	C2636.991943,1919.028198 2625.994385,1918.908936 2613.999023,1918.909424 
z"/>
<path fill="#2CD6C0" opacity="1.000000" stroke="none" 
	d="
M1382.562988,1903.319092 
	C1390.049805,1905.325562 1388.153076,1910.654785 1387.479370,1914.923340 
	C1386.676636,1920.009033 1382.121460,1918.931396 1378.596069,1918.933472 
	C1324.954712,1918.966309 1271.313232,1918.958618 1217.671875,1918.959351 
	C1209.342529,1918.959473 1201.009888,1919.096558 1192.684692,1918.910278 
	C1185.635620,1918.752686 1184.737427,1917.714722 1184.362549,1910.723633 
	C1184.273438,1909.062622 1184.353149,1907.392578 1184.353149,1905.726685 
	C1184.353516,1803.108398 1184.354126,1700.490112 1184.354248,1597.871826 
	C1184.354248,1597.538696 1184.351807,1597.205444 1184.353027,1596.872314 
	C1184.394775,1584.777710 1184.572876,1584.551025 1196.603027,1584.547729 
	C1256.907959,1584.531128 1317.212891,1584.535278 1377.517822,1584.561279 
	C1380.441650,1584.562622 1383.365356,1584.841797 1387.107300,1585.033447 
	C1387.107300,1589.708252 1387.107300,1593.823364 1387.107300,1599.094360 
	C1383.344482,1599.243042 1379.821533,1599.501465 1376.298584,1599.503296 
	C1322.990356,1599.530273 1269.682129,1599.523682 1216.373901,1599.525024 
	C1214.708008,1599.525146 1213.042236,1599.517700 1211.376343,1599.527222 
	C1199.349487,1599.595581 1199.078491,1599.806396 1199.069702,1611.840210 
	C1199.041260,1650.821899 1199.036743,1689.803467 1199.080444,1728.785156 
	C1199.092163,1739.196533 1199.186157,1739.284180 1209.769897,1739.292114 
	C1256.747803,1739.327515 1303.725586,1739.307007 1350.703491,1739.312256 
	C1353.368408,1739.312622 1356.041138,1739.243164 1358.696655,1739.415039 
	C1363.253784,1739.709717 1364.935913,1742.568604 1365.028320,1746.806396 
	C1365.127930,1751.376953 1362.924316,1753.584961 1358.393677,1753.581177 
	C1355.728516,1753.578979 1353.063232,1753.619019 1350.398071,1753.619141 
	C1305.086060,1753.621948 1259.774170,1753.620972 1214.462158,1753.623169 
	C1211.796875,1753.623291 1209.131104,1753.684448 1206.466431,1753.647949 
	C1201.553467,1753.580811 1199.013062,1755.876465 1199.086792,1760.881226 
	C1199.106445,1762.213257 1199.060669,1763.546265 1199.060669,1764.878784 
	C1199.061401,1807.525391 1199.052124,1850.171875 1199.090942,1892.818481 
	C1199.093628,1895.731812 1199.456421,1898.644897 1199.745728,1902.959839 
	C1220.399658,1903.638916 1240.592651,1903.170410 1260.765503,1903.257568 
	C1280.755737,1903.343994 1300.746460,1903.276367 1320.737061,1903.276733 
	C1341.060791,1903.276978 1361.384399,1903.277710 1382.562988,1903.319092 
z"/>
<path fill="#21D3BD" opacity="1.000000" stroke="none" 
	d="
M2321.527588,1909.341064 
	C2285.967529,1925.666626 2249.983643,1928.421997 2214.145264,1914.687500 
	C2183.330322,1902.878296 2163.337891,1879.067627 2150.724121,1848.940186 
	C2142.920410,1830.301392 2138.783447,1810.764893 2138.588135,1790.634888 
	C2138.307373,1761.662231 2137.609619,1732.609619 2139.323486,1703.723633 
	C2141.324951,1669.985840 2152.747803,1639.141479 2176.541504,1614.265259 
	C2195.623779,1594.314941 2219.348145,1582.735596 2247.055908,1580.753418 
	C2266.046875,1579.394897 2284.907715,1580.430298 2303.319580,1586.562012 
	C2338.109863,1598.148193 2361.093262,1621.062500 2371.428467,1656.280396 
	C2374.205322,1665.742676 2375.972656,1675.501099 2378.306396,1685.567871 
	C2375.159424,1686.526367 2373.370850,1687.492310 2371.553467,1687.550171 
	C2364.502930,1687.774414 2363.693359,1687.064819 2362.469971,1680.096191 
	C2360.037842,1666.245605 2356.201904,1652.943726 2349.266357,1640.530518 
	C2336.827148,1618.267090 2318.227295,1604.625366 2293.491699,1598.902222 
	C2273.416260,1594.257446 2253.350098,1593.482422 2233.098145,1597.695312 
	C2212.249268,1602.032227 2196.059814,1613.663452 2182.467041,1629.459473 
	C2167.724121,1646.591919 2160.447510,1667.082397 2155.285156,1688.705566 
	C2151.443115,1704.798950 2151.492188,1721.038940 2151.504883,1737.344238 
	C2151.518066,1754.334473 2150.847168,1771.370239 2151.849854,1788.304810 
	C2153.630615,1818.368286 2161.333252,1846.659912 2180.247803,1871.001343 
	C2198.042480,1893.901611 2221.729004,1906.137695 2250.250977,1908.424683 
	C2273.139893,1910.260254 2295.366699,1906.790283 2316.176514,1896.169922 
	C2327.704834,1890.286377 2337.110352,1882.173462 2344.486328,1871.617065 
	C2354.829834,1856.814453 2360.007812,1840.141235 2362.645264,1822.456665 
	C2363.028564,1819.886597 2364.642334,1816.367798 2366.690918,1815.387939 
	C2373.177246,1812.286011 2377.956787,1816.107788 2376.830078,1823.323608 
	C2373.185791,1846.664307 2366.065674,1868.572144 2350.293701,1886.935791 
	C2342.345215,1896.190552 2332.735107,1903.148438 2321.527588,1909.341064 
z"/>
<path fill="#21D3BD" opacity="1.000000" stroke="none" 
	d="
M1908.016602,1731.458984 
	C1919.260010,1701.445679 1930.273193,1672.184814 1941.185303,1642.886353 
	C1947.221191,1626.679810 1953.071411,1610.404419 1959.037598,1594.171997 
	C1962.598267,1584.484253 1964.947998,1583.376831 1976.209351,1586.393555 
	C1975.927979,1588.494263 1976.032837,1590.830811 1975.281372,1592.848145 
	C1965.647827,1618.710815 1955.885010,1644.525391 1946.168701,1670.357178 
	C1932.001221,1708.023193 1917.776001,1745.667480 1903.702148,1783.368286 
	C1889.045044,1822.631470 1874.545532,1861.953491 1859.953491,1901.240845 
	C1858.796875,1904.354736 1857.472534,1907.406860 1856.201782,1910.477661 
	C1852.985596,1918.250366 1851.519775,1919.055420 1843.692871,1918.879028 
	C1839.129272,1918.776367 1836.241089,1917.162598 1834.672607,1912.673462 
	C1831.270508,1902.935669 1827.562012,1893.304565 1823.967651,1883.634155 
	C1813.536133,1855.570312 1803.099365,1827.508301 1792.663818,1799.445923 
	C1780.837646,1767.643677 1768.999390,1735.845825 1757.187134,1704.038574 
	C1745.721680,1673.165283 1734.314453,1642.270386 1722.804199,1611.413818 
	C1720.599487,1605.503418 1717.889771,1599.780640 1715.709595,1593.862183 
	C1714.843140,1591.509888 1714.782715,1588.860718 1714.368652,1586.425415 
	C1726.159058,1583.277954 1727.981934,1584.325439 1731.560547,1594.038208 
	C1741.446655,1620.870483 1751.584351,1647.610107 1761.497559,1674.432495 
	C1775.563232,1712.489746 1789.450317,1750.612915 1803.541626,1788.660522 
	C1813.356323,1815.160767 1823.403198,1841.575073 1833.307251,1868.042480 
	C1835.980957,1875.187866 1838.430664,1882.417969 1841.157104,1889.542847 
	C1842.047729,1891.870117 1843.489380,1893.986694 1845.780029,1898.246704 
	C1866.924316,1841.584351 1887.334106,1786.889893 1908.016602,1731.458984 
z"/>
<path fill="#21D3BD" opacity="1.000000" stroke="none" 
	d="
M2051.701172,1672.000000 
	C2051.701904,1750.571777 2051.703613,1828.143555 2051.702148,1905.715332 
	C2051.702148,1908.045288 2051.708496,1910.376343 2051.644287,1912.704956 
	C2051.513672,1917.429688 2048.754395,1918.940796 2044.396606,1918.818604 
	C2039.958862,1918.693970 2038.788818,1915.983276 2038.701416,1912.241211 
	C2038.654785,1910.244751 2038.668579,1908.246704 2038.668579,1906.249390 
	C2038.668213,1803.375244 2038.669189,1700.500977 2038.669800,1597.626831 
	C2038.669800,1596.628052 2038.649048,1595.629150 2038.666260,1594.630615 
	C2038.836792,1584.735474 2039.506104,1584.195435 2051.294189,1585.787598 
	C2051.427490,1595.035522 2051.616699,1604.552124 2051.686523,1614.069580 
	C2051.754639,1623.390991 2051.701416,1632.713379 2051.701416,1642.035278 
	C2051.701416,1651.690186 2051.701416,1661.345093 2051.701172,1672.000000 
z"/>
<path fill="#F9FEFD" opacity="1.000000" stroke="none" 
	d="
M360.631165,1647.905518 
	C369.892731,1647.864014 378.221924,1647.695190 386.539429,1647.933716 
	C415.489471,1648.763794 438.482239,1665.695312 446.536438,1693.460938 
	C450.214111,1706.139282 452.761475,1719.396240 453.757660,1732.547241 
	C455.621033,1757.146851 454.814636,1781.694702 448.011566,1805.800293 
	C439.002228,1837.723511 416.250793,1855.453613 382.988922,1855.573608 
	C374.418610,1855.604492 365.848083,1855.578247 356.718384,1855.578247 
	C356.310883,1851.875244 355.790588,1849.342285 355.788696,1846.809082 
	C355.741547,1783.879761 355.719788,1720.950439 355.822876,1658.021240 
	C355.828857,1654.383911 354.118744,1649.645630 360.631165,1647.905518 
z"/>
<path fill="#EFFCFA" opacity="1.000000" stroke="none" 
	d="
M699.449219,1697.417236 
	C701.244141,1692.448730 702.822205,1688.240845 704.400208,1684.032959 
	C705.233398,1684.025635 706.066589,1684.018433 706.899780,1684.011108 
	C712.622009,1702.130249 718.556335,1720.185913 724.006409,1738.386475 
	C729.374512,1756.313232 735.384155,1774.078613 740.447998,1793.261230 
	C716.782654,1793.261230 694.747498,1793.261230 671.237427,1793.261230 
	C678.547363,1760.262939 690.866638,1729.775879 699.449219,1697.417236 
z"/>
<path fill="#F9FEFD" opacity="1.000000" stroke="none" 
	d="
M1600.764526,1606.924316 
	C1642.217407,1622.545776 1655.970947,1660.319336 1649.167969,1698.574585 
	C1644.037231,1727.426392 1626.798950,1746.308838 1600.236938,1756.893677 
	C1592.654663,1759.915161 1584.147705,1761.902954 1576.022461,1762.051636 
	C1541.063599,1762.691650 1506.088867,1762.533447 1471.119995,1762.513672 
	C1463.546509,1762.509399 1463.077271,1761.785400 1463.068237,1752.356689 
	C1463.022949,1704.730713 1463.048584,1657.104858 1463.050659,1609.478882 
	C1463.050781,1608.479858 1463.123047,1607.477661 1463.067871,1606.482178 
	C1462.787354,1601.422607 1465.123169,1599.298584 1470.212036,1599.335449 
	C1504.844971,1599.586792 1539.490112,1599.282837 1574.104614,1600.183594 
	C1582.803345,1600.410034 1591.404785,1604.371216 1600.764526,1606.924316 
z"/>
</svg>