<svg version="1.1" id="Layer_1" xmlns="http://www.w3.org/2000/svg" xmlns:xlink="http://www.w3.org/1999/xlink" x="0px" y="0px"
	 width="100%" viewBox="0 0 770 289" enable-background="new 0 0 770 289" xml:space="preserve">
<path fill="#FDFDFD" opacity="1.000000" stroke="none" 
	d="
M600.000000,290.000000 
	C400.047058,290.000000 200.594131,290.000000 1.070598,290.000000 
	C1.070598,193.736496 1.070598,97.472939 1.070598,1.104687 
	C257.666656,1.104687 514.333313,1.104687 770.979675,1.104687 
	C770.979675,97.405907 770.979675,193.702957 770.979675,290.000000 
	C714.139587,290.000000 657.319763,290.000000 600.000000,290.000000 
M525.257751,225.910355 
	C525.016052,226.235779 524.774292,226.561218 524.173462,226.993027 
	C523.977417,227.289703 523.781433,227.586365 522.935852,228.200958 
	C520.281189,230.794296 517.626587,233.387619 514.328552,236.180817 
	C511.178833,239.331757 508.029083,242.482697 504.264832,245.949844 
	C500.864410,249.307144 497.463959,252.664444 493.337189,256.433350 
	C489.891541,256.662994 486.445923,256.892639 482.073822,256.975586 
	C476.048187,257.026154 470.022522,257.076721 463.072174,256.976410 
	C455.964722,257.023346 448.857239,257.070282 441.000275,256.961731 
	C434.998474,257.018036 428.996643,257.074341 422.069275,256.978333 
	C415.044189,257.027344 408.019104,257.076324 400.068359,256.973511 
	C388.710480,257.027771 377.352570,257.082062 365.069275,256.981201 
	C356.045105,257.035248 347.020966,257.089294 337.071899,256.987244 
	C330.713623,257.040497 324.355347,257.093719 317.072052,256.988037 
	C295.752686,256.991394 274.432465,257.082214 253.115173,256.873077 
	C250.790359,256.850281 247.962280,255.657333 246.248642,254.061234 
	C231.780075,240.584976 217.533432,226.870789 203.186951,213.263062 
	C186.564987,197.497009 169.924088,181.750839 153.264053,166.025040 
	C137.829834,151.456329 122.359535,136.925827 106.821693,121.755028 
	C108.881256,121.470955 110.940819,121.186874 113.925064,121.066902 
	C130.283081,121.002472 146.641083,120.938042 163.744720,121.040215 
	C164.502655,120.985901 165.260590,120.931580 166.597946,120.957001 
	C166.729721,120.638412 166.861496,120.319824 167.211105,119.087288 
	C167.171280,113.396828 167.131454,107.706375 167.129852,101.371353 
	C166.753998,101.251480 166.378159,101.131607 165.078888,100.849556 
	C159.719223,100.921204 154.359573,100.992851 148.077393,100.891014 
	C142.051651,100.944351 136.025894,100.997681 129.077164,100.875336 
	C117.384735,100.927956 105.692314,100.980583 93.077705,100.852577 
	C82.830132,100.852577 72.582550,100.852577 61.287575,100.852577 
	C62.295418,104.203712 62.297665,107.118240 63.755962,108.559563 
	C70.255302,114.983177 77.170845,120.985687 84.136314,127.710297 
	C85.032654,128.493500 85.929001,129.276703 87.103806,130.684433 
	C93.403908,136.810959 99.619759,143.027039 106.019058,149.048141 
	C130.466110,172.050385 155.039886,194.918243 179.434875,217.975403 
	C199.014832,236.481537 218.385468,255.209076 237.925934,273.757294 
	C239.125732,274.896179 240.999146,275.980194 242.562134,275.984436 
	C270.373322,276.059631 298.184967,275.963501 326.921814,276.068085 
	C335.613403,276.012939 344.304962,275.957794 353.920898,276.068939 
	C360.279419,276.020966 366.637970,275.972961 373.921753,276.088776 
	C383.945923,276.028503 393.970123,275.968231 404.919678,276.073853 
	C413.944244,276.009491 422.968811,275.945129 432.919220,276.042877 
	C439.610535,275.993164 446.301849,275.943451 453.917908,276.053802 
	C459.609009,276.002777 465.300079,275.951721 471.915344,276.064880 
	C477.273743,276.008087 482.632141,275.951294 488.912872,276.053436 
	C492.808319,276.065338 496.724030,276.303986 500.587524,275.958557 
	C501.835175,275.847015 502.945618,274.200806 504.825531,273.170776 
	C508.013947,270.171173 511.202332,267.171539 514.984802,263.917816 
	C518.304749,260.539764 521.624634,257.161713 525.578857,253.611221 
	C528.416443,250.741577 531.253967,247.871933 534.687927,244.729172 
	C536.567261,242.642166 538.446533,240.555145 540.312012,238.429596 
	C540.312012,238.429596 540.291016,238.394409 540.861206,238.267822 
	C541.255493,237.850143 541.649780,237.432465 542.653259,236.771835 
	C544.446106,234.864487 546.238892,232.957153 548.640259,230.771378 
	C551.873718,227.549622 555.107117,224.327850 558.921936,220.819916 
	C562.021484,217.665161 565.121033,214.510391 568.925537,210.919266 
	C572.802307,210.431656 576.885132,210.557083 580.515503,209.336624 
	C589.832275,206.204498 594.593994,196.292404 591.928467,186.736664 
	C589.385315,177.619720 580.176514,171.587524 571.355103,173.260178 
	C560.607056,175.298141 554.493408,183.293106 555.457275,193.835083 
	C555.579529,195.172302 554.913879,196.581543 554.090820,198.277679 
	C552.085449,200.193390 550.080017,202.109116 547.483826,204.336456 
	C545.013977,206.900787 542.544189,209.465118 539.519592,212.283722 
	C538.664307,213.133072 537.809082,213.982407 536.436829,215.041580 
	C536.236816,215.346970 536.036804,215.652344 535.401245,216.102097 
	C535.130066,216.291367 534.985718,216.551132 534.477966,217.094009 
	C534.294312,217.390137 534.110596,217.686264 533.397217,218.201675 
	C532.927063,218.790817 532.456970,219.379959 531.410400,220.157822 
	C530.937195,220.535126 530.463989,220.912445 529.483826,221.416946 
	C529.188782,221.830948 528.893738,222.244965 528.701050,222.828094 
	C528.701050,222.828094 528.671875,222.632553 528.157959,222.804199 
	C527.987549,223.112534 527.817078,223.420868 527.767273,223.778778 
	C527.767273,223.778778 527.719360,223.657486 527.200500,223.838272 
	C527.023438,224.147766 526.846375,224.457275 526.800659,224.806946 
	C526.800659,224.806946 526.756531,224.676865 526.228333,224.860535 
	C526.051453,225.177399 525.874573,225.494263 525.836365,225.874725 
	C525.836365,225.874725 525.843201,225.722321 525.257751,225.910355 
M715.129395,59.098354 
	C715.129395,59.098354 715.117310,59.228470 715.745117,59.083778 
	C716.014160,58.754921 716.283203,58.426067 716.866821,58.020649 
	C716.866821,58.020649 717.023010,57.736992 717.496033,57.529915 
	C717.929382,57.004097 718.362671,56.478275 719.355225,55.689106 
	C719.893494,55.081673 720.431763,54.474243 721.485779,53.652706 
	C721.959290,53.090832 722.432800,52.528954 722.979675,51.980946 
	C722.979675,51.980946 722.966248,51.907509 723.487854,51.656620 
	C723.762878,51.170158 724.037903,50.683697 724.189636,50.148335 
	C724.189636,50.148335 724.211609,50.279129 724.762268,50.145042 
	C724.931641,49.822430 725.101013,49.499817 725.149414,49.147842 
	C725.149414,49.147842 725.183838,49.267456 725.736145,49.130764 
	C725.912231,48.811134 726.088318,48.491505 726.142273,48.148037 
	C726.142273,48.148037 726.180420,48.266491 726.733643,48.129978 
	C726.910156,47.809921 727.086670,47.489864 727.141663,47.144424 
	C727.141663,47.144424 727.177734,47.263233 727.729187,47.121967 
	C727.903809,46.799576 728.078430,46.477180 728.131409,46.128456 
	C728.131409,46.128456 728.160889,46.249390 728.707764,46.097733 
	C728.882263,45.774857 729.056824,45.451981 729.110779,45.084049 
	C729.110779,45.084049 729.104797,45.212646 729.692993,45.054581 
	C729.942322,44.738754 730.191589,44.422932 731.004822,43.808247 
	C737.736572,36.997627 744.468384,30.187010 751.785034,23.035015 
	C752.541260,22.750385 753.297485,22.465754 754.661865,21.952204 
	C752.792358,21.058186 752.514404,20.808750 752.236694,20.809006 
	C722.814087,20.836111 693.391541,20.881964 663.055420,20.764097 
	C661.065063,20.758846 659.037903,20.510731 657.093201,20.806164 
	C654.285645,21.232679 650.824829,21.219593 648.900940,22.865122 
	C643.509338,27.476658 638.762817,32.842388 633.176453,38.194611 
	C628.102478,43.418804 623.028442,48.642994 617.340454,54.149521 
	C612.933899,58.618725 608.527283,63.087929 603.603027,67.873230 
	C600.040527,71.481262 596.478027,75.089287 592.386230,78.946625 
	C592.191223,79.273468 591.996277,79.600319 591.911438,79.899246 
	C591.911438,79.899246 591.850220,79.803589 591.240295,80.078545 
	C588.811768,82.676033 586.383301,85.273521 583.352478,88.156830 
	C581.206482,90.343628 579.060425,92.530426 576.379333,94.965805 
	C576.159729,95.284805 575.940063,95.603806 575.173828,96.153091 
	C574.429565,97.052986 573.685242,97.952881 572.345093,99.168396 
	C567.459045,104.180084 562.573059,109.191780 557.060608,114.531326 
	C552.030334,119.660469 547.000061,124.789604 541.369385,130.233551 
	C540.492676,130.856552 539.615967,131.479538 538.807434,131.154984 
	C538.787476,114.435097 538.767517,97.715218 538.912781,80.092255 
	C538.873657,76.726151 538.834534,73.360054 538.908508,69.443405 
	C538.607056,69.302292 538.305542,69.161171 537.080627,68.845039 
	C530.824280,68.845039 524.567932,68.845039 518.116211,68.845039 
	C518.116211,89.215485 518.116211,109.110352 517.969910,129.931747 
	C518.018921,137.619858 518.067932,145.307953 517.947632,153.920425 
	C517.997437,161.613632 518.047241,169.306854 517.932007,177.794342 
	C518.029724,178.909531 518.127502,180.024734 518.311035,182.117645 
	C519.774597,180.182281 520.548157,179.159363 521.907532,177.888000 
	C523.063965,176.634720 524.220337,175.381424 525.983704,173.885925 
	C531.442017,168.309113 536.900391,162.732300 542.965698,156.931702 
	C547.431580,152.330948 551.897522,147.730209 556.949463,142.854065 
	C559.742554,139.949280 562.535645,137.044495 565.920837,133.865829 
	C571.268127,128.532700 576.615479,123.199562 582.547180,117.565620 
	C586.521606,113.436836 590.496094,109.308044 595.033630,104.888680 
	C597.163696,102.637344 599.293762,100.386017 601.989990,97.831764 
	C605.639282,94.142212 609.288574,90.452660 613.566528,86.582642 
	C618.787170,81.153389 624.007812,75.724129 628.985596,70.063866 
	C628.985596,70.063866 629.225952,70.303734 629.776245,70.170326 
	C629.952087,69.852829 630.127930,69.535332 630.179016,69.189499 
	C630.179016,69.189499 630.228943,69.307289 630.778687,69.173080 
	C630.955078,68.856308 631.131409,68.539528 631.185120,68.190735 
	C631.185120,68.190735 631.233398,68.307983 631.782043,68.166267 
	C631.954651,67.844719 632.127258,67.523170 632.172913,67.164467 
	C632.172913,67.164467 632.208313,67.291817 632.756653,67.136871 
	C632.928711,66.811272 633.100708,66.485680 633.142883,66.096062 
	C633.142883,66.096062 633.122986,66.239502 633.726196,66.079391 
	C633.978516,65.752350 634.230835,65.425301 635.042786,64.800316 
	C638.166687,61.590984 641.290527,58.381649 645.001526,54.908707 
	C650.008667,49.843620 655.015747,44.778538 660.956299,39.714184 
	C675.878052,39.514057 690.799866,39.313934 706.139404,39.423866 
	C706.419617,39.626720 706.699768,39.829571 707.005310,40.010693 
	C707.005310,40.010693 706.972778,40.008514 706.761658,40.434864 
	C706.761658,40.434864 706.604187,40.883804 706.002014,41.105930 
	C700.948730,46.293278 695.895386,51.480625 690.242798,56.996719 
	C680.459167,66.881256 670.675598,76.765785 660.292542,86.988907 
	C640.666748,107.083260 621.040894,127.177612 601.120850,147.573212 
	C626.794067,172.814484 653.219482,198.795319 679.956848,225.301910 
	C688.944031,234.119461 697.931274,242.937027 706.016479,251.983124 
	C688.345947,252.110321 670.675476,252.237518 652.585815,252.302719 
	C652.501587,252.416687 652.321960,252.592957 652.348938,252.634262 
	C652.497803,252.862213 652.697083,253.057297 653.160767,253.856079 
	C659.636780,260.485535 666.040344,267.188782 672.652649,273.679352 
	C673.905579,274.909149 675.975647,275.935333 677.687256,275.964417 
	C687.117615,276.124542 696.553650,275.946045 706.916077,276.034210 
	C715.276367,276.000092 723.636597,275.966003 732.926086,276.070587 
	C741.799377,276.070587 750.672668,276.070587 760.772034,276.070587 
	C746.206909,261.987885 732.580017,248.812424 718.597168,235.019135 
	C713.054260,229.519623 707.576782,223.952209 701.956299,218.533218 
	C684.703003,201.898453 667.394958,185.320526 649.841919,168.129776 
	C648.583130,166.685623 647.324280,165.241470 645.809998,163.191833 
	C643.164062,160.898224 640.518066,158.604614 637.717896,156.283585 
	C637.717896,156.283585 637.689026,156.129639 637.733337,155.520309 
	C635.158447,153.012695 632.583557,150.505096 629.789734,147.375458 
	C630.451904,145.952621 630.788940,144.209717 631.826233,143.156082 
	C643.108765,131.695541 654.501038,120.342972 666.453979,108.638474 
	C676.398254,98.528969 686.342529,88.419472 696.244995,78.209755 
	C696.244995,78.209755 696.175659,78.293266 696.727539,78.185486 
	C697.096008,77.776474 697.464478,77.367462 698.285156,76.765678 
	C698.550049,76.368927 698.815002,75.972176 699.704529,75.215645 
	C699.989868,74.833832 700.275208,74.452019 701.127869,73.858597 
	C702.407959,72.531349 703.687988,71.204102 705.493652,69.668831 
	C705.977173,69.105103 706.460754,68.541367 706.998657,67.999207 
	C706.998657,67.999207 706.977051,67.944931 707.505554,67.689148 
	C707.774780,67.189766 708.044006,66.690392 708.163696,66.166763 
	C708.163696,66.166763 708.210022,66.310966 708.757385,66.208374 
	C709.109070,65.789009 709.460754,65.369644 710.314209,64.706413 
	C710.526001,64.407104 710.737793,64.107796 711.450439,63.556942 
	C711.724670,63.087315 711.998901,62.617691 712.139709,62.110565 
	C712.139709,62.110565 712.155029,62.248348 712.704346,62.103245 
	C712.884583,61.785210 713.064819,61.467178 713.122437,61.130024 
	C713.122437,61.130024 713.157043,61.249180 713.705994,61.104336 
	C713.885864,60.786453 714.065735,60.468571 714.124268,60.130531 
	C714.124268,60.130531 714.158447,60.248699 714.705750,60.103836 
	C714.886353,59.787292 715.066956,59.470749 715.129395,59.098354 
M39.273632,234.167358 
	C39.204838,232.447693 39.136040,230.728043 39.254257,228.164581 
	C39.192680,226.444412 39.131104,224.724228 39.261749,222.111465 
	C39.199093,219.075226 39.136436,216.038971 39.274204,212.112350 
	C39.225842,209.076782 39.177475,206.041214 39.354248,202.138458 
	C39.277630,199.760986 39.201015,197.383514 39.334831,194.116501 
	C39.263779,191.078888 39.192726,188.041260 39.360447,184.153015 
	C39.283592,182.104507 39.206738,180.056015 39.359718,177.129883 
	C39.283684,174.422485 39.207649,171.715088 39.377216,168.176773 
	C39.283352,166.460907 39.189491,164.745026 39.315128,162.360886 
	C39.249508,161.901627 39.183887,161.442383 39.397083,160.094620 
	C39.336239,156.066162 39.275398,152.037689 39.439659,147.159805 
	C39.349243,145.124832 39.258827,143.089844 39.386116,140.156433 
	C39.322781,137.078690 39.259441,134.000946 39.459064,130.050980 
	C39.373070,126.723000 39.287071,123.395027 39.425404,119.161430 
	C39.344036,115.751015 39.262669,112.340591 39.446167,108.146370 
	C39.355530,106.782814 39.264896,105.419250 39.386002,103.219574 
	C39.315311,101.791222 39.244617,100.362877 39.439293,98.037605 
	C39.439293,78.823761 39.439293,59.609913 39.439293,40.194473 
	C59.543083,40.194473 78.845612,40.216869 98.148079,40.189533 
	C132.098740,40.141453 166.049347,40.062962 200.922836,40.174015 
	C208.245560,40.175629 215.576996,40.394444 222.887833,40.100479 
	C227.555740,39.912788 228.936096,41.745480 228.886261,46.226070 
	C228.723419,60.869270 228.735138,75.519119 229.018814,90.159851 
	C229.109741,94.852837 227.625885,98.078041 223.116653,99.165230 
	C218.646820,100.242920 214.078705,102.156021 209.970535,97.457062 
	C203.735489,90.325394 192.694077,90.096115 185.833099,96.507217 
	C178.605057,103.261314 178.056412,115.042320 184.641113,122.102852 
	C191.152786,129.085083 202.873825,130.027573 209.097824,123.130119 
	C212.708649,119.128593 216.402206,118.087021 221.205063,118.468422 
	C222.858429,118.599731 224.535675,118.551239 226.195435,118.462242 
	C238.988342,117.776291 248.482819,110.448273 250.700851,99.423965 
	C250.654648,82.262634 250.608429,65.101303 250.711731,47.317989 
	C250.652939,46.899025 250.594147,46.480061 250.769409,45.328983 
	C250.566315,43.869114 250.363220,42.409248 250.109329,40.178371 
	C248.113876,29.286407 240.837860,23.377640 230.598953,22.060017 
	C220.849274,20.805349 210.875229,21.294024 200.076324,20.843695 
	C158.503006,20.842936 116.929665,20.818489 75.356369,20.851870 
	C55.906620,20.867485 36.456963,20.994814 16.285551,21.177422 
	C16.247829,22.119795 16.210108,23.062170 16.031744,24.931868 
	C16.029940,31.407743 16.016800,37.883636 16.028242,44.359489 
	C16.085739,76.900688 16.149654,109.441872 16.017815,142.904541 
	C16.084009,149.932266 16.150202,156.960007 16.039179,164.849564 
	C16.095028,166.895828 16.150877,168.942093 16.028234,171.706879 
	C16.083117,172.933395 16.138000,174.159927 16.038034,176.099075 
	C16.096262,178.777161 16.154488,181.455246 16.052298,185.030777 
	C16.106941,188.135422 16.161583,191.240067 16.063398,195.057098 
	C16.114691,197.371155 16.165981,199.685196 16.047434,202.827682 
	C16.106916,205.264679 16.166399,207.701691 16.075865,210.863510 
	C16.129436,214.326859 16.183008,217.790207 16.063549,221.973175 
	C16.113523,224.646942 16.163498,227.320709 16.046225,230.839615 
	C16.101767,232.559250 16.157307,234.278885 16.045631,236.861420 
	C16.102446,238.906921 16.159260,240.952408 16.051474,243.860703 
	C16.104179,245.907028 16.156885,247.953369 16.042709,250.844864 
	C16.096642,252.564774 16.150574,254.284668 16.045549,256.928955 
	C16.045549,264.030670 16.045549,271.132355 16.045549,278.375092 
	C27.438850,279.095703 38.567364,281.214996 45.596416,269.340729 
	C47.167027,266.687500 49.663277,264.574066 51.776783,262.251678 
	C65.409615,247.271378 79.108475,232.350525 92.639320,217.278763 
	C94.757408,214.919479 96.886139,214.218185 99.969933,214.263733 
	C111.093040,214.428085 119.328163,205.994675 119.062859,195.088211 
	C118.794678,184.063583 109.876427,176.158798 98.449013,176.816940 
	C87.804512,177.429993 80.475487,186.218048 81.029602,197.180038 
	C81.134109,199.247467 80.145927,201.899689 78.736877,203.430695 
	C66.907516,216.284073 54.862389,228.938873 42.343491,241.938034 
	C41.352043,242.905685 40.360600,243.873337 39.247047,244.390656 
	C39.247047,244.390656 39.008583,243.989304 39.169315,243.102997 
	C39.148132,240.407227 39.126953,237.711441 39.273632,234.167358 
M264.111267,199.829193 
	C264.111267,199.829193 264.185516,199.466278 264.839325,198.968231 
	C265.852539,198.293137 266.851349,197.059875 267.881287,197.033310 
	C274.671204,196.858261 281.467834,196.942932 288.317932,196.942932 
	C288.671021,198.986786 288.965881,200.693588 289.257294,202.380463 
	C290.256409,202.453751 290.917755,202.543930 291.579224,202.544846 
	C352.039429,202.629700 412.499603,202.731232 472.959808,202.757584 
	C480.833923,202.761017 484.411896,198.916229 484.465912,190.360016 
	C484.597382,169.540543 484.565094,148.719940 484.552032,127.899826 
	C484.550995,126.266808 484.187042,124.634026 484.040924,122.229576 
	C483.902069,121.488663 483.763214,120.747742 483.564850,119.467056 
	C483.378021,118.977455 483.191193,118.487854 482.997375,117.416618 
	C482.695801,116.934746 482.394257,116.452866 482.094543,115.339401 
	C481.749512,114.840363 481.404510,114.341324 480.898682,113.191849 
	C479.302826,111.313210 477.706970,109.434570 476.111145,107.555931 
	C476.574799,107.708221 477.038483,107.860519 477.502136,108.012810 
	C479.143799,102.685310 480.785431,97.357811 482.916809,91.204948 
	C482.949066,76.047623 483.312714,60.879456 482.817230,45.739407 
	C482.662994,41.026340 480.183105,36.389389 478.531891,31.033415 
	C474.105988,24.426605 467.410034,22.096952 459.513824,20.924919 
	C459.346161,20.965647 459.178497,21.006376 458.089539,20.854193 
	C450.726471,20.910587 443.363373,20.966984 435.076904,20.849775 
	C399.176117,20.835846 363.275330,20.805059 327.374542,20.817192 
	C314.916748,20.821404 302.459045,20.931978 289.381256,20.942211 
	C289.250732,21.295719 289.120209,21.649229 288.794189,22.914066 
	C288.854919,27.275921 288.915649,31.637775 288.801880,36.915009 
	C288.858429,41.276817 288.915009,45.638626 288.784088,50.921535 
	C288.848633,61.947575 288.913177,72.973618 288.803345,84.874733 
	C288.860840,87.249947 288.918335,89.625153 288.795898,92.922729 
	C288.855560,102.615028 288.915222,112.307327 288.798553,122.922676 
	C288.861572,130.948502 288.924561,138.974335 288.808350,147.922653 
	C288.790344,160.242554 288.772339,172.562439 287.932129,184.915146 
	C286.288208,184.998917 284.644287,185.082687 282.077393,185.007980 
	C276.395233,184.667908 270.713043,184.327850 264.894623,183.307907 
	C258.796051,176.406509 251.165482,175.117447 244.689316,179.894547 
	C238.818756,184.224915 237.230927,191.928802 240.944382,198.064209 
	C244.773285,204.390366 252.902039,206.438843 260.616241,202.802170 
	C261.670929,201.866638 262.725616,200.931091 264.111267,199.829193 
M545.950134,32.294994 
	C541.417847,23.116743 533.232727,18.770615 524.273315,21.040459 
	C523.340210,21.362570 522.385986,21.634155 521.477295,22.014561 
	C511.660278,26.124256 507.349335,35.872387 511.025299,45.612080 
	C514.428284,54.628468 524.666687,59.604206 533.735413,56.648926 
	C543.835999,53.357384 549.104431,43.190941 545.950134,32.294994 
z"/>
<path fill="#2F2E34" opacity="1.000000" stroke="none" 
	d="
M288.977753,83.999657 
	C288.913177,72.973618 288.848633,61.947575 289.268433,50.452026 
	C290.816040,47.537815 293.005707,44.896889 292.623688,42.703960 
	C292.246826,40.540771 293.993866,36.011414 288.976379,35.999630 
	C288.915649,31.637775 288.854919,27.275921 289.123474,22.362043 
	C289.635559,21.538004 289.818420,21.265985 290.001282,20.993969 
	C302.459045,20.931978 314.916748,20.821404 327.374542,20.817192 
	C363.275330,20.805059 399.176117,20.835846 435.545349,21.306671 
	C436.060028,22.089394 435.996063,22.497011 436.168427,22.729229 
	C441.966736,30.540802 441.969147,30.537603 436.083862,37.498783 
	C435.992554,37.606800 436.023621,37.818275 435.529236,37.987122 
	C406.707703,37.989204 378.354523,37.985641 349.931763,37.624477 
	C347.951721,35.536243 346.206451,34.929836 344.530029,37.985909 
	C334.151031,37.990116 324.239166,37.908703 314.331635,38.078526 
	C312.877808,38.103439 311.444397,39.322388 309.964844,40.151787 
	C309.824890,40.528755 309.660217,40.672459 309.071350,41.021233 
	C308.468903,43.238808 308.022186,45.180744 308.019989,47.123177 
	C307.970978,90.747429 307.970764,134.371719 307.609070,178.036972 
	C305.916260,178.579712 304.378571,179.768036 303.273468,179.450577 
	C300.325470,178.603729 297.514587,179.247284 297.403473,182.006714 
	C297.278168,185.118088 298.513428,188.594772 300.114319,191.357925 
	C301.215546,193.258682 303.946869,194.215027 306.215240,195.776321 
	C303.626221,198.047806 302.504395,199.032043 300.790283,200.535950 
	C309.272247,200.535950 316.861938,200.535950 324.451630,200.535950 
	C318.246613,197.081711 317.211884,192.097504 319.471313,186.013947 
	C327.625214,186.013931 335.310760,186.019440 343.063599,186.389923 
	C348.289978,190.684006 354.122345,189.850174 360.070709,189.590103 
	C367.981567,189.244217 375.937866,189.477829 383.853790,189.876587 
	C388.802704,190.125870 389.435852,193.489380 388.509369,197.380859 
	C384.911255,198.056671 381.699127,198.660004 378.486969,199.263336 
	C378.552307,199.621704 378.617645,199.980072 378.682983,200.338440 
	C396.561340,200.338440 414.439667,200.338440 432.317993,200.338440 
	C429.647736,198.779053 426.665955,198.908524 424.252808,197.800079 
	C422.457794,196.975586 420.680542,194.732849 420.178925,192.790329 
	C419.394958,189.754501 421.752045,188.952209 424.479950,188.980545 
	C431.137634,189.049728 437.808014,189.216888 444.447693,188.863693 
	C446.344696,188.762772 448.154083,187.015884 450.450745,186.017441 
	C453.338867,185.448257 455.779968,184.885361 458.474731,184.164978 
	C462.737518,181.983490 464.110504,178.652771 464.064117,174.273560 
	C463.964264,164.849899 464.121979,155.423523 464.537415,146.093811 
	C465.891296,154.083939 466.920044,161.974014 467.848358,169.875900 
	C468.111328,172.114243 468.080963,174.387054 468.185089,176.644058 
	C468.734589,176.702652 469.284119,176.761246 469.833618,176.819839 
	C470.522217,175.099808 471.494141,173.436386 471.851074,171.650085 
	C473.536987,163.212784 474.278809,162.567917 483.003662,163.421402 
	C483.003662,161.755646 483.003632,160.144516 483.003632,158.533371 
	C483.003571,148.412750 482.957581,138.291733 483.047913,128.171921 
	C483.063324,126.445656 483.662354,124.724594 483.991791,123.001129 
	C484.187042,124.634026 484.550995,126.266808 484.552032,127.899826 
	C484.565094,148.719940 484.597382,169.540543 484.465912,190.360016 
	C484.411896,198.916229 480.833923,202.761017 472.959808,202.757584 
	C412.499603,202.731232 352.039429,202.629700 291.579224,202.544846 
	C290.917755,202.543930 290.256409,202.453751 289.257294,202.380463 
	C288.965881,200.693588 288.671021,198.986786 288.317932,196.942932 
	C281.467834,196.942932 274.671204,196.858261 267.881287,197.033310 
	C266.851349,197.059875 265.852539,198.293137 264.445862,198.837662 
	C261.928284,196.817902 260.064575,194.424927 257.617706,193.160172 
	C254.137314,191.361221 254.405579,189.503922 257.013062,187.744827 
	C259.430328,186.114029 262.338715,185.211166 265.030884,183.987793 
	C270.713043,184.327850 276.395233,184.667908 282.455383,185.436768 
	C280.993927,186.661407 279.154449,187.457260 277.062378,188.362411 
	C278.341644,190.073303 279.108093,192.055008 280.515076,192.761963 
	C282.780609,193.900330 285.737915,195.165924 287.899170,194.565201 
	C289.877167,194.015411 291.696442,191.257584 292.526276,189.070724 
	C292.831116,188.267365 290.100403,186.312149 288.754333,184.882339 
	C288.772339,172.562439 288.790344,160.242554 289.306854,147.447510 
	C290.386139,146.723816 291.468262,146.487671 291.474762,146.224945 
	C291.663177,138.598343 291.793640,130.968613 291.718903,123.341476 
	C291.714417,122.885277 289.930695,122.446510 288.974884,121.999626 
	C288.915222,112.307327 288.855560,102.615028 289.293030,92.448189 
	C290.518799,90.098969 291.549072,88.264175 291.805115,86.327034 
	C291.889709,85.686989 289.977173,84.782974 288.977753,83.999657 
M346.551117,197.998795 
	C343.863464,198.388901 341.175812,198.779007 338.488129,199.169128 
	C338.561737,199.571320 338.635376,199.973526 338.708984,200.375732 
	C344.285645,200.375732 349.862305,200.375732 355.438934,200.375732 
	C355.460419,199.924759 355.481903,199.473770 355.503387,199.022797 
	C352.817566,198.681473 350.131714,198.340149 346.551117,197.998795 
M291.564667,200.295670 
	C291.293488,200.011383 291.022308,199.727097 290.751129,199.442810 
	C290.633484,199.555267 290.407349,199.759293 290.413818,199.766953 
	C290.666962,200.066879 290.941315,200.348892 291.564667,200.295670 
z"/>
<path fill="#29292F" opacity="1.000000" stroke="none" 
	d="
M39.168411,141.054871 
	C39.258827,143.089844 39.349243,145.124832 38.925819,147.584106 
	C36.761585,146.981186 35.024368,146.068573 33.481365,144.899612 
	C31.222557,143.188354 29.330936,140.840073 26.862684,139.598557 
	C24.156336,138.237289 20.972786,137.824738 17.996044,136.530243 
	C17.995512,100.272705 18.011143,64.483658 17.954721,28.694727 
	C17.951733,26.798645 17.339487,24.903524 17.003551,22.685207 
	C16.999908,21.932144 17.003586,21.501827 17.007263,21.071512 
	C36.456963,20.994814 55.906620,20.867485 75.356369,20.851870 
	C116.929665,20.818489 158.503006,20.842936 200.545624,21.320232 
	C200.676620,27.863581 200.338303,33.930393 199.999985,39.997208 
	C166.049347,40.062962 132.098740,40.141453 98.148079,40.189533 
	C78.845612,40.216869 59.543083,40.194473 39.439293,40.194473 
	C39.439293,59.609913 39.439293,78.823761 39.000877,98.702744 
	C38.766392,100.930481 38.970325,102.493088 39.174259,104.055695 
	C39.264896,105.419250 39.355530,106.782814 38.983429,108.798447 
	C38.747490,112.989372 38.974281,116.528206 39.201073,120.067047 
	C39.287071,123.395027 39.373070,126.723000 38.997654,130.743011 
	C38.746967,134.641647 38.957687,137.848267 39.168411,141.054871 
z"/>
<path fill="#2A2A2F" opacity="1.000000" stroke="none" 
	d="
M325.996490,275.904297 
	C298.184967,275.963501 270.373322,276.059631 242.562134,275.984436 
	C240.999146,275.980194 239.125732,274.896179 237.925934,273.757294 
	C218.385468,255.209076 199.014832,236.481537 179.434875,217.975403 
	C155.039886,194.918243 130.466110,172.050385 106.019058,149.048141 
	C99.619759,143.027039 93.403908,136.810959 87.341141,130.359360 
	C89.467056,130.901382 91.355621,131.768478 92.211044,132.161224 
	C97.446312,128.675797 102.175720,125.527161 106.905128,122.378510 
	C122.359535,136.925827 137.829834,151.456329 153.264053,166.025040 
	C169.924088,181.750839 186.564987,197.497009 203.186951,213.263062 
	C217.533432,226.870789 231.780075,240.584976 246.248642,254.061234 
	C247.962280,255.657333 250.790359,256.850281 253.115173,256.873077 
	C274.432465,257.082214 295.752686,256.991394 317.543182,257.448975 
	C320.298676,263.410767 319.688538,270.294281 325.736725,274.031952 
	C326.078461,274.243164 325.921387,275.261566 325.996490,275.904297 
z"/>
<path fill="#2B2B30" opacity="1.000000" stroke="none" 
	d="
M200.461411,40.085609 
	C200.338303,33.930393 200.676620,27.863581 201.007385,21.406502 
	C210.875229,21.294024 220.849274,20.805349 230.598953,22.060017 
	C240.837860,23.377640 248.113876,29.286407 249.872177,40.788864 
	C249.935135,42.953270 250.235245,44.507183 250.535355,46.061096 
	C250.594147,46.480061 250.652939,46.899025 250.291946,47.789108 
	C249.610504,49.180679 249.123581,50.100456 249.120819,51.021690 
	C249.075333,66.132584 249.067184,81.243767 249.137238,96.354485 
	C249.142914,97.582268 249.777512,98.807129 250.119873,100.033348 
	C248.482819,110.448273 238.988342,117.776291 226.195435,118.462242 
	C224.535675,118.551239 222.858429,118.599731 221.205063,118.468422 
	C216.402206,118.087021 212.708649,119.128593 209.097824,123.130119 
	C202.873825,130.027573 191.152786,129.085083 184.641113,122.102852 
	C178.056412,115.042320 178.605057,103.261314 185.833099,96.507217 
	C192.694077,90.096115 203.735489,90.325394 209.970535,97.457062 
	C214.078705,102.156021 218.646820,100.242920 223.116653,99.165230 
	C227.625885,98.078041 229.109741,94.852837 229.018814,90.159851 
	C228.735138,75.519119 228.723419,60.869270 228.886261,46.226070 
	C228.936096,41.745480 227.555740,39.912788 222.887833,40.100479 
	C215.576996,40.394444 208.245560,40.175629 200.461411,40.085609 
M192.054855,113.169991 
	C194.599533,114.115417 197.392059,116.219650 199.632080,115.740578 
	C203.185150,114.980659 205.352859,111.905144 204.019440,107.756538 
	C202.896484,104.262764 199.074341,102.269485 195.759857,103.293427 
	C192.087799,104.427826 190.629593,107.762146 192.054855,113.169991 
z"/>
<path fill="#29D6AA" opacity="1.000000" stroke="none" 
	d="
M42.882217,241.653458 
	C54.862389,228.938873 66.907516,216.284073 78.736877,203.430695 
	C80.145927,201.899689 81.134109,199.247467 81.029602,197.180038 
	C80.475487,186.218048 87.804512,177.429993 98.449013,176.816940 
	C109.876427,176.158798 118.794678,184.063583 119.062859,195.088211 
	C119.328163,205.994675 111.093040,214.428085 99.969933,214.263733 
	C96.886139,214.218185 94.757408,214.919479 92.639320,217.278763 
	C79.108475,232.350525 65.409615,247.271378 51.776783,262.251678 
	C49.663277,264.574066 47.167027,266.687500 45.596416,269.340729 
	C38.567364,281.214996 27.438850,279.095703 16.045549,278.375092 
	C16.045549,271.132355 16.045549,264.030670 16.576220,256.465057 
	C22.809692,255.471573 28.626881,255.478668 34.189842,254.292984 
	C43.739948,252.257523 44.387943,250.892868 42.882217,241.653458 
z"/>
<path fill="#7945C2" opacity="1.000000" stroke="none" 
	d="
M665.863403,108.960983 
	C654.501038,120.342972 643.108765,131.695541 631.826233,143.156082 
	C630.788940,144.209717 630.451904,145.952621 629.581360,147.827484 
	C628.854248,149.692657 627.523499,151.981400 627.949219,152.376190 
	C630.616760,154.849976 633.436035,157.557068 637.689026,156.129639 
	C637.689026,156.129639 637.717896,156.283585 637.532532,156.682190 
	C637.133484,161.821213 641.156921,163.359879 644.035645,165.713745 
	C644.128113,165.789307 645.363098,164.467621 646.065491,163.797302 
	C647.324280,165.241470 648.583130,166.685623 649.944397,168.861664 
	C649.426697,173.753433 651.349670,176.683319 654.045288,179.731827 
	C657.694580,183.858917 661.519836,188.225647 663.662109,193.184097 
	C666.023010,198.648575 668.792114,203.316040 673.427856,207.021637 
	C679.018127,211.490173 681.738647,219.620163 679.644897,224.776138 
	C653.219482,198.795319 626.794067,172.814484 601.120850,147.573212 
	C621.040894,127.177612 640.666748,107.083260 660.656494,87.191696 
	C666.427490,92.539948 667.559753,98.434288 664.512695,105.309814 
	C664.135803,106.160309 665.373779,107.726463 665.863403,108.960983 
z"/>
<path fill="#7E47C6" opacity="1.000000" stroke="none" 
	d="
M679.800903,225.039032 
	C681.738647,219.620163 679.018127,211.490173 673.427856,207.021637 
	C668.792114,203.316040 666.023010,198.648575 663.662109,193.184097 
	C661.519836,188.225647 657.694580,183.858917 654.045288,179.731827 
	C651.349670,176.683319 649.426697,173.753433 650.077515,169.157028 
	C667.394958,185.320526 684.703003,201.898453 701.956299,218.533218 
	C707.576782,223.952209 713.054260,229.519623 718.336487,235.428848 
	C714.674805,237.483078 715.594299,239.768356 717.422119,241.830261 
	C719.513916,244.189987 721.748108,246.473358 724.185181,248.466110 
	C728.541077,252.027863 728.876160,253.881470 725.389771,258.102325 
	C720.469482,264.059052 721.037048,266.252655 727.774109,270.518402 
	C729.594482,271.670990 730.611206,274.092743 731.996887,275.931915 
	C723.636597,275.966003 715.276367,276.000092 706.370972,275.599365 
	C699.756470,273.474884 694.681213,270.388214 690.657288,264.366425 
	C694.664612,262.512299 698.237732,260.629761 701.981873,259.192780 
	C705.548279,257.824036 707.454895,255.685593 706.918457,251.754593 
	C697.931274,242.937027 688.944031,234.119461 679.800903,225.039032 
z"/>
<path fill="#8B48D2" opacity="1.000000" stroke="none" 
	d="
M720.970032,53.866810 
	C720.431763,54.474243 719.893494,55.081673 718.798950,55.880272 
	C717.836121,56.626633 717.429565,57.181820 717.023010,57.737000 
	C717.023010,57.736992 716.866821,58.020649 716.386108,58.128578 
	C715.642700,58.567169 715.380005,58.897823 715.117310,59.228477 
	C715.117310,59.228470 715.129395,59.098354 714.909790,59.193588 
	C714.512939,59.608780 714.335693,59.928734 714.158447,60.248695 
	C714.158447,60.248699 714.124268,60.130531 713.906372,60.209206 
	C713.511353,60.608315 713.334229,60.928745 713.157043,61.249176 
	C713.157043,61.249180 713.122437,61.130024 712.905212,61.208557 
	C712.510376,61.607513 712.332703,61.927933 712.155029,62.248352 
	C712.155029,62.248348 712.139709,62.110565 711.919128,62.200844 
	C711.448914,62.796913 711.199280,63.302700 710.949585,63.808487 
	C710.737793,64.107796 710.526001,64.407104 709.773315,64.882996 
	C708.891663,65.476707 708.550842,65.893837 708.210022,66.310959 
	C708.210022,66.310966 708.163696,66.166763 707.932739,66.244110 
	C707.460205,66.862617 707.218628,67.403778 706.977051,67.944939 
	C706.977051,67.944931 706.998657,67.999207 706.666626,68.036812 
	C705.879150,68.675232 705.423645,69.276047 704.968079,69.876854 
	C703.687988,71.204102 702.407959,72.531349 700.485291,74.087555 
	C699.588440,74.736153 699.334167,75.155800 699.079956,75.575439 
	C698.815002,75.972176 698.550049,76.368927 697.766846,76.912712 
	C696.890930,77.470917 696.533264,77.882095 696.175659,78.293266 
	C696.175659,78.293266 696.244995,78.209755 695.904785,78.124184 
	C695.469543,76.528046 694.781616,74.713104 695.375488,73.556168 
	C699.319214,65.873100 698.043457,60.738777 690.842041,56.667965 
	C695.895386,51.480625 700.948730,46.293278 706.514893,40.978649 
	C707.146851,40.783092 707.265930,40.714817 707.385071,40.646545 
	C707.247620,40.433865 707.110229,40.221188 706.972778,40.008514 
	C706.972778,40.008514 707.005310,40.010693 706.983765,39.749817 
	C706.939819,39.309185 706.917419,39.129429 706.611938,38.654045 
	C698.885864,38.232845 691.442932,38.107273 684.055176,37.636589 
	C685.396851,36.124367 686.683411,34.957256 688.413696,33.387672 
	C685.552917,29.520279 682.776428,25.766850 680.468628,22.009556 
	C702.531982,22.003517 724.126770,21.968184 745.721069,22.058916 
	C747.549255,22.066597 749.373901,22.917339 751.200195,23.376406 
	C744.468384,30.187010 737.736572,36.997627 730.417175,44.027618 
	C729.587952,44.568874 729.346375,44.890762 729.104797,45.212646 
	C729.104797,45.212646 729.110779,45.084049 728.895630,45.183701 
	C728.507324,45.605366 728.334106,45.927387 728.160889,46.249397 
	C728.160889,46.249390 728.131409,46.128456 727.911743,46.209091 
	C727.520630,46.614235 727.349182,46.938740 727.177734,47.263237 
	C727.177734,47.263233 727.141663,47.144424 726.919678,47.218582 
	C726.525208,47.617321 726.352844,47.941906 726.180420,48.266491 
	C726.180420,48.266491 726.142273,48.148037 725.920349,48.220604 
	C725.526917,48.617935 725.355347,48.942692 725.183838,49.267456 
	C725.183838,49.267456 725.149414,49.147842 724.925781,49.221447 
	C724.538696,49.623077 724.375122,49.951103 724.211609,50.279129 
	C724.211609,50.279129 724.189636,50.148335 723.948486,50.232445 
	C723.460327,50.846874 723.213257,51.377193 722.966248,51.907509 
	C722.966248,51.907509 722.979675,51.980946 722.643311,52.027699 
	C721.861389,52.671902 721.415710,53.269356 720.970032,53.866810 
z"/>
<path fill="#2D2D32" opacity="1.000000" stroke="none" 
	d="
M484.016357,122.615356 
	C483.662354,124.724594 483.063324,126.445656 483.047913,128.171921 
	C482.957581,138.291733 483.003571,148.412750 483.003632,158.533371 
	C483.003632,160.144516 483.003662,161.755646 483.003662,163.421402 
	C474.278809,162.567917 473.536987,163.212784 471.851074,171.650085 
	C471.494141,173.436386 470.522217,175.099808 469.833618,176.819839 
	C469.284119,176.761246 468.734589,176.702652 468.185089,176.644058 
	C468.080963,174.387054 468.111328,172.114243 467.848358,169.875900 
	C466.920044,161.974014 465.891296,154.083939 464.458557,145.698730 
	C464.071198,144.139328 464.125824,143.070572 464.558716,141.892731 
	C464.916931,136.891174 465.246521,131.958954 464.697052,127.126648 
	C464.490143,125.306870 462.246429,123.718681 460.644043,121.917198 
	C459.571960,121.161285 458.787079,120.513100 458.001953,119.555618 
	C458.000061,118.834084 457.998383,118.421852 458.310181,117.869629 
	C459.572601,117.101280 460.597992,116.562431 461.456879,115.828682 
	C464.762482,113.004852 465.466614,110.205322 461.977203,106.732132 
	C459.856567,104.621391 458.462219,101.780983 456.965393,99.044250 
	C462.152679,95.944473 463.075195,91.088493 463.735107,85.966408 
	C464.326569,85.971260 464.664490,85.989296 465.048309,86.325424 
	C465.570923,86.966530 466.328033,87.670921 466.483368,87.556717 
	C470.287811,84.760040 471.126068,87.526329 472.291840,90.376640 
	C474.636871,96.110306 478.285370,96.641251 482.427094,92.030312 
	C480.785431,97.357811 479.143799,102.685310 477.502136,108.012810 
	C477.038483,107.860519 476.574799,107.708221 476.111145,107.555931 
	C477.706970,109.434570 479.302826,111.313210 480.983032,113.837265 
	C481.409149,114.978775 481.750916,115.474876 482.092712,115.970993 
	C482.394257,116.452866 482.695801,116.934746 482.781830,117.854553 
	C482.919006,118.863930 483.271698,119.435371 483.624390,120.006821 
	C483.763214,120.747742 483.902069,121.488663 484.016357,122.615356 
z"/>
<path fill="#423162" opacity="1.000000" stroke="none" 
	d="
M542.358704,157.155487 
	C536.900391,162.732300 531.442017,168.309113 525.292175,173.929001 
	C524.310547,172.285248 523.173279,169.760330 523.873230,169.052872 
	C527.391113,165.496933 526.800415,161.224396 527.065979,156.930069 
	C527.480713,150.222702 529.231567,143.480392 528.780334,136.864456 
	C528.099121,126.876801 525.977234,116.989861 524.529846,107.051064 
	C523.627747,100.856857 522.483459,94.667313 522.111023,88.436020 
	C521.797791,83.196503 525.187317,80.052711 530.414124,80.059448 
	C533.192322,80.063034 535.969788,80.664017 538.747559,80.995331 
	C538.767517,97.715218 538.787476,114.435097 538.516968,131.860840 
	C534.776733,137.418472 536.740234,142.704102 537.010559,147.850571 
	C537.220520,151.846695 538.483032,155.257050 542.358704,157.155487 
z"/>
<path fill="#894DD3" opacity="1.000000" stroke="none" 
	d="
M554.613220,197.957413 
	C554.913879,196.581543 555.579529,195.172302 555.457275,193.835083 
	C554.493408,183.293106 560.607056,175.298141 571.355103,173.260178 
	C580.176514,171.587524 589.385315,177.619720 591.928467,186.736664 
	C594.593994,196.292404 589.832275,206.204498 580.515503,209.336624 
	C576.885132,210.557083 572.802307,210.431656 568.369019,210.813385 
	C567.160034,209.472183 566.350647,208.293381 565.882202,206.991837 
	C563.820862,201.264252 560.182251,198.295456 554.613220,197.957413 
z"/>
<path fill="#312E3A" opacity="1.000000" stroke="none" 
	d="
M482.671936,91.617630 
	C478.285370,96.641251 474.636871,96.110306 472.291840,90.376640 
	C471.126068,87.526329 470.287811,84.760040 466.483368,87.556717 
	C466.328033,87.670921 465.570923,86.966530 465.046936,85.855927 
	C464.999786,75.641472 465.064362,66.213852 464.953033,56.788315 
	C464.926422,54.536709 464.313293,52.292030 463.982452,49.661301 
	C465.552032,46.498665 466.551178,43.096226 468.796417,41.084488 
	C472.197327,38.037247 472.669708,31.799829 478.767883,31.717587 
	C480.183105,36.389389 482.662994,41.026340 482.817230,45.739407 
	C483.312714,60.879456 482.949066,76.047623 482.671936,91.617630 
z"/>
<path fill="#3E2F5A" opacity="1.000000" stroke="none" 
	d="
M538.830200,80.543793 
	C535.969788,80.664017 533.192322,80.063034 530.414124,80.059448 
	C525.187317,80.052711 521.797791,83.196503 522.111023,88.436020 
	C522.483459,94.667313 523.627747,100.856857 524.529846,107.051064 
	C525.977234,116.989861 528.099121,126.876801 528.780334,136.864456 
	C529.231567,143.480392 527.480713,150.222702 527.065979,156.930069 
	C526.800415,161.224396 527.391113,165.496933 523.873230,169.052872 
	C523.173279,169.760330 524.310547,172.285248 524.988708,174.050110 
	C524.220337,175.381424 523.063965,176.634720 521.293335,177.885162 
	C519.818420,177.588242 518.957703,177.294159 518.097046,177.000061 
	C518.047241,169.306854 517.997437,161.613632 518.404114,153.367340 
	C519.436401,146.962204 520.273132,141.117874 520.446716,135.253922 
	C520.507629,133.195816 518.940125,131.089523 518.116211,129.005219 
	C518.116211,109.110352 518.116211,89.215485 518.116211,68.845039 
	C524.567932,68.845039 530.824280,68.845039 537.623413,69.132477 
	C538.314941,69.678093 538.524658,69.869438 538.795410,69.993950 
	C538.834534,73.360054 538.873657,76.726151 538.830200,80.543793 
z"/>
<path fill="#8247CB" opacity="1.000000" stroke="none" 
	d="
M690.542419,56.832336 
	C698.043457,60.738777 699.319214,65.873100 695.375488,73.556168 
	C694.781616,74.713104 695.469543,76.528046 695.925659,78.174294 
	C686.342529,88.419472 676.398254,98.528969 666.158691,108.799728 
	C665.373779,107.726463 664.135803,106.160309 664.512695,105.309814 
	C667.559753,98.434288 666.427490,92.539948 660.956238,87.022400 
	C670.675598,76.765785 680.459167,66.881256 690.542419,56.832336 
z"/>
<path fill="#7743BE" opacity="1.000000" stroke="none" 
	d="
M706.467468,251.868866 
	C707.454895,255.685593 705.548279,257.824036 701.981873,259.192780 
	C698.237732,260.629761 694.664612,262.512299 690.657288,264.366425 
	C694.681213,270.388214 699.756470,273.474884 705.906799,275.524109 
	C696.553650,275.946045 687.117615,276.124542 677.687256,275.964417 
	C675.975647,275.935333 673.905579,274.909149 672.652649,273.679352 
	C666.040344,267.188782 659.636780,260.485535 653.063965,253.336456 
	C652.967224,252.816849 653.004944,252.364731 653.004944,252.364716 
	C670.675476,252.237518 688.345947,252.110321 706.467468,251.868866 
z"/>
<path fill="#884AD0" opacity="1.000000" stroke="none" 
	d="
M680.000000,22.013420 
	C682.776428,25.766850 685.552917,29.520279 688.413696,33.387672 
	C686.683411,34.957256 685.396851,36.124367 683.586548,37.642296 
	C676.746582,37.994263 670.427612,37.895947 664.116455,38.074562 
	C662.737610,38.113586 661.386658,39.141148 660.022888,39.713451 
	C655.015747,44.778538 650.008667,49.843620 644.361206,54.887558 
	C640.680725,52.737659 642.499512,51.031670 644.194214,49.297783 
	C646.307312,47.135754 647.120178,44.700958 644.606934,42.448044 
	C641.570679,39.726288 638.414185,36.928268 633.761841,37.910572 
	C638.762817,32.842388 643.509338,27.476658 648.900940,22.865122 
	C650.824829,21.219593 654.285645,21.232679 657.093201,20.806164 
	C659.037903,20.510731 661.065063,20.758846 663.798767,21.155558 
	C669.694763,21.702486 674.847351,21.857952 680.000000,22.013420 
z"/>
<path fill="#2A2A30" opacity="1.000000" stroke="none" 
	d="
M106.863411,122.066772 
	C102.175720,125.527161 97.446312,128.675797 92.211044,132.161224 
	C91.355621,131.768478 89.467056,130.901382 87.201912,130.047089 
	C85.929001,129.276703 85.032654,128.493500 84.193024,127.107178 
	C85.315887,125.309921 86.792053,124.280777 87.354225,122.883812 
	C88.246948,120.665497 88.382866,118.155998 89.100029,115.850899 
	C90.645248,110.884270 92.356552,105.969315 93.999886,101.033211 
	C105.692314,100.980583 117.384735,100.927956 129.527847,101.380684 
	C129.652344,104.502258 129.104904,107.113266 129.042969,109.735733 
	C128.880722,116.605019 128.852310,116.265076 122.220573,117.180305 
	C119.081940,117.613464 114.561691,116.055984 113.000381,120.902802 
	C110.940819,121.186874 108.881256,121.470955 106.863411,122.066772 
z"/>
<path fill="#2F2E34" opacity="1.000000" stroke="none" 
	d="
M545.988892,33.003487 
	C549.104431,43.190941 543.835999,53.357384 533.735413,56.648926 
	C524.666687,59.604206 514.428284,54.628468 511.025299,45.612080 
	C507.349335,35.872387 511.660278,26.124256 521.477295,22.014561 
	C522.385986,21.634155 523.340210,21.362570 524.639099,21.506191 
	C524.577087,23.847395 523.782166,25.733105 523.834167,27.595177 
	C523.877930,29.165859 524.904846,30.709110 525.263550,32.535973 
	C521.092834,35.161777 520.117432,38.575962 522.208557,42.488136 
	C523.982300,45.806686 527.171509,46.765404 530.714233,45.616867 
	C534.530457,44.379684 536.115295,40.654350 535.501343,35.996948 
	C539.274475,35.000229 542.631653,34.001862 545.988892,33.003487 
z"/>
<path fill="#2D2D32" opacity="1.000000" stroke="none" 
	d="
M478.649902,31.375500 
	C472.669708,31.799829 472.197327,38.037247 468.796417,41.084488 
	C466.551178,43.096226 465.552032,46.498665 463.758301,49.647541 
	C463.521637,50.016647 463.073242,49.980656 462.849609,49.688339 
	C461.084198,46.561604 459.542450,43.727188 457.939880,40.557968 
	C456.917694,39.815952 455.956360,39.408737 454.612000,38.835083 
	C448.151825,38.439587 442.074707,38.210526 435.997559,37.981468 
	C436.023621,37.818275 435.992554,37.606800 436.083862,37.498783 
	C441.969147,30.537603 441.966736,30.540802 436.168427,22.729229 
	C435.996063,22.497011 436.060028,22.089394 436.007019,21.393473 
	C443.363373,20.966984 450.726471,20.910587 458.625916,21.107216 
	C459.429779,21.299873 459.697296,21.239506 459.964783,21.179134 
	C467.410034,22.096952 474.105988,24.426605 478.649902,31.375500 
z"/>
<path fill="#8247CA" opacity="1.000000" stroke="none" 
	d="
M732.461487,276.001251 
	C730.611206,274.092743 729.594482,271.670990 727.774109,270.518402 
	C721.037048,266.252655 720.469482,264.059052 725.389771,258.102325 
	C728.876160,253.881470 728.541077,252.027863 724.185181,248.466110 
	C721.748108,246.473358 719.513916,244.189987 717.422119,241.830261 
	C715.594299,239.768356 714.674805,237.483078 718.514526,235.737762 
	C732.580017,248.812424 746.206909,261.987885 760.772034,276.070587 
	C750.672668,276.070587 741.799377,276.070587 732.461487,276.001251 
z"/>
<path fill="#37304E" opacity="1.000000" stroke="none" 
	d="
M403.994293,275.907959 
	C393.970123,275.968231 383.945923,276.028503 373.455139,275.645996 
	C367.947205,270.229980 366.195068,263.983490 365.994690,257.136353 
	C377.352570,257.082062 388.710480,257.027771 400.475281,257.446533 
	C400.590057,259.986328 399.695709,262.190826 400.130463,264.091309 
	C401.050781,268.114319 402.664795,271.978577 403.994293,275.907959 
z"/>
<path fill="#2A2A2F" opacity="1.000000" stroke="none" 
	d="
M113.462723,120.984856 
	C114.561691,116.055984 119.081940,117.613464 122.220573,117.180305 
	C128.852310,116.265076 128.880722,116.605019 129.042969,109.735733 
	C129.104904,107.113266 129.652344,104.502258 129.989349,101.468521 
	C136.025894,100.997681 142.051651,100.944351 148.544220,101.347336 
	C150.107452,105.042809 152.133560,108.304146 152.056900,111.515297 
	C151.967896,115.243370 153.042740,116.937531 156.327545,118.004280 
	C158.620209,118.748840 160.779968,119.902626 162.999100,120.873619 
	C146.641083,120.938042 130.283081,121.002472 113.462723,120.984856 
z"/>
<path fill="#7F45C8" opacity="1.000000" stroke="none" 
	d="
M633.469116,38.052589 
	C638.414185,36.928268 641.570679,39.726288 644.606934,42.448044 
	C647.120178,44.700958 646.307312,47.135754 644.194214,49.297783 
	C642.499512,51.031670 640.680725,52.737659 644.067627,55.019360 
	C641.290527,58.381649 638.166687,61.590984 634.449646,65.023125 
	C633.612000,65.577126 633.367493,65.908318 633.122986,66.239510 
	C633.122986,66.239502 633.142883,66.096062 632.922363,66.194855 
	C632.537354,66.626358 632.372803,66.959076 632.208252,67.291809 
	C632.208313,67.291817 632.172913,67.164467 631.945068,67.233948 
	C631.555908,67.638268 631.394653,67.973114 631.233398,68.307976 
	C631.233398,68.307983 631.185120,68.190735 630.953491,68.249069 
	C630.557556,68.640694 630.393250,68.973991 630.228943,69.307289 
	C630.228943,69.307289 630.179016,69.189499 629.949097,69.247437 
	C629.554749,69.638153 629.390320,69.970932 629.225952,70.303726 
	C629.225952,70.303734 628.985596,70.063866 628.709961,70.074150 
	C627.952393,69.967400 627.201721,70.007149 627.028381,69.710091 
	C623.961914,64.453514 620.965820,59.155914 617.954468,53.867195 
	C623.028442,48.642994 628.102478,43.418804 633.469116,38.052589 
z"/>
<path fill="#2A2A2F" opacity="1.000000" stroke="none" 
	d="
M93.538795,100.942894 
	C92.356552,105.969315 90.645248,110.884270 89.100029,115.850899 
	C88.382866,118.155998 88.246948,120.665497 87.354225,122.883812 
	C86.792053,124.280777 85.315887,125.309921 84.092865,126.822212 
	C77.170845,120.985687 70.255302,114.983177 63.755962,108.559563 
	C62.297665,107.118240 62.295418,104.203712 61.287575,100.852577 
	C72.582550,100.852577 82.830132,100.852577 93.538795,100.942894 
z"/>
<path fill="#2D2D32" opacity="1.000000" stroke="none" 
	d="
M264.962769,183.647842 
	C262.338715,185.211166 259.430328,186.114029 257.013062,187.744827 
	C254.405579,189.503922 254.137314,191.361221 257.617706,193.160172 
	C260.064575,194.424927 261.928284,196.817902 264.118958,199.086685 
	C264.185516,199.466278 264.111267,199.829193 263.603668,199.918030 
	C262.063507,200.959885 261.030914,201.912903 259.998352,202.865906 
	C252.902039,206.438843 244.773285,204.390366 240.944382,198.064209 
	C237.230927,191.928802 238.818756,184.224915 244.689316,179.894547 
	C251.165482,175.117447 258.796051,176.406509 264.962769,183.647842 
z"/>
<path fill="#2D2B38" opacity="1.000000" stroke="none" 
	d="
M326.459167,275.986176 
	C325.921387,275.261566 326.078461,274.243164 325.736725,274.031952 
	C319.688538,270.294281 320.298676,263.410767 318.005676,257.528442 
	C324.355347,257.093719 330.713623,257.040497 337.576599,257.400696 
	C340.104309,259.901276 342.296722,261.851959 344.112427,264.106079 
	C347.198761,267.937653 350.047821,271.960297 352.996552,275.902679 
	C344.304962,275.957794 335.613403,276.012939 326.459167,275.986176 
z"/>
<path fill="#3D345A" opacity="1.000000" stroke="none" 
	d="
M404.456970,275.990906 
	C402.664795,271.978577 401.050781,268.114319 400.130463,264.091309 
	C399.695709,262.190826 400.590057,259.986328 400.938110,257.522430 
	C408.019104,257.076324 415.044189,257.027344 422.533691,257.484436 
	C422.491577,264.228607 424.213318,269.345184 429.961761,272.695465 
	C430.929169,273.259277 431.330475,274.794434 431.993378,275.880798 
	C422.968811,275.945129 413.944244,276.009491 404.456970,275.990906 
z"/>
<path fill="#5A3C8C" opacity="1.000000" stroke="none" 
	d="
M557.687012,114.203476 
	C562.573059,109.191780 567.459045,104.180084 572.787842,99.350586 
	C574.052124,101.510696 574.779175,103.534592 575.714661,105.457054 
	C577.740784,109.621048 579.873596,113.733109 581.962769,117.866425 
	C576.615479,123.199562 571.268127,128.532700 565.279724,133.844040 
	C562.321411,127.282654 560.004211,120.743065 557.687012,114.203476 
z"/>
<path fill="#7644BD" opacity="1.000000" stroke="none" 
	d="
M617.647461,54.008362 
	C620.965820,59.155914 623.961914,64.453514 627.028381,69.710091 
	C627.201721,70.007149 627.952393,69.967400 628.831421,70.189651 
	C624.007812,75.724129 618.787170,81.153389 613.001343,86.444016 
	C610.624390,82.330688 608.790894,78.365677 607.009155,74.377502 
	C606.002258,72.123741 605.080750,69.831856 604.120728,67.557129 
	C608.527283,63.087929 612.933899,58.618725 617.647461,54.008362 
z"/>
<path fill="#322D42" opacity="1.000000" stroke="none" 
	d="
M353.458740,275.985809 
	C350.047821,271.960297 347.198761,267.937653 344.112427,264.106079 
	C342.296722,261.851959 340.104309,259.901276 338.039062,257.478729 
	C347.020966,257.089294 356.045105,257.035248 365.531982,257.058777 
	C366.195068,263.983490 367.947205,270.229980 372.992523,275.564087 
	C366.637970,275.972961 360.279419,276.020966 353.458740,275.985809 
z"/>
<path fill="#292F33" opacity="1.000000" stroke="none" 
	d="
M17.997177,136.998779 
	C20.972786,137.824738 24.156336,138.237289 26.862684,139.598557 
	C29.330936,140.840073 31.222557,143.188354 33.481365,144.899612 
	C35.024368,146.068573 36.761585,146.981186 38.813263,148.008820 
	C39.275398,152.037689 39.336239,156.066162 38.974850,160.544373 
	C38.364033,160.995453 38.175449,160.996750 37.601067,160.992126 
	C31.132345,159.399216 25.049423,157.812210 18.966503,156.225204 
	C18.971035,156.745438 18.975565,157.265656 18.980097,157.785889 
	C18.058865,159.853180 17.137632,161.920456 16.216396,163.987732 
	C16.150202,156.960007 16.084009,149.932266 16.464146,142.351562 
	C17.272711,140.198639 17.634943,138.598709 17.997177,136.998779 
z"/>
<path fill="#47396F" opacity="1.000000" stroke="none" 
	d="
M470.991180,275.900696 
	C465.300079,275.951721 459.609009,276.002777 453.401245,275.641846 
	C447.025391,270.512604 442.375244,265.052002 441.749786,257.117218 
	C448.857239,257.070282 455.964722,257.023346 463.537476,257.463989 
	C464.927521,263.805237 464.703003,270.102539 470.395691,274.100128 
	C470.810913,274.391724 470.802582,275.286407 470.991180,275.900696 
z"/>
<path fill="#423665" opacity="1.000000" stroke="none" 
	d="
M441.375031,257.039490 
	C442.375244,265.052002 447.025391,270.512604 452.938904,275.561829 
	C446.301849,275.943451 439.610535,275.993164 432.456299,275.961853 
	C431.330475,274.794434 430.929169,273.259277 429.961761,272.695465 
	C424.213318,269.345184 422.491577,264.228607 422.996460,257.560608 
	C428.996643,257.074341 434.998474,257.018036 441.375031,257.039490 
z"/>
<path fill="#7043B2" opacity="1.000000" stroke="none" 
	d="
M603.861877,67.715179 
	C605.080750,69.831856 606.002258,72.123741 607.009155,74.377502 
	C608.790894,78.365677 610.624390,82.330688 612.687012,86.534241 
	C609.288574,90.452660 605.639282,94.142212 601.323364,97.911942 
	C598.558289,94.539589 596.250977,91.192604 594.434509,87.597603 
	C593.213562,85.181252 592.687317,82.413895 591.850220,79.803589 
	C591.850220,79.803589 591.911438,79.899246 592.131958,79.802322 
	C592.540161,79.369370 592.727844,79.033340 592.915527,78.697311 
	C596.478027,75.089287 600.040527,71.481262 603.861877,67.715179 
z"/>
<path fill="#603C99" opacity="1.000000" stroke="none" 
	d="
M582.255005,117.716019 
	C579.873596,113.733109 577.740784,109.621048 575.714661,105.457054 
	C574.779175,103.534592 574.052124,101.510696 573.085815,99.192772 
	C573.685242,97.952881 574.429565,97.052986 575.730347,95.933365 
	C576.496033,95.381500 576.705200,95.049362 576.914429,94.717224 
	C579.060425,92.530426 581.206482,90.343628 583.799622,88.330872 
	C586.465271,92.374115 588.633545,96.273369 590.924622,100.099121 
	C591.982971,101.866493 593.281128,103.490334 594.470520,105.179253 
	C590.496094,109.308044 586.521606,113.436836 582.255005,117.716019 
z"/>
<path fill="#533A7D" opacity="1.000000" stroke="none" 
	d="
M557.373779,114.367401 
	C560.004211,120.743065 562.321411,127.282654 564.983704,133.980988 
	C562.535645,137.044495 559.742554,139.949280 556.287842,142.935928 
	C551.074036,138.651443 546.521912,134.285095 541.969788,129.918762 
	C547.000061,124.789604 552.030334,119.660469 557.373779,114.367401 
z"/>
<path fill="#4E3C7C" opacity="1.000000" stroke="none" 
	d="
M471.453247,275.982788 
	C470.802582,275.286407 470.810913,274.391724 470.395691,274.100128 
	C464.703003,270.102539 464.927521,263.805237 463.999817,257.539429 
	C470.022522,257.076721 476.048187,257.026154 482.537292,257.505096 
	C483.099976,264.261475 481.467682,270.978973 487.922272,275.412750 
	C488.012665,275.474854 487.970734,275.729675 487.990540,275.894531 
	C482.632141,275.951294 477.273743,276.008087 471.453247,275.982788 
z"/>
<path fill="#62449E" opacity="1.000000" stroke="none" 
	d="
M504.879333,245.633636 
	C508.029083,242.482697 511.178833,239.331757 514.981934,236.230042 
	C516.769470,237.894577 518.114380,239.403336 518.995544,241.146500 
	C521.095032,245.299973 522.975586,249.564163 524.944519,253.783630 
	C521.624634,257.161713 518.304749,260.539764 514.365112,263.865540 
	C510.790039,257.753387 507.834686,251.693512 504.879333,245.633636 
z"/>
<path fill="#4E3C71" opacity="1.000000" stroke="none" 
	d="
M541.669556,130.076157 
	C546.521912,134.285095 551.074036,138.651443 555.994751,143.073624 
	C551.897522,147.730209 547.431580,152.330948 542.662231,157.043579 
	C538.483032,155.257050 537.220520,151.846695 537.010559,147.850571 
	C536.740234,142.704102 534.776733,137.418472 538.482849,132.334595 
	C539.615967,131.479538 540.492676,130.856552 541.669556,130.076157 
z"/>
<path fill="#533E88" opacity="1.000000" stroke="none" 
	d="
M488.451721,275.973999 
	C487.970734,275.729675 488.012665,275.474854 487.922272,275.412750 
	C481.467682,270.978973 483.099976,264.261475 483.000488,257.578430 
	C486.445923,256.892639 489.891541,256.662994 494.080017,256.269470 
	C495.862701,257.013672 497.873077,258.026062 497.788452,258.813171 
	C497.130402,264.934601 500.642761,269.054443 504.118805,273.256653 
	C502.945618,274.200806 501.835175,275.847015 500.587524,275.958557 
	C496.724030,276.303986 492.808319,276.065338 488.451721,275.973999 
z"/>
<path fill="#2A2A30" opacity="1.000000" stroke="none" 
	d="
M163.371918,120.956917 
	C160.779968,119.902626 158.620209,118.748840 156.327545,118.004280 
	C153.042740,116.937531 151.967896,115.243370 152.056900,111.515297 
	C152.133560,108.304146 150.107452,105.042809 149.005493,101.434074 
	C154.359573,100.992851 159.719223,100.921204 165.653717,101.162750 
	C166.516235,101.655937 166.803925,101.835930 167.091629,102.015915 
	C167.131454,107.706375 167.171280,113.396828 166.895111,119.635483 
	C166.313400,120.351143 166.126541,120.582344 166.018524,120.877266 
	C165.260590,120.931580 164.502655,120.985901 163.371918,120.956917 
z"/>
<path fill="#5A4293" opacity="1.000000" stroke="none" 
	d="
M504.472168,273.213715 
	C500.642761,269.054443 497.130402,264.934601 497.788452,258.813171 
	C497.873077,258.026062 495.862701,257.013672 494.443176,256.063690 
	C497.463959,252.664444 500.864410,249.307144 504.572083,245.791748 
	C507.834686,251.693512 510.790039,257.753387 514.068115,263.992554 
	C511.202332,267.171539 508.013947,270.171173 504.472168,273.213715 
z"/>
<path fill="#814DCA" opacity="1.000000" stroke="none" 
	d="
M554.352051,198.117554 
	C560.182251,198.295456 563.820862,201.264252 565.882202,206.991837 
	C566.350647,208.293381 567.160034,209.472183 568.016479,211.031555 
	C565.121033,214.510391 562.021484,217.665161 558.211304,220.924255 
	C556.665894,219.896240 555.579346,218.871460 555.041382,217.612274 
	C553.034302,212.914825 552.802673,207.328918 548.074646,204.024841 
	C550.080017,202.109116 552.085449,200.193390 554.352051,198.117554 
z"/>
<path fill="#7347B8" opacity="1.000000" stroke="none" 
	d="
M534.968201,216.881378 
	C534.985718,216.551132 535.130066,216.291367 535.876404,215.922791 
	C536.552307,215.439590 536.753052,215.135666 536.953796,214.831741 
	C537.809082,213.982407 538.664307,213.133072 540.103394,212.315369 
	C541.543884,213.713654 542.675293,214.981842 543.206665,216.465012 
	C544.933350,221.284241 546.440247,226.182175 548.031738,231.049820 
	C546.238892,232.957153 544.446106,234.864487 542.026733,236.921844 
	C541.030457,237.512711 540.660767,237.953568 540.291016,238.394409 
	C540.291016,238.394409 540.312012,238.429596 539.950806,238.260437 
	C538.732727,236.796341 537.611328,235.603058 537.067322,234.187866 
	C535.261902,229.491302 533.664185,224.714890 531.986816,219.969101 
	C532.456970,219.379959 532.927063,218.790817 533.899536,217.976776 
	C534.590698,217.461731 534.779419,217.171555 534.968201,216.881378 
z"/>
<path fill="#29292F" opacity="1.000000" stroke="none" 
	d="
M525.496521,32.264503 
	C524.904846,30.709110 523.877930,29.165859 523.834167,27.595177 
	C523.782166,25.733105 524.577087,23.847395 525.005493,21.573034 
	C533.232727,18.770615 541.417847,23.116743 545.969482,32.649242 
	C542.631653,34.001862 539.274475,35.000229 535.278687,35.725227 
	C532.242432,32.524414 529.245117,31.316891 525.496521,32.264503 
z"/>
<path fill="#1E1F24" opacity="1.000000" stroke="none" 
	d="
M17.996040,136.530243 
	C17.634943,138.598709 17.272711,140.198639 16.560898,141.890808 
	C16.149654,109.441872 16.085739,76.900688 16.028242,44.359489 
	C16.016800,37.883636 16.029940,31.407743 16.294731,24.352621 
	C16.782087,23.561649 16.933138,23.306509 17.010872,23.007956 
	C17.339487,24.903524 17.951733,26.798645 17.954721,28.694727 
	C18.011143,64.483658 17.995512,100.272705 17.996040,136.530243 
z"/>
<path fill="#7945C2" opacity="1.000000" stroke="none" 
	d="
M548.335999,230.910599 
	C546.440247,226.182175 544.933350,221.284241 543.206665,216.465012 
	C542.675293,214.981842 541.543884,213.713654 540.380798,212.188232 
	C542.544189,209.465118 545.013977,206.900787 547.779236,204.180649 
	C552.802673,207.328918 553.034302,212.914825 555.041382,217.612274 
	C555.579346,218.871460 556.665894,219.896240 557.920593,221.067352 
	C555.107117,224.327850 551.873718,227.549622 548.335999,230.910599 
z"/>
<path fill="#2B8971" opacity="1.000000" stroke="none" 
	d="
M16.236580,221.253555 
	C16.183008,217.790207 16.129436,214.326859 16.651085,210.473541 
	C24.508797,211.056625 31.791290,212.029678 39.073784,213.002731 
	C39.136436,216.038971 39.199093,219.075226 38.763535,222.549469 
	C31.017221,221.204910 23.858221,218.290390 16.236580,221.253555 
z"/>
<path fill="#6A48A8" opacity="1.000000" stroke="none" 
	d="
M525.261719,253.697418 
	C522.975586,249.564163 521.095032,245.299973 518.995544,241.146500 
	C518.114380,239.403336 516.769470,237.894577 515.303650,236.130096 
	C517.626587,233.387619 520.281189,230.794296 523.360596,228.490204 
	C525.843811,233.091568 528.476807,237.241882 529.753113,241.774231 
	C530.565979,244.660889 531.705444,245.175125 534.091492,245.002258 
	C531.253967,247.871933 528.416443,250.741577 525.261719,253.697418 
z"/>
<path fill="#7043B2" opacity="1.000000" stroke="none" 
	d="
M534.389709,244.865723 
	C531.705444,245.175125 530.565979,244.660889 529.753113,241.774231 
	C528.476807,237.241882 525.843811,233.091568 523.685425,228.331238 
	C523.781433,227.586365 523.977417,227.289703 524.664795,226.866791 
	C525.385132,226.401154 525.614197,226.061737 525.843201,225.722321 
	C525.843201,225.722321 525.836365,225.874725 526.057861,225.783630 
	C526.438416,225.353989 526.597473,225.015411 526.756531,224.676849 
	C526.756531,224.676865 526.800659,224.806946 527.030762,224.743256 
	C527.413757,224.338867 527.566528,223.998169 527.719360,223.657486 
	C527.719360,223.657486 527.767273,223.778778 528.007690,223.723724 
	C528.389343,223.323303 528.530579,222.977921 528.671875,222.632538 
	C528.671875,222.632553 528.701050,222.828094 528.942261,222.758575 
	C529.452637,222.222610 529.721741,221.756180 529.990845,221.289749 
	C530.463989,220.912445 530.937195,220.535126 531.698608,220.063461 
	C533.664185,224.714890 535.261902,229.491302 537.067322,234.187866 
	C537.611328,235.603058 538.732727,236.796341 539.957764,238.279694 
	C538.446533,240.555145 536.567261,242.642166 534.389709,244.865723 
z"/>
<path fill="#2C5F55" opacity="1.000000" stroke="none" 
	d="
M16.216227,194.344711 
	C16.161583,191.240067 16.106941,188.135422 16.649918,184.553955 
	C24.538916,184.385971 31.830294,184.694809 39.121674,185.003647 
	C39.192726,188.041260 39.263779,191.078888 38.792305,194.559479 
	C30.919321,194.312241 23.646955,191.675995 16.216227,194.344711 
z"/>
<path fill="#2A7966" opacity="1.000000" stroke="none" 
	d="
M39.173996,212.557541 
	C31.791290,212.029678 24.508797,211.056625 16.726093,210.111130 
	C16.166399,207.701691 16.106916,205.264679 16.585360,202.413086 
	C24.458561,202.334213 31.793837,202.669937 39.129112,203.005646 
	C39.177475,206.041214 39.225842,209.076782 39.173996,212.557541 
z"/>
<path fill="#2B3A3B" opacity="1.000000" stroke="none" 
	d="
M16.127789,164.418640 
	C17.137632,161.920456 18.058865,159.853180 18.980097,157.785889 
	C18.975565,157.265656 18.971035,156.745438 18.966503,156.225204 
	C25.049423,157.812210 31.132345,159.399216 37.633183,161.299698 
	C38.399277,162.085159 38.747452,162.557159 39.095627,163.029160 
	C39.189491,164.745026 39.283352,166.460907 38.824554,168.589783 
	C35.882732,168.520386 33.513535,167.847946 31.100332,167.594421 
	C25.784063,167.035950 20.006029,164.781281 16.206728,170.988358 
	C16.150877,168.942093 16.095028,166.895828 16.127789,164.418640 
z"/>
<path fill="#29CDA1" opacity="1.000000" stroke="none" 
	d="
M42.612854,241.795746 
	C44.387943,250.892868 43.739948,252.257523 34.189842,254.292984 
	C28.626881,255.478668 22.809692,255.471573 16.655697,256.002869 
	C16.150574,254.284668 16.096642,252.564774 16.542984,250.421448 
	C24.485220,248.279022 31.927185,246.559998 39.369148,244.840973 
	C40.360600,243.873337 41.352043,242.905685 42.612854,241.795746 
z"/>
<path fill="#2B4744" opacity="1.000000" stroke="none" 
	d="
M16.117481,171.347626 
	C20.006029,164.781281 25.784063,167.035950 31.100332,167.594421 
	C33.513535,167.847946 35.882732,168.520386 38.701752,169.005249 
	C39.207649,171.715088 39.283684,174.422485 38.804253,177.566650 
	C36.124828,177.715790 34.004833,177.393936 31.876118,177.147308 
	C26.650513,176.541885 21.420891,175.971146 16.192884,175.386444 
	C16.138000,174.159927 16.083117,172.933395 16.117481,171.347626 
z"/>
<path fill="#2D6B5D" opacity="1.000000" stroke="none" 
	d="
M39.241680,202.572052 
	C31.793837,202.669937 24.458561,202.334213 16.670280,201.998871 
	C16.165981,199.685196 16.114691,197.371155 16.139812,194.700897 
	C23.646955,191.675995 30.919321,194.312241 38.687088,195.004242 
	C39.201015,197.383514 39.277630,199.760986 39.241680,202.572052 
z"/>
<path fill="#673FA5" opacity="1.000000" stroke="none" 
	d="
M594.752075,105.033966 
	C593.281128,103.490334 591.982971,101.866493 590.924622,100.099121 
	C588.633545,96.273369 586.465271,92.374115 584.100769,88.187965 
	C586.383301,85.273521 588.811768,82.676033 591.545288,79.941071 
	C592.687317,82.413895 593.213562,85.181252 594.434509,87.597603 
	C596.250977,91.192604 598.558289,94.539589 601.040283,98.063408 
	C599.293762,100.386017 597.163696,102.637344 594.752075,105.033966 
z"/>
<path fill="#2E514C" opacity="1.000000" stroke="none" 
	d="
M16.115459,175.742767 
	C21.420891,175.971146 26.650513,176.541885 31.876118,177.147308 
	C34.004833,177.393936 36.124828,177.715790 38.689339,178.005463 
	C39.206738,180.056015 39.283592,182.104507 39.241058,184.578339 
	C31.830294,184.694809 24.538916,184.385971 16.730125,184.105225 
	C16.154488,181.455246 16.096262,178.777161 16.115459,175.742767 
z"/>
<path fill="#2A997C" opacity="1.000000" stroke="none" 
	d="
M16.150064,221.613373 
	C23.858221,218.290390 31.017221,221.204910 38.667427,222.995758 
	C39.131104,224.724228 39.192680,226.444412 38.711205,228.583878 
	C30.792078,228.052368 23.435614,227.535965 16.213474,229.994476 
	C16.163498,227.320709 16.113523,224.646942 16.150064,221.613373 
z"/>
<path fill="#2AB28F" opacity="1.000000" stroke="none" 
	d="
M16.216076,242.997894 
	C16.159260,240.952408 16.102446,238.906921 16.543652,236.427460 
	C24.396372,235.667542 31.751072,235.341599 39.105774,235.015671 
	C39.126953,237.711441 39.148132,240.407227 38.795845,243.338760 
	C36.397068,242.722504 34.339714,241.087723 32.352619,241.169083 
	C26.957853,241.389954 21.592867,242.338089 16.216076,242.997894 
z"/>
<path fill="#29C198" opacity="1.000000" stroke="none" 
	d="
M16.133774,243.429291 
	C21.592867,242.338089 26.957853,241.389954 32.352619,241.169083 
	C34.339714,241.087723 36.397068,242.722504 38.715481,243.781921 
	C39.008583,243.989304 39.247047,244.390656 39.308098,244.615814 
	C31.927185,246.559998 24.485220,248.279022 16.626425,249.998871 
	C16.156885,247.953369 16.104179,245.907028 16.133774,243.429291 
z"/>
<path fill="#2AA585" opacity="1.000000" stroke="none" 
	d="
M39.189705,234.591522 
	C31.751072,235.341599 24.396372,235.667542 16.627258,235.996002 
	C16.157307,234.278885 16.101767,232.559250 16.129848,230.417053 
	C23.435614,227.535965 30.792078,228.052368 38.617699,229.005768 
	C39.136040,230.728043 39.204838,232.447693 39.189705,234.591522 
z"/>
<path fill="#2D2D32" opacity="1.000000" stroke="none" 
	d="
M288.343231,184.898743 
	C290.100403,186.312149 292.831116,188.267365 292.526276,189.070724 
	C291.696442,191.257584 289.877167,194.015411 287.899170,194.565201 
	C285.737915,195.165924 282.780609,193.900330 280.515076,192.761963 
	C279.108093,192.055008 278.341644,190.073303 277.062378,188.362411 
	C279.154449,187.457260 280.993927,186.661407 282.916870,185.515991 
	C284.644287,185.082687 286.288208,184.998917 288.343231,184.898743 
z"/>
<path fill="#47474B" opacity="1.000000" stroke="none" 
	d="
M250.410370,99.728653 
	C249.777512,98.807129 249.142914,97.582268 249.137238,96.354485 
	C249.067184,81.243767 249.075333,66.132584 249.120819,51.021690 
	C249.123581,50.100456 249.610504,49.180679 250.217194,48.100098 
	C250.608429,65.101303 250.654648,82.262634 250.410370,99.728653 
z"/>
<path fill="#7F45C8" opacity="1.000000" stroke="none" 
	d="
M680.468628,22.009554 
	C674.847351,21.857952 669.694763,21.702486 664.255493,21.236868 
	C693.391541,20.881964 722.814087,20.836111 752.236694,20.809006 
	C752.514404,20.808750 752.792358,21.058186 754.661865,21.952204 
	C753.297485,22.465754 752.541260,22.750385 751.492615,23.205719 
	C749.373901,22.917339 747.549255,22.066597 745.721069,22.058916 
	C724.126770,21.968184 702.531982,22.003517 680.468628,22.009554 
z"/>
<path fill="#2D2D32" opacity="1.000000" stroke="none" 
	d="
M288.886719,122.461151 
	C289.930695,122.446510 291.714417,122.885277 291.718903,123.341476 
	C291.793640,130.968613 291.663177,138.598343 291.474762,146.224945 
	C291.468262,146.487671 290.386139,146.723816 289.396484,146.986267 
	C288.924561,138.974335 288.861572,130.948502 288.886719,122.461151 
z"/>
<path fill="#7F45C8" opacity="1.000000" stroke="none" 
	d="
M660.489624,39.713814 
	C661.386658,39.141148 662.737610,38.113586 664.116455,38.074562 
	C670.427612,37.895947 676.746582,37.994263 683.531372,37.987408 
	C691.442932,38.107273 698.885864,38.232845 706.317993,38.686974 
	C706.111938,39.048290 705.916748,39.081051 705.721619,39.113811 
	C690.799866,39.313934 675.878052,39.514057 660.489624,39.713814 
z"/>
<path fill="#37304E" opacity="1.000000" stroke="none" 
	d="
M518.043091,129.468491 
	C518.940125,131.089523 520.507629,133.195816 520.446716,135.253922 
	C520.273132,141.117874 519.436401,146.962204 518.488770,152.905167 
	C518.067932,145.307953 518.018921,137.619858 518.043091,129.468491 
z"/>
<path fill="#7E47C6" opacity="1.000000" stroke="none" 
	d="
M637.711182,155.824982 
	C633.436035,157.557068 630.616760,154.849976 627.949219,152.376190 
	C627.523499,151.981400 628.854248,149.692657 629.690796,148.138504 
	C632.583557,150.505096 635.158447,153.012695 637.711182,155.824982 
z"/>
<path fill="#2D2D32" opacity="1.000000" stroke="none" 
	d="
M288.889130,36.457321 
	C293.993866,36.011414 292.246826,40.540771 292.623688,42.703960 
	C293.005707,44.896889 290.816040,47.537815 289.362183,49.991478 
	C288.915009,45.638626 288.858429,41.276817 288.889130,36.457321 
z"/>
<path fill="#7E47C6" opacity="1.000000" stroke="none" 
	d="
M645.937744,163.494568 
	C645.363098,164.467621 644.128113,165.789307 644.035645,165.713745 
	C641.156921,163.359879 637.133484,161.821213 637.609619,156.695908 
	C640.518066,158.604614 643.164062,160.898224 645.937744,163.494568 
z"/>
<path fill="#2D2D32" opacity="1.000000" stroke="none" 
	d="
M288.890564,84.437195 
	C289.977173,84.782974 291.889709,85.686989 291.805115,86.327034 
	C291.549072,88.264175 290.518799,90.098969 289.383026,91.987007 
	C288.918335,89.625153 288.860840,87.249947 288.890564,84.437195 
z"/>
<path fill="#17171C" opacity="1.000000" stroke="none" 
	d="
M39.313240,119.614243 
	C38.974281,116.528206 38.747490,112.989372 38.850998,109.190353 
	C39.262669,112.340591 39.344036,115.751015 39.313240,119.614243 
z"/>
<path fill="#17171C" opacity="1.000000" stroke="none" 
	d="
M39.277264,140.605652 
	C38.957687,137.848267 38.746967,134.641647 38.866173,131.179123 
	C39.259441,134.000946 39.322781,137.078690 39.277264,140.605652 
z"/>
<path fill="#37304E" opacity="1.000000" stroke="none" 
	d="
M518.014526,177.397217 
	C518.957703,177.294159 519.818420,177.588242 521.000366,178.009384 
	C520.548157,179.159363 519.774597,180.182281 518.311035,182.117645 
	C518.127502,180.024734 518.029724,178.909531 518.014526,177.397217 
z"/>
<path fill="#47474B" opacity="1.000000" stroke="none" 
	d="
M250.652374,45.695038 
	C250.235245,44.507183 249.935135,42.953270 249.897583,41.174370 
	C250.363220,42.409248 250.566315,43.869114 250.652374,45.695038 
z"/>
<path fill="#2F2E34" opacity="1.000000" stroke="none" 
	d="
M260.307312,202.834045 
	C261.030914,201.912903 262.063507,200.959885 263.438202,200.001205 
	C262.725616,200.931091 261.670929,201.866638 260.307312,202.834045 
z"/>
<path fill="#17171C" opacity="1.000000" stroke="none" 
	d="
M39.280128,103.637634 
	C38.970325,102.493088 38.766392,100.930481 38.868191,99.151199 
	C39.244617,100.362877 39.315311,101.791222 39.280128,103.637634 
z"/>
<path fill="#2F2E34" opacity="1.000000" stroke="none" 
	d="
M483.594604,119.736938 
	C483.271698,119.435371 482.919006,118.863930 482.785339,118.145363 
	C483.191193,118.487854 483.378021,118.977455 483.594604,119.736938 
z"/>
<path fill="#39383C" opacity="1.000000" stroke="none" 
	d="
M17.003551,22.685207 
	C16.933138,23.306509 16.782087,23.561649 16.365051,23.888958 
	C16.210108,23.062170 16.247829,22.119795 16.646408,21.124466 
	C17.003586,21.501827 16.999908,21.932144 17.003551,22.685207 
z"/>
<path fill="#8247CB" opacity="1.000000" stroke="none" 
	d="
M705.230835,69.772842 
	C705.423645,69.276047 705.879150,68.675232 706.639526,68.026031 
	C706.460754,68.541367 705.977173,69.105103 705.230835,69.772842 
z"/>
<path fill="#8247CB" opacity="1.000000" stroke="none" 
	d="
M721.227905,53.759758 
	C721.415710,53.269356 721.861389,52.671902 722.606689,52.020763 
	C722.432800,52.528954 721.959290,53.090832 721.227905,53.759758 
z"/>
<path fill="#8247CB" opacity="1.000000" stroke="none" 
	d="
M717.259521,57.633461 
	C717.429565,57.181820 717.836121,56.626633 718.519287,56.011948 
	C718.362671,56.478275 717.929382,57.004097 717.259521,57.633461 
z"/>
<path fill="#8247CB" opacity="1.000000" stroke="none" 
	d="
M708.483704,66.259666 
	C708.550842,65.893837 708.891663,65.476707 709.522461,65.004929 
	C709.460754,65.369644 709.109070,65.789009 708.483704,66.259666 
z"/>
<path fill="#2F2E34" opacity="1.000000" stroke="none" 
	d="
M482.093628,115.655197 
	C481.750916,115.474876 481.409149,114.978775 481.063416,114.162476 
	C481.404510,114.341324 481.749512,114.840363 482.093628,115.655197 
z"/>
<path fill="#8247CB" opacity="1.000000" stroke="none" 
	d="
M707.241333,67.817047 
	C707.218628,67.403778 707.460205,66.862617 708.007507,66.256241 
	C708.044006,66.690392 707.774780,67.189766 707.241333,67.817047 
z"/>
<path fill="#8247CB" opacity="1.000000" stroke="none" 
	d="
M711.200012,63.682716 
	C711.199280,63.302700 711.448914,62.796913 711.985840,62.219597 
	C711.998901,62.617691 711.724670,63.087315 711.200012,63.682716 
z"/>
<path fill="#6A48A8" opacity="1.000000" stroke="none" 
	d="
M529.737305,221.353348 
	C529.721741,221.756180 529.452637,222.222610 528.891113,222.674011 
	C528.893738,222.244965 529.188782,221.830948 529.737305,221.353348 
z"/>
<path fill="#7043B2" opacity="1.000000" stroke="none" 
	d="
M540.576111,238.331116 
	C540.660767,237.953568 541.030457,237.512711 541.722107,237.043335 
	C541.649780,237.432465 541.255493,237.850143 540.576111,238.331116 
z"/>
<path fill="#8247CB" opacity="1.000000" stroke="none" 
	d="
M696.451599,78.239380 
	C696.533264,77.882095 696.890930,77.470917 697.540771,77.009094 
	C697.464478,77.367462 697.096008,77.776474 696.451599,78.239380 
z"/>
<path fill="#17171C" opacity="1.000000" stroke="none" 
	d="
M39.205379,162.695023 
	C38.747452,162.557159 38.399277,162.085159 38.018986,161.305603 
	C38.175449,160.996750 38.364033,160.995453 38.835442,160.988632 
	C39.183887,161.442383 39.249508,161.901627 39.205379,162.695023 
z"/>
<path fill="#8247CB" opacity="1.000000" stroke="none" 
	d="
M723.227051,51.782066 
	C723.213257,51.377193 723.460327,50.846874 724.010132,50.256897 
	C724.037903,50.683697 723.762878,51.170158 723.227051,51.782066 
z"/>
<path fill="#884AD0" opacity="1.000000" stroke="none" 
	d="
M705.930542,39.268837 
	C705.916748,39.081051 706.111938,39.048290 706.601074,38.982597 
	C706.917419,39.129429 706.939819,39.309185 706.971130,39.760681 
	C706.699768,39.829571 706.419617,39.626720 705.930542,39.268837 
z"/>
<path fill="#884AD0" opacity="1.000000" stroke="none" 
	d="
M706.867188,40.221687 
	C707.110229,40.221188 707.247620,40.433865 707.385071,40.646545 
	C707.265930,40.714817 707.146851,40.783092 706.815918,40.867584 
	C706.604187,40.883804 706.761658,40.434864 706.867188,40.221687 
z"/>
<path fill="#7644BD" opacity="1.000000" stroke="none" 
	d="
M632.482422,67.214333 
	C632.372803,66.959076 632.537354,66.626358 632.987305,66.226860 
	C633.100708,66.485680 632.928711,66.811272 632.482422,67.214333 
z"/>
<path fill="#7644BD" opacity="1.000000" stroke="none" 
	d="
M630.503784,69.240189 
	C630.393250,68.973991 630.557556,68.640694 631.014832,68.265076 
	C631.131409,68.539528 630.955078,68.856308 630.503784,69.240189 
z"/>
<path fill="#7644BD" opacity="1.000000" stroke="none" 
	d="
M631.507690,68.237122 
	C631.394653,67.973114 631.555908,67.638268 632.008484,67.252525 
	C632.127258,67.523170 631.954651,67.844719 631.507690,68.237122 
z"/>
<path fill="#5A3C8C" opacity="1.000000" stroke="none" 
	d="
M576.646851,94.841515 
	C576.705200,95.049362 576.496033,95.381500 576.003662,95.818222 
	C575.940063,95.603806 576.159729,95.284805 576.646851,94.841515 
z"/>
<path fill="#7E47C6" opacity="1.000000" stroke="none" 
	d="
M652.795410,252.333725 
	C653.004944,252.364731 652.967224,252.816849 652.923157,253.040237 
	C652.697083,253.057297 652.497803,252.862213 652.348938,252.634262 
	C652.321960,252.592957 652.501587,252.416687 652.795410,252.333725 
z"/>
<path fill="#6A48A8" opacity="1.000000" stroke="none" 
	d="
M527.459961,223.747879 
	C527.566528,223.998169 527.413757,224.338867 526.965088,224.723175 
	C526.846375,224.457275 527.023438,224.147766 527.459961,223.747879 
z"/>
<path fill="#4E3C71" opacity="1.000000" stroke="none" 
	d="
M538.851929,69.718674 
	C538.524658,69.869438 538.314941,69.678093 538.085144,69.219978 
	C538.305542,69.161171 538.607056,69.302292 538.851929,69.718674 
z"/>
<path fill="#673FA5" opacity="1.000000" stroke="none" 
	d="
M592.650879,78.821968 
	C592.727844,79.033340 592.540161,79.369370 592.076904,79.816284 
	C591.996277,79.600319 592.191223,79.273468 592.650879,78.821968 
z"/>
<path fill="#8247CB" opacity="1.000000" stroke="none" 
	d="
M699.392212,75.395546 
	C699.334167,75.155800 699.588440,74.736153 700.201660,74.193359 
	C700.275208,74.452019 699.989868,74.833832 699.392212,75.395546 
z"/>
<path fill="#1B1B20" opacity="1.000000" stroke="none" 
	d="
M459.739319,21.052029 
	C459.697296,21.239506 459.429779,21.299873 459.086548,21.203672 
	C459.178497,21.006376 459.346161,20.965647 459.739319,21.052029 
z"/>
<path fill="#1B1B20" opacity="1.000000" stroke="none" 
	d="
M289.691284,20.968090 
	C289.818420,21.265985 289.635559,21.538004 289.221191,21.906380 
	C289.120209,21.649229 289.250732,21.295719 289.691284,20.968090 
z"/>
<path fill="#7644BD" opacity="1.000000" stroke="none" 
	d="
M629.501099,70.237015 
	C629.390320,69.970932 629.554749,69.638153 630.011475,69.261597 
	C630.127930,69.535332 629.952087,69.852829 629.501099,70.237015 
z"/>
<path fill="#8247CB" opacity="1.000000" stroke="none" 
	d="
M713.431519,61.176758 
	C713.334229,60.928745 713.511353,60.608315 713.967041,60.219284 
	C714.065735,60.468571 713.885864,60.786453 713.431519,61.176758 
z"/>
<path fill="#8247CB" opacity="1.000000" stroke="none" 
	d="
M726.457031,48.198235 
	C726.352844,47.941906 726.525208,47.617321 726.980469,47.231270 
	C727.086670,47.489864 726.910156,47.809921 726.457031,48.198235 
z"/>
<path fill="#8247CB" opacity="1.000000" stroke="none" 
	d="
M724.486938,50.212086 
	C724.375122,49.951103 724.538696,49.623077 724.986328,49.236130 
	C725.101013,49.499817 724.931641,49.822430 724.486938,50.212086 
z"/>
<path fill="#8247CB" opacity="1.000000" stroke="none" 
	d="
M727.453491,47.192604 
	C727.349182,46.938740 727.520630,46.614235 727.972534,46.222260 
	C728.078430,46.477180 727.903809,46.799576 727.453491,47.192604 
z"/>
<path fill="#8247CB" opacity="1.000000" stroke="none" 
	d="
M728.434326,46.173569 
	C728.334106,45.927387 728.507324,45.605366 728.955933,45.206226 
	C729.056824,45.451981 728.882263,45.774857 728.434326,46.173569 
z"/>
<path fill="#8247CB" opacity="1.000000" stroke="none" 
	d="
M729.398926,45.133614 
	C729.346375,44.890762 729.587952,44.568874 730.135193,44.177048 
	C730.191589,44.422932 729.942322,44.738754 729.398926,45.133614 
z"/>
<path fill="#8247CB" opacity="1.000000" stroke="none" 
	d="
M715.431213,59.156128 
	C715.380005,58.897823 715.642700,58.567169 716.228760,58.166862 
	C716.283203,58.426067 716.014160,58.754921 715.431213,59.156128 
z"/>
<path fill="#8247CB" opacity="1.000000" stroke="none" 
	d="
M714.432129,60.176262 
	C714.335693,59.928734 714.512939,59.608780 714.968872,59.221516 
	C715.066956,59.470749 714.886353,59.787292 714.432129,60.176262 
z"/>
<path fill="#1E1F24" opacity="1.000000" stroke="none" 
	d="
M166.308228,120.917130 
	C166.126541,120.582344 166.313400,120.351143 166.786194,120.092453 
	C166.861496,120.319824 166.729721,120.638412 166.308228,120.917130 
z"/>
<path fill="#7644BD" opacity="1.000000" stroke="none" 
	d="
M633.424561,66.159454 
	C633.367493,65.908318 633.612000,65.577126 634.169800,65.172096 
	C634.230835,65.425301 633.978516,65.752350 633.424561,66.159454 
z"/>
<path fill="#8247CB" opacity="1.000000" stroke="none" 
	d="
M712.429688,62.175800 
	C712.332703,61.927933 712.510376,61.607513 712.966492,61.218117 
	C713.064819,61.467178 712.884583,61.785210 712.429688,62.175800 
z"/>
<path fill="#7043B2" opacity="1.000000" stroke="none" 
	d="
M536.695312,214.936661 
	C536.753052,215.135666 536.552307,215.439590 536.094177,215.850616 
	C536.036804,215.652344 536.236816,215.346970 536.695312,214.936661 
z"/>
<path fill="#7043B2" opacity="1.000000" stroke="none" 
	d="
M534.723083,216.987701 
	C534.779419,217.171555 534.590698,217.461731 534.164429,217.867142 
	C534.110596,217.686264 534.294312,217.390137 534.723083,216.987701 
z"/>
<path fill="#1E1F24" opacity="1.000000" stroke="none" 
	d="
M167.110748,101.693634 
	C166.803925,101.835930 166.516235,101.655937 166.115417,101.243843 
	C166.378159,101.131607 166.753998,101.251480 167.110748,101.693634 
z"/>
<path fill="#6A48A8" opacity="1.000000" stroke="none" 
	d="
M528.414917,222.718369 
	C528.530579,222.977921 528.389343,223.323303 527.947388,223.698929 
	C527.817078,223.420868 527.987549,223.112534 528.414917,222.718369 
z"/>
<path fill="#8247CB" opacity="1.000000" stroke="none" 
	d="
M725.459961,49.199108 
	C725.355347,48.942692 725.526917,48.617935 725.981445,48.232525 
	C726.088318,48.491505 725.912231,48.811134 725.459961,49.199108 
z"/>
<path fill="#6A48A8" opacity="1.000000" stroke="none" 
	d="
M526.492432,224.768692 
	C526.597473,225.015411 526.438416,225.353989 525.988525,225.751846 
	C525.874573,225.494263 526.051453,225.177399 526.492432,224.768692 
z"/>
<path fill="#6A48A8" opacity="1.000000" stroke="none" 
	d="
M525.550476,225.816345 
	C525.614197,226.061737 525.385132,226.401154 524.844360,226.813599 
	C524.774292,226.561218 525.016052,226.235779 525.550476,225.816345 
z"/>
<path fill="#FEFEFE" opacity="1.000000" stroke="none" 
	d="
M458.000702,40.892769 
	C459.542450,43.727188 461.084198,46.561604 462.883789,50.157372 
	C463.254944,62.605679 463.368256,74.292633 463.481567,85.979591 
	C463.075195,91.088493 462.152679,95.944473 456.505615,99.067825 
	C453.703522,99.572990 451.585297,100.050842 449.466278,100.054451 
	C423.546631,100.098618 397.626801,100.051765 371.707245,100.116455 
	C370.061768,100.120560 368.057312,100.389656 366.845215,101.336266 
	C363.888153,103.645615 359.154022,103.599487 356.733398,100.760246 
	C352.524048,95.823036 346.279266,94.245132 340.644623,96.694992 
	C335.389648,98.979790 332.602234,104.393860 333.305481,111.341431 
	C336.979279,122.634964 348.348145,125.231529 356.218018,116.922150 
	C359.830414,113.107979 364.320526,113.579910 367.234009,117.991219 
	C367.439850,118.302841 368.419678,118.103233 369.474060,118.273270 
	C372.919678,118.328293 375.930786,118.251396 379.402405,118.282990 
	C391.269165,118.329170 402.675446,118.266869 414.471405,118.342690 
	C416.222107,118.377205 417.583099,118.273598 419.377045,118.279282 
	C429.231110,118.320648 438.652252,118.252731 448.457611,118.328613 
	C450.192963,118.394012 451.544037,118.315605 453.141235,118.369469 
	C453.938568,118.590240 454.489838,118.678741 455.293335,118.963806 
	C456.364441,119.395218 457.183319,119.630058 458.002167,119.864914 
	C458.787079,120.513100 459.571960,121.161285 460.784149,122.271240 
	C465.246033,128.686752 463.596466,135.516357 464.180481,142.001801 
	C464.125824,143.070572 464.071198,144.139328 464.095398,145.603180 
	C464.121979,155.423523 463.964264,164.849899 464.064117,174.273560 
	C464.110504,178.652771 462.737518,181.983490 458.042755,184.089325 
	C444.204559,184.163986 431.052063,184.138885 417.899597,184.153137 
	C383.274963,184.190643 348.650360,184.245285 313.629700,184.194244 
	C312.145355,184.097794 311.057068,184.100189 309.790283,183.811127 
	C309.485046,183.330246 309.358337,183.140854 309.351959,182.501038 
	C309.525330,162.075867 309.629944,142.101120 309.618774,122.126434 
	C309.603607,94.999535 309.499908,67.872688 309.434143,40.745823 
	C309.660217,40.672459 309.824890,40.528755 310.433411,40.145264 
	C358.963867,39.962040 406.989105,39.948261 455.250702,40.153812 
	C456.324951,40.546349 457.162811,40.719559 458.000702,40.892769 
z"/>
<path fill="#2D2D32" opacity="1.000000" stroke="none" 
	d="
M450.003662,186.023743 
	C448.154083,187.015884 446.344696,188.762772 444.447693,188.863693 
	C437.808014,189.216888 431.137634,189.049728 424.479950,188.980545 
	C421.752045,188.952209 419.394958,189.754501 420.178925,192.790329 
	C420.680542,194.732849 422.457794,196.975586 424.252808,197.800079 
	C426.665955,198.908524 429.647736,198.779053 432.317993,200.338440 
	C414.439667,200.338440 396.561340,200.338440 378.682983,200.338440 
	C378.617645,199.980072 378.552307,199.621704 378.486969,199.263336 
	C381.699127,198.660004 384.911255,198.056671 388.509369,197.380859 
	C389.435852,193.489380 388.802704,190.125870 383.853790,189.876587 
	C375.937866,189.477829 367.981567,189.244217 360.070709,189.590103 
	C354.122345,189.850174 348.289978,190.684006 343.532654,186.381638 
	C379.290802,186.013504 414.647247,186.018631 450.003662,186.023743 
z"/>
<path fill="#2D2D32" opacity="1.000000" stroke="none" 
	d="
M309.231628,182.951477 
	C309.358337,183.140854 309.485046,183.330246 309.871277,184.159271 
	C311.415680,185.200104 312.700562,185.601334 314.403503,186.001175 
	C316.215393,186.006348 317.609192,186.012909 319.002991,186.019455 
	C317.211884,192.097504 318.246613,197.081711 324.451630,200.535950 
	C316.861938,200.535950 309.272247,200.535950 300.790283,200.535950 
	C302.504395,199.032043 303.626221,198.047806 306.215240,195.776321 
	C303.946869,194.215027 301.215546,193.258682 300.114319,191.357925 
	C298.513428,188.594772 297.278168,185.118088 297.403473,182.006714 
	C297.514587,179.247284 300.325470,178.603729 303.273468,179.450577 
	C304.378571,179.768036 305.916260,178.579712 307.622070,178.395142 
	C308.402161,180.125397 308.816895,181.538437 309.231628,182.951477 
z"/>
<path fill="#1E1F24" opacity="1.000000" stroke="none" 
	d="
M455.014343,39.934483 
	C406.989105,39.948261 358.963867,39.962040 310.470093,39.982342 
	C311.444397,39.322388 312.877808,38.103439 314.331635,38.078526 
	C324.239166,37.908703 334.151031,37.990116 344.946930,37.992538 
	C347.222046,37.990440 348.611694,37.986259 350.001373,37.982079 
	C378.354523,37.985641 406.707703,37.989204 435.529205,37.987118 
	C442.074707,38.210526 448.151825,38.439587 454.613892,39.068375 
	C454.998810,39.468109 455.014343,39.934483 455.014343,39.934483 
z"/>
<path fill="#1E1F24" opacity="1.000000" stroke="none" 
	d="
M319.471313,186.013947 
	C317.609192,186.012909 316.215393,186.006348 314.413239,185.716187 
	C314.011841,185.052750 314.018768,184.672913 314.025726,184.293091 
	C348.650360,184.245285 383.274963,184.190643 417.899597,184.153137 
	C431.052063,184.138885 444.204559,184.163986 457.789062,184.246811 
	C455.779968,184.885361 453.338867,185.448257 450.450745,186.017441 
	C414.647247,186.018631 379.290802,186.013504 343.465363,186.016663 
	C335.310760,186.019440 327.625214,186.013931 319.471313,186.013947 
z"/>
<path fill="#17171C" opacity="1.000000" stroke="none" 
	d="
M309.351959,182.501038 
	C308.816895,181.538437 308.402161,180.125397 307.974396,178.354187 
	C307.970764,134.371719 307.970978,90.747429 308.019989,47.123177 
	C308.022186,45.180744 308.468903,43.238808 309.071350,41.021233 
	C309.499908,67.872688 309.603607,94.999535 309.618774,122.126434 
	C309.629944,142.101120 309.525330,162.075867 309.351959,182.501038 
z"/>
<path fill="#2D2D32" opacity="1.000000" stroke="none" 
	d="
M346.998474,197.998810 
	C350.131714,198.340149 352.817566,198.681473 355.503387,199.022797 
	C355.481903,199.473770 355.460419,199.924759 355.438934,200.375732 
	C349.862305,200.375732 344.285645,200.375732 338.708984,200.375732 
	C338.635376,199.973526 338.561737,199.571320 338.488129,199.169128 
	C341.175812,198.779007 343.863464,198.388901 346.998474,197.998810 
z"/>
<path fill="#2D2D32" opacity="1.000000" stroke="none" 
	d="
M349.931763,37.624477 
	C348.611694,37.986259 347.222046,37.990440 345.415466,37.987988 
	C346.206451,34.929836 347.951721,35.536243 349.931763,37.624477 
z"/>
<path fill="#2D2D32" opacity="1.000000" stroke="none" 
	d="
M291.388794,200.464462 
	C290.941315,200.348892 290.666962,200.066879 290.413818,199.766953 
	C290.407349,199.759293 290.633484,199.555267 290.751129,199.442810 
	C291.022308,199.727097 291.293488,200.011383 291.388794,200.464462 
z"/>
<path fill="#F7F7F7" opacity="1.000000" stroke="none" 
	d="
M191.900848,112.819733 
	C190.629593,107.762146 192.087799,104.427826 195.759857,103.293427 
	C199.074341,102.269485 202.896484,104.262764 204.019440,107.756538 
	C205.352859,111.905144 203.185150,114.980659 199.632080,115.740578 
	C197.392059,116.219650 194.599533,114.115417 191.900848,112.819733 
z"/>
<path fill="#29292F" opacity="1.000000" stroke="none" 
	d="
M418.944092,118.169998 
	C417.583099,118.273598 416.222107,118.377205 414.201172,118.007408 
	C402.532745,117.388962 391.524414,117.228935 380.515472,117.145409 
	C379.993591,117.141449 379.466553,117.815948 378.941925,118.174492 
	C375.930786,118.251396 372.919678,118.328293 369.452209,117.880463 
	C368.296448,114.006851 366.077118,112.793983 362.860046,113.011787 
	C358.238007,113.324730 353.542664,114.311462 349.014954,113.801086 
	C343.759003,113.208641 337.649658,116.576195 333.285309,110.989182 
	C332.602234,104.393860 335.389648,98.979790 340.644623,96.694992 
	C346.279266,94.245132 352.524048,95.823036 356.733398,100.760246 
	C359.154022,103.599487 363.888153,103.645615 366.845215,101.336266 
	C368.057312,100.389656 370.061768,100.120560 371.707245,100.116455 
	C397.626801,100.051765 423.546631,100.098618 449.466278,100.054451 
	C451.585297,100.050842 453.703522,99.572990 456.281860,99.291931 
	C458.462219,101.780983 459.856567,104.621391 461.977203,106.732132 
	C465.466614,110.205322 464.762482,113.004852 461.456879,115.828682 
	C460.597992,116.562431 459.572601,117.101280 457.924042,117.868309 
	C456.452026,117.993889 455.679688,117.980797 454.757141,117.736450 
	C454.036377,117.749207 453.465759,117.993210 452.895142,118.237198 
	C451.544037,118.315605 450.192963,118.394012 448.183777,117.998436 
	C438.848602,117.354378 430.171783,117.151039 421.493805,117.066826 
	C420.647552,117.058617 419.794189,117.784744 418.944092,118.169998 
z"/>
<path fill="#1E1F24" opacity="1.000000" stroke="none" 
	d="
M463.735107,85.966408 
	C463.368256,74.292633 463.254944,62.605679 463.107422,50.449688 
	C463.073242,49.980656 463.521637,50.016647 463.745789,50.030403 
	C464.313293,52.292030 464.926422,54.536709 464.953033,56.788315 
	C465.064362,66.213852 464.999786,75.641472 465.001068,85.537827 
	C464.664490,85.989296 464.326569,85.971260 463.735107,85.966408 
z"/>
<path fill="#2F2E34" opacity="1.000000" stroke="none" 
	d="
M464.558716,141.892731 
	C463.596466,135.516357 465.246033,128.686752 461.071320,122.378952 
	C462.246429,123.718681 464.490143,125.306870 464.697052,127.126648 
	C465.246521,131.958954 464.916931,136.891174 464.558716,141.892731 
z"/>
<path fill="#2F2E34" opacity="1.000000" stroke="none" 
	d="
M454.907318,117.967705 
	C455.679688,117.980797 456.452026,117.993889 457.610535,118.008301 
	C457.998383,118.421852 458.000061,118.834084 458.001953,119.555618 
	C457.183319,119.630058 456.364441,119.395218 455.239990,118.767258 
	C454.934418,118.374138 454.907318,117.967705 454.907318,117.967705 
z"/>
<path fill="#F7F7F7" opacity="1.000000" stroke="none" 
	d="
M525.263550,32.535976 
	C529.245117,31.316891 532.242432,32.524414 534.862854,35.723572 
	C536.115295,40.654350 534.530457,44.379684 530.714233,45.616867 
	C527.171509,46.765404 523.982300,45.806686 522.208557,42.488136 
	C520.117432,38.575962 521.092834,35.161777 525.263550,32.535976 
z"/>
<path fill="#2F2E34" opacity="1.000000" stroke="none" 
	d="
M455.250702,40.153812 
	C455.014343,39.934483 454.998810,39.468109 454.996887,39.234818 
	C455.956360,39.408737 456.917694,39.815952 457.939880,40.557968 
	C457.162811,40.719559 456.324951,40.546349 455.250702,40.153812 
z"/>
<path fill="#2F2E34" opacity="1.000000" stroke="none" 
	d="
M333.305481,111.341431 
	C337.649658,116.576195 343.759003,113.208641 349.014954,113.801086 
	C353.542664,114.311462 358.238007,113.324730 362.860046,113.011787 
	C366.077118,112.793983 368.296448,114.006851 369.017761,117.748543 
	C368.419678,118.103233 367.439850,118.302841 367.234009,117.991219 
	C364.320526,113.579910 359.830414,113.107979 356.218018,116.922150 
	C348.348145,125.231529 336.979279,122.634964 333.305481,111.341431 
z"/>
<path fill="#17171C" opacity="1.000000" stroke="none" 
	d="
M379.402405,118.282974 
	C379.466553,117.815948 379.993591,117.141449 380.515472,117.145409 
	C391.524414,117.228935 402.532745,117.388962 413.811462,117.869286 
	C402.675446,118.266869 391.269165,118.329170 379.402405,118.282974 
z"/>
<path fill="#17171C" opacity="1.000000" stroke="none" 
	d="
M419.377045,118.279282 
	C419.794189,117.784744 420.647552,117.058617 421.493805,117.066826 
	C430.171783,117.151039 438.848602,117.354378 447.799561,117.854637 
	C438.652252,118.252731 429.231110,118.320648 419.377045,118.279282 
z"/>
<path fill="#2F2E34" opacity="1.000000" stroke="none" 
	d="
M313.629700,184.194244 
	C314.018768,184.672913 314.011841,185.052750 313.995148,185.717560 
	C312.700562,185.601334 311.415680,185.200104 310.049805,184.450745 
	C311.057068,184.100189 312.145355,184.097794 313.629700,184.194244 
z"/>
<path fill="#17171C" opacity="1.000000" stroke="none" 
	d="
M454.757141,117.736450 
	C454.907318,117.967705 454.934418,118.374138 454.987762,118.570694 
	C454.489838,118.678741 453.938568,118.590240 453.141235,118.369476 
	C453.465759,117.993210 454.036377,117.749207 454.757141,117.736450 
z"/>
</svg>