<svg version="1.1" id="Layer_1" xmlns="http://www.w3.org/2000/svg" xmlns:xlink="http://www.w3.org/1999/xlink" x="0px" y="0px"
	 width="100%" viewBox="0 0 782 306" enable-background="new 0 0 782 306" xml:space="preserve">
<path fill="#131315" opacity="1.000000" stroke="none" 
	d="
M542.000000,307.000000 
	C361.374695,307.000000 181.249405,307.000000 1.062049,307.000000 
	C1.062049,205.064819 1.062049,103.129585 1.062049,1.097177 
	C261.666656,1.097177 522.333313,1.097177 782.972168,1.097177 
	C782.972168,103.083992 782.972168,205.042007 782.972168,307.000000 
	C702.796204,307.000000 622.648071,307.000000 542.000000,307.000000 
M60.006481,240.005188 
	C60.006481,240.005188 60.014065,240.072266 59.562405,240.219818 
	C59.270634,240.405579 59.117874,240.671280 58.625687,241.258484 
	C58.430660,241.551300 58.235634,241.844116 57.530880,242.346817 
	C57.208401,242.785965 56.885921,243.225113 56.689709,243.721069 
	C56.689709,243.721069 56.650368,243.588333 56.165253,243.802750 
	C55.971214,244.090927 55.777176,244.379105 55.706821,244.708054 
	C55.706821,244.708054 55.651703,244.590042 55.166344,244.806900 
	C54.974422,245.097473 54.782497,245.388062 54.714394,245.720123 
	C54.714394,245.720123 54.662975,245.600098 54.173237,245.822815 
	C53.988628,246.122742 53.804024,246.422653 53.753139,246.758362 
	C53.753139,246.758362 53.708626,246.627274 53.206272,246.829483 
	C53.012211,247.124954 52.818150,247.420410 52.749664,247.751114 
	C52.749664,247.751114 52.702957,247.629333 52.201527,247.829514 
	C52.008804,248.124680 51.816082,248.419846 51.749557,248.750641 
	C51.749557,248.750641 51.703136,248.628021 51.200897,248.825104 
	C51.002983,249.116959 50.805073,249.408813 50.738659,249.736969 
	C50.738659,249.736969 50.688965,249.609924 50.192928,249.807465 
	C49.989300,250.091324 49.785675,250.375183 49.712536,250.707077 
	C49.712536,250.707077 49.644382,250.585892 49.162136,250.801437 
	C48.967945,251.087967 48.773754,251.374512 48.703201,251.703430 
	C48.703201,251.703430 48.645115,251.586349 48.162571,251.801514 
	C47.968643,252.088257 47.774715,252.375015 47.705532,252.705353 
	C47.705532,252.705353 47.645805,252.587479 47.162884,252.801407 
	C46.969330,253.088181 46.775776,253.374954 46.710903,253.709732 
	C46.710903,253.709732 46.645699,253.588867 46.162487,253.801285 
	C45.969418,254.087997 45.776348,254.374710 45.710487,254.694992 
	C45.710487,254.694992 45.647957,254.579224 45.061989,254.868057 
	C44.248020,255.874466 43.434055,256.880859 42.006687,257.668121 
	C41.709087,256.443146 41.411484,255.218155 41.345203,253.096085 
	C41.259609,249.387894 41.174015,245.679703 41.263313,241.498703 
	C41.211323,241.338913 41.159328,241.179123 41.331867,240.279770 
	C41.262245,239.517288 41.192627,238.754822 41.329350,237.081070 
	C41.245327,232.385437 41.161308,227.689819 41.281635,222.078476 
	C41.218346,216.719421 41.155056,211.360367 41.297665,205.104065 
	C41.222931,201.734772 41.148201,198.365494 41.298679,194.084305 
	C41.215717,188.722763 41.132755,183.361237 41.277523,177.089615 
	C41.201431,172.060211 41.125343,167.030823 41.273975,161.095093 
	C41.196796,156.727036 41.119614,152.358994 41.255157,147.120956 
	C41.255157,109.573624 41.255157,72.026291 41.255157,34.727261 
	C42.460617,34.385708 42.774555,34.218929 43.088554,34.218800 
	C101.564522,34.194614 160.040512,34.164913 218.516449,34.198090 
	C223.974121,34.201187 224.996964,35.461674 225.004776,41.190044 
	C225.026611,57.183575 224.961197,73.177582 225.077164,89.170334 
	C225.101700,92.555466 224.971680,95.566780 221.114868,96.726875 
	C217.424942,97.836777 214.149780,98.651810 210.798752,94.995934 
	C203.741623,87.296753 191.244141,87.234413 183.910187,94.299416 
	C176.222321,101.705368 176.012939,114.220787 183.454208,121.555069 
	C190.892960,128.886902 203.431656,128.945465 210.701492,121.017418 
	C213.550598,117.910378 216.348114,116.939651 220.141693,117.244865 
	C221.464951,117.351334 222.811523,117.318558 224.137497,117.218079 
	C239.174408,116.078606 249.613205,105.500923 249.091782,91.708122 
	C248.406219,73.574226 248.906677,55.395916 248.859024,37.236805 
	C248.854706,35.592583 248.759903,33.905701 248.390198,32.312157 
	C245.552063,20.078396 234.758469,12.394717 219.771667,12.381923 
	C154.299042,12.326026 88.826317,12.386641 23.353628,12.419674 
	C21.922171,12.420396 20.490803,12.596808 18.802006,12.708249 
	C18.802006,22.917564 18.784388,32.735508 18.805412,42.553371 
	C18.861412,68.702271 18.934050,94.851128 18.800066,121.857605 
	C18.860695,123.905144 18.921326,125.952690 18.774620,128.881012 
	C18.852385,131.587204 18.930149,134.293381 18.813736,137.882751 
	C18.883942,140.587372 18.954149,143.291977 18.814217,146.903137 
	C18.879129,151.474930 18.944040,156.046707 18.822388,161.469604 
	C18.880478,166.978226 18.938570,172.486847 18.806211,178.912018 
	C18.885302,183.605042 18.964392,188.298065 18.829041,193.904068 
	C18.878557,198.599442 18.928074,203.294815 18.788891,208.907410 
	C18.857033,213.602966 18.925175,218.298523 18.811823,223.909561 
	C18.869333,228.271118 18.926844,232.632675 18.802883,237.913788 
	C18.860043,242.945679 18.917204,247.977570 18.798527,253.930389 
	C18.794769,265.168610 18.749060,276.407196 18.839766,287.644653 
	C18.851248,289.066986 19.578129,290.483551 20.905415,292.038391 
	C26.359591,292.050629 31.818186,292.189056 37.265244,291.998230 
	C38.898643,291.941010 40.921852,291.407135 42.044323,290.335358 
	C47.526276,285.100891 52.763924,279.610565 58.706844,273.930969 
	C63.207005,269.388245 67.696838,264.835236 72.209442,260.304901 
	C81.924049,250.552200 91.664009,240.824646 101.345741,231.039459 
	C102.111641,230.265350 102.506752,229.124390 103.737755,227.997589 
	C105.471001,227.048828 107.204254,226.100067 109.606613,225.405350 
	C112.400459,224.932663 115.194313,224.459961 118.697235,223.928024 
	C120.029099,223.265244 121.430107,222.711945 122.681450,221.921661 
	C130.024139,217.284409 133.367828,208.147659 131.199173,198.824692 
	C129.362198,190.927612 121.840111,184.043808 113.887733,182.982193 
	C104.184967,181.686935 95.915817,185.746704 91.444702,194.193130 
	C91.289368,194.797211 91.134026,195.401276 90.770432,196.185425 
	C90.770432,196.185425 90.868225,196.442780 90.270386,197.018463 
	C89.957558,199.878265 89.774399,202.760208 89.291397,205.590973 
	C88.895836,207.909271 88.143089,210.166611 87.573982,212.479553 
	C87.573982,212.479553 87.563576,212.514023 87.087540,212.771149 
	C86.762749,213.190399 86.437958,213.609665 85.623177,214.229095 
	C85.426620,214.514130 85.230064,214.799164 84.419853,215.343460 
	C78.661278,221.243378 72.902710,227.143295 66.652870,233.262909 
	C66.447548,233.550476 66.242226,233.838028 65.527412,234.312668 
	C65.191895,234.732956 64.856377,235.153229 64.770538,235.935699 
	C64.770538,235.935699 64.558289,235.550369 64.110916,235.773056 
	C63.829086,235.976120 63.639462,236.244354 63.835533,236.666611 
	C63.835533,236.666611 63.565914,236.520538 63.083447,236.773911 
	C62.752338,237.191711 62.421230,237.609512 61.598194,238.222702 
	C61.403412,238.508835 61.208630,238.794983 60.559181,239.223907 
	C60.270496,239.408737 60.108624,239.671661 60.006481,240.005188 
M737.441772,38.792717 
	C737.720825,38.594086 737.881897,38.324863 737.990845,37.995075 
	C737.990845,37.995075 737.972961,37.930897 738.549194,37.645466 
	C740.020935,36.093166 741.492676,34.540871 743.446899,32.810349 
	C743.628784,32.528992 743.810669,32.247631 744.455078,31.799595 
	C744.745972,31.606924 744.921204,31.338724 745.000000,31.001928 
	C745.000000,31.001928 744.992493,30.983356 745.601074,30.712925 
	C752.019165,24.386776 758.437317,18.060627 765.542480,11.057263 
	C743.149292,11.057263 722.086914,11.057263 700.108765,10.884645 
	C696.075317,10.930255 692.041931,10.975864 687.081726,10.857897 
	C680.055237,10.914844 673.028748,10.971790 665.137939,10.867529 
	C663.091980,10.912271 661.045959,10.957013 658.489258,10.975783 
	C658.348511,11.071879 658.207764,11.167975 657.473145,11.482930 
	C655.990601,13.011758 654.508057,14.540585 652.424316,16.343960 
	C644.966858,23.932100 637.509460,31.520243 629.467346,39.400196 
	C627.251709,41.710026 625.036072,44.019859 622.185852,46.649235 
	C619.814087,49.110287 617.442322,51.571339 614.504639,54.334614 
	C612.928528,55.988369 611.352356,57.642124 609.180725,59.610180 
	C607.721313,61.173054 606.261841,62.735924 604.181763,64.626816 
	C602.463989,66.421623 600.746155,68.216438 598.454407,70.288727 
	C597.311707,71.530411 596.169006,72.772095 594.435913,74.280617 
	C592.852905,75.943199 591.269897,77.605789 589.106079,79.629303 
	C587.310730,81.499840 585.515381,83.370384 583.123779,85.610352 
	C581.083618,87.727959 579.043518,89.845566 576.389404,92.235466 
	C573.260864,95.490753 570.132324,98.746040 566.408020,102.289757 
	C564.163208,104.603546 561.918396,106.917336 559.080688,109.597038 
	C557.027100,111.719910 554.973511,113.842781 552.405090,116.080116 
	C552.249939,116.379929 552.094788,116.679733 551.472229,117.164787 
	C551.315552,117.449425 551.158875,117.734055 550.390198,118.279053 
	C547.945007,120.561981 545.499817,122.844910 542.780579,124.651329 
	C542.494202,124.429504 542.207764,124.207680 541.663696,123.081177 
	C541.663696,101.992355 541.663696,80.903534 541.663696,59.727066 
	C533.715149,59.727066 526.497437,59.727066 519.356445,59.727066 
	C519.356445,100.631416 519.356445,141.102539 519.356445,181.031509 
	C534.496216,166.158890 549.694580,151.228775 565.435913,136.023956 
	C567.205505,134.094772 568.975037,132.165588 571.285461,129.957458 
	C572.869019,128.309952 574.452515,126.662453 576.657654,124.769638 
	C579.368530,121.946350 582.079407,119.123055 585.315491,116.024391 
	C586.548401,114.693260 587.781372,113.362122 589.629272,111.767876 
	C592.437317,108.881523 595.245361,105.995171 598.666870,102.825958 
	C600.721558,100.652603 602.776184,98.479240 605.380432,95.998924 
	C606.536743,94.781342 607.693115,93.563759 609.386780,92.044373 
	C611.551880,89.816566 613.716980,87.588760 616.409546,85.051216 
	C617.833069,83.441132 619.256592,81.831047 621.222839,80.105896 
	C621.826355,79.429893 622.429871,78.753891 623.647278,77.809944 
	C626.116089,75.244156 628.584961,72.678368 631.650208,69.841583 
	C633.106873,68.244148 634.563538,66.646706 636.623840,64.761208 
	C639.779968,61.506210 642.936157,58.251213 646.669739,54.683933 
	C650.507019,50.482548 654.344238,46.281162 658.788025,41.795044 
	C665.898865,32.233910 676.107910,32.159580 686.529846,32.729122 
	C686.688721,32.737804 686.852051,32.665699 687.826843,32.780735 
	C690.902466,32.770199 693.978027,32.759663 697.957764,32.925098 
	C701.981018,32.884335 706.004333,32.843571 710.117493,32.980255 
	C710.117493,32.980255 710.313354,32.945351 710.293152,33.454018 
	C710.282776,33.623394 710.272461,33.792767 709.744934,34.333660 
	C708.769409,35.432915 707.793884,36.532169 706.225281,37.968765 
	C703.759766,40.500179 701.294250,43.031593 698.232300,45.911663 
	C693.709229,50.551525 689.186218,55.191391 684.092041,60.146614 
	C679.009583,65.286636 673.927124,70.426659 668.261475,75.946678 
	C664.797913,79.515060 661.334290,83.083435 657.270996,86.986870 
	C636.843567,107.456253 616.416138,127.925644 595.795166,148.588974 
	C597.483459,150.418518 598.885681,152.047699 600.401306,153.563492 
	C613.939026,167.102997 627.457153,180.662537 641.069580,194.126663 
	C646.015442,199.018600 651.200378,203.668793 656.486755,209.067535 
	C662.942505,215.501144 669.398254,221.934769 676.168091,228.934616 
	C681.527832,234.126053 686.887512,239.317490 692.351013,244.663574 
	C692.351013,244.663574 692.499817,244.775528 692.678528,245.351273 
	C696.718018,249.306030 700.757446,253.260788 704.863770,257.151215 
	C704.863770,257.151215 704.776855,257.118805 704.957642,257.679871 
	C705.264526,257.916534 705.571411,258.153198 706.188843,258.952332 
	C708.995483,261.699951 711.802185,264.447571 714.923035,267.938843 
	C715.004944,268.460358 715.086853,268.981903 714.220642,269.375732 
	C704.497681,269.478699 694.774780,269.581665 684.145081,269.404877 
	C678.415771,269.479858 672.686462,269.554840 666.148071,269.397217 
	C664.480286,269.471344 662.812500,269.545471 660.741333,269.534210 
	C660.846436,269.958618 660.951538,270.383026 661.308594,271.070679 
	C661.308594,271.070679 661.659119,271.169952 662.011353,271.754547 
	C666.510742,276.249023 671.010132,280.743500 675.856323,285.831268 
	C677.852356,287.660645 679.848389,289.490021 682.506592,291.862518 
	C696.370667,291.825653 710.234680,291.788788 724.901123,291.903076 
	C733.268982,291.882904 741.636902,291.862732 750.930481,291.992767 
	C757.175232,291.992767 763.419983,291.992767 766.904968,291.992767 
	C760.668518,284.790924 753.352783,276.342651 745.769470,267.288574 
	C740.558716,262.014893 735.348022,256.741241 729.662415,251.054016 
	C724.813721,246.350250 719.965027,241.646484 714.921021,236.295609 
	C709.996338,231.340347 705.071716,226.385086 699.870850,220.869278 
	C695.649292,216.728012 691.427795,212.586746 686.929077,207.890656 
	C679.985046,201.152313 673.041016,194.413971 665.805115,187.104568 
	C661.608643,183.178391 657.412231,179.252213 653.225708,174.672379 
	C644.550720,166.261932 635.875732,157.851501 625.921997,148.201279 
	C636.328735,138.412949 645.763245,129.539093 655.842163,120.353302 
	C659.229553,116.901672 662.617004,113.450043 666.604126,109.710556 
	C672.122742,103.833847 677.641296,97.957138 683.756714,91.785667 
	C686.223022,89.216522 688.689331,86.647377 691.748047,83.782646 
	C694.550476,80.882507 697.352966,77.982368 700.758423,74.798264 
	C705.554932,69.889343 710.351501,64.980423 715.746155,59.790955 
	C719.848206,55.765415 723.950317,51.739876 728.479675,47.682411 
	C728.738647,47.518970 728.891113,47.285892 728.995117,47.001411 
	C728.995117,47.001411 728.984924,46.941544 729.454041,46.795639 
	C729.753174,46.610992 729.929321,46.344891 730.002441,46.002289 
	C730.002441,46.002289 729.997375,45.982544 730.466309,45.814751 
	C730.761353,45.621006 730.941345,45.350624 731.000000,45.000000 
	C731.000000,45.000000 731.004639,45.005302 731.578979,44.767082 
	C732.402588,43.850292 733.226196,42.933506 734.590698,41.808460 
	C735.062744,41.214661 735.534851,40.620857 736.468628,39.831852 
	C736.638672,39.553833 736.808655,39.275814 737.003357,39.002041 
	C737.003357,39.002041 736.996765,38.977627 737.441772,38.792717 
M324.937469,267.319946 
	C320.916138,267.443298 316.894836,267.566650 312.097382,267.415527 
	C310.739105,267.494690 309.380829,267.573853 307.249969,267.363983 
	C294.254181,267.362610 281.257599,267.430481 268.263550,267.278870 
	C266.488281,267.258179 264.278107,266.625427 263.024261,265.462219 
	C242.898712,246.791290 222.832306,228.055359 202.880676,209.198532 
	C175.914383,183.712006 149.039093,158.129059 122.173828,132.535965 
	C118.065269,128.621948 114.220306,124.431229 109.759903,119.863037 
	C128.972778,119.863037 147.554779,119.863037 166.407761,119.863037 
	C166.407761,112.407585 166.407761,105.332329 166.407761,98.146439 
	C131.053391,98.146439 95.964767,98.146439 59.439476,98.146439 
	C60.914196,101.716782 61.371773,105.295547 63.391598,107.300369 
	C73.899261,117.729919 84.803177,127.760345 95.572174,137.926514 
	C126.561974,167.181534 157.565811,196.421677 188.539597,225.693634 
	C209.833130,245.817230 231.072968,265.997681 252.392654,286.093445 
	C253.513229,287.149719 255.153442,288.307068 256.556183,288.312744 
	C274.371826,288.384491 292.188263,288.253662 310.860718,288.447357 
	C313.247314,288.371521 315.633911,288.295715 318.767059,288.513275 
	C321.834625,288.409729 324.902191,288.306183 328.801605,288.467773 
	C330.537842,288.389740 332.274078,288.311676 334.842133,288.507568 
	C336.575226,288.403259 338.308319,288.298950 340.501587,288.379272 
	C340.501587,288.379272 340.951355,288.170624 341.789948,288.480347 
	C344.156036,288.405579 346.522095,288.330811 349.791779,288.572113 
	C360.885651,288.445129 371.979523,288.318176 383.945648,288.397858 
	C386.628723,288.297974 389.311829,288.198090 392.741455,288.290527 
	C393.502655,288.217285 394.263885,288.144043 395.823883,288.305023 
	C397.202393,288.247253 398.580933,288.189484 400.712158,288.441284 
	C406.168152,288.364990 411.624115,288.288727 417.963776,288.396667 
	C420.980896,288.321320 423.998016,288.245972 427.933594,288.359131 
	C433.296967,288.293457 438.660309,288.227814 444.938843,288.340881 
	C449.633301,288.283020 454.327759,288.225128 459.896484,288.330475 
	C465.271637,288.275848 470.646759,288.221222 476.947754,288.313110 
	C484.819031,288.263947 492.690308,288.214752 500.593567,288.329193 
	C500.593567,288.329193 500.423248,288.164551 501.187897,288.100800 
	C501.565338,287.771759 501.942810,287.442749 502.887726,286.798492 
	C511.305267,278.404449 519.722839,270.010437 528.792847,261.305206 
	C531.379700,258.555573 533.869934,255.706650 536.572937,253.076416 
	C542.696899,247.117447 548.925659,241.266220 555.703491,235.008896 
	C561.163452,229.685532 566.623474,224.362183 572.988770,219.061737 
	C582.908020,220.276932 590.968872,217.025894 595.635681,208.074402 
	C599.822937,200.042923 598.884033,191.943588 593.170471,184.684525 
	C587.886963,177.971771 578.434021,175.328003 569.698853,178.019287 
	C562.141052,180.347839 556.359863,187.215866 555.260437,195.194733 
	C556.563354,202.152649 552.784180,206.659683 547.865173,210.654556 
	C547.113770,211.264786 546.577454,212.139862 545.340881,213.191391 
	C539.515137,219.009140 533.689392,224.826889 527.233337,230.919205 
	C515.139587,242.897812 503.045807,254.876419 490.412170,267.000916 
	C489.933655,267.279846 489.455139,267.558777 488.074677,267.718201 
	C482.693085,267.728577 477.311523,267.738953 471.042603,267.470520 
	C464.437042,267.478546 457.831512,267.486542 450.295013,267.193176 
	C441.109741,267.272736 431.924438,267.352264 421.866150,267.409943 
	C418.919678,267.499817 415.973175,267.589691 412.353638,267.441071 
	C411.890991,267.519226 411.428375,267.597412 410.145264,267.433746 
	C408.149078,267.431763 406.152863,267.429779 403.228912,267.166016 
	C392.468262,267.181671 381.707642,267.197327 370.021790,267.111359 
	C359.671265,267.138184 349.320709,267.165039 338.048340,267.085327 
	C333.976227,267.182800 329.904144,267.280273 324.937469,267.319946 
M288.086273,192.196732 
	C285.255127,192.202713 282.421417,192.134232 279.593414,192.231781 
	C275.136841,192.385513 271.490967,192.391785 268.221100,187.713486 
	C264.030121,181.717346 255.410507,181.436066 248.824799,185.487579 
	C242.302124,189.500320 239.726181,196.197479 242.130112,202.893204 
	C246.168350,214.141052 260.378021,217.273132 269.026276,208.877563 
	C270.238190,207.701080 271.756500,206.125122 273.210114,206.039261 
	C278.827545,205.707443 284.476196,205.904480 290.228851,205.904480 
	C290.476624,207.983871 290.688934,209.765533 290.938965,211.863922 
	C306.358429,211.863922 321.646606,211.862549 336.934784,211.864182 
	C379.904388,211.868790 422.875885,212.105713 465.842590,211.755264 
	C480.980286,211.631805 487.021301,207.007858 486.956848,191.395432 
	C486.873016,171.076874 486.892639,150.757385 486.983032,130.438828 
	C487.023987,121.232407 486.179352,112.462547 477.582886,106.713333 
	C484.290192,100.610756 486.408020,93.015671 486.563934,84.871849 
	C486.834869,70.719841 486.777496,56.560287 486.748901,42.404121 
	C486.710144,23.214739 475.874756,12.399661 456.775726,12.382203 
	C435.124634,12.362412 413.473572,12.373845 391.822479,12.353834 
	C358.351105,12.322899 324.879700,12.276793 290.590790,12.238904 
	C290.121796,13.865868 289.244843,15.492315 289.242798,17.119867 
	C289.171936,73.061996 289.173553,129.004257 289.232971,184.946411 
	C289.234772,186.655365 289.961823,188.363556 290.472443,190.600769 
	C290.422974,190.774704 290.373535,190.948624 289.796326,191.298889 
	C289.537354,191.562134 289.278381,191.825378 288.086273,192.196732 
M527.326111,48.414001 
	C530.278748,48.418606 533.339722,48.935020 536.164795,48.337078 
	C547.000671,46.043629 553.301147,35.281330 550.266235,24.777174 
	C547.236450,14.290895 535.670532,8.621596 525.289246,12.534092 
	C517.946350,15.301482 513.251831,22.110310 513.102051,30.210201 
	C512.939575,38.995991 516.943420,44.408627 527.326111,48.414001 
z"/>
<path fill="#F4F5F7" opacity="1.000000" stroke="none" 
	d="
M291.408325,12.237122 
	C324.879700,12.276793 358.351105,12.322899 391.822479,12.353834 
	C413.473572,12.373845 435.124634,12.362412 456.775726,12.382203 
	C475.874756,12.399661 486.710144,23.214739 486.748901,42.404121 
	C486.777496,56.560287 486.834869,70.719841 486.563934,84.871849 
	C486.408020,93.015671 484.290192,100.610756 477.582886,106.713333 
	C486.179352,112.462547 487.023987,121.232407 486.983032,130.438828 
	C486.892639,150.757385 486.873016,171.076874 486.956848,191.395432 
	C487.021301,207.007858 480.980286,211.631805 465.842590,211.755264 
	C422.875885,212.105713 379.904388,211.868790 336.934784,211.864182 
	C321.646606,211.862549 306.358429,211.863922 290.938965,211.863922 
	C290.688934,209.765533 290.476624,207.983871 290.228851,205.904480 
	C284.476196,205.904480 278.827545,205.707443 273.210114,206.039261 
	C271.756500,206.125122 270.238190,207.701080 269.026276,208.877563 
	C260.378021,217.273132 246.168350,214.141052 242.130112,202.893204 
	C239.726181,196.197479 242.302124,189.500320 248.824799,185.487579 
	C255.410507,181.436066 264.030121,181.717346 268.221100,187.713486 
	C271.490967,192.391785 275.136841,192.385513 279.593414,192.231781 
	C282.421417,192.134232 285.255127,192.202713 288.895172,192.201935 
	C289.910736,191.845612 290.117401,191.484085 290.324066,191.122559 
	C290.373535,190.948624 290.422974,190.774704 290.580292,189.959290 
	C290.727661,133.085617 290.758636,76.853394 290.832001,20.621218 
	C290.835663,17.826275 291.207794,15.031810 291.408325,12.237122 
M446.333801,117.361992 
	C445.899384,117.452499 445.464966,117.543015 444.174683,117.355080 
	C422.019379,117.351982 399.864075,117.361237 377.708862,117.320427 
	C376.079285,117.317429 374.067719,117.495529 372.887451,116.662842 
	C367.784668,113.062805 365.787292,113.033592 361.764832,117.266846 
	C357.517609,121.736633 350.961517,123.116219 345.316467,120.728081 
	C339.403015,118.226387 336.374115,113.491920 336.546265,107.019348 
	C336.713043,100.747299 340.286316,95.632797 345.904510,93.624603 
	C351.913635,91.476662 358.814117,93.023842 362.581512,98.066841 
	C365.372528,101.802940 370.063904,101.555832 371.560944,99.673958 
	C373.674957,97.016502 375.687286,97.402420 377.883118,97.396469 
	C402.370270,97.330101 426.857758,97.364067 451.345123,97.404083 
	C457.982513,97.414925 462.883636,93.372513 462.957581,87.092796 
	C463.126221,72.768257 463.111877,58.439358 462.964935,44.114353 
	C462.903503,38.128109 460.894592,35.720451 454.950439,34.666573 
	C451.405365,34.038040 447.690613,34.366428 443.128113,34.059151 
	C424.173065,34.062458 405.217957,34.037121 386.263000,34.076664 
	C364.822113,34.121391 343.381409,34.224350 321.087006,34.181545 
	C319.078949,34.232616 317.070923,34.283684 314.418976,34.152195 
	C314.040314,34.786930 313.661652,35.421669 313.163666,36.979603 
	C313.183502,87.637695 313.203308,138.295792 313.143433,189.763794 
	C315.019592,190.095612 316.895386,190.714569 318.772003,190.717224 
	C364.255310,190.781479 409.738770,190.787537 455.222137,190.759186 
	C456.819733,190.758194 458.417084,190.297363 460.760651,189.939728 
	C461.794006,187.727661 463.688477,185.529175 463.723633,183.301346 
	C463.991028,166.371429 463.909607,149.435791 463.906647,132.501923 
	C463.904633,121.158424 458.310516,116.248833 446.333801,117.361992 
z"/>
<path fill="#F4F4F7" opacity="1.000000" stroke="none" 
	d="
M19.000072,121.000000 
	C18.934050,94.851128 18.861412,68.702271 18.805412,42.553371 
	C18.784388,32.735508 18.802006,22.917564 18.802006,12.708249 
	C20.490803,12.596808 21.922171,12.420396 23.353628,12.419674 
	C88.826317,12.386641 154.299042,12.326026 219.771667,12.381923 
	C234.758469,12.394717 245.552063,20.078396 248.390198,32.312157 
	C248.759903,33.905701 248.854706,35.592583 248.859024,37.236805 
	C248.906677,55.395916 248.406219,73.574226 249.091782,91.708122 
	C249.613205,105.500923 239.174408,116.078606 224.137497,117.218079 
	C222.811523,117.318558 221.464951,117.351334 220.141693,117.244865 
	C216.348114,116.939651 213.550598,117.910378 210.701492,121.017418 
	C203.431656,128.945465 190.892960,128.886902 183.454208,121.555069 
	C176.012939,114.220787 176.222321,101.705368 183.910187,94.299416 
	C191.244141,87.234413 203.741623,87.296753 210.798752,94.995934 
	C214.149780,98.651810 217.424942,97.836777 221.114868,96.726875 
	C224.971680,95.566780 225.101700,92.555466 225.077164,89.170334 
	C224.961197,73.177582 225.026611,57.183575 225.004776,41.190044 
	C224.996964,35.461674 223.974121,34.201187 218.516449,34.198090 
	C160.040512,34.164913 101.564522,34.194614 43.088554,34.218800 
	C42.774555,34.218929 42.460617,34.385708 41.255157,34.727261 
	C41.255157,72.026291 41.255157,109.573624 40.931366,147.440445 
	C40.324715,147.570572 40.123169,147.316650 40.007935,146.544434 
	C40.006161,143.062317 39.999393,140.033920 39.996895,136.555267 
	C39.998234,133.405701 39.995312,130.706390 39.994904,127.561806 
	C40.932156,122.020111 38.722084,120.477432 33.771057,120.907288 
	C28.881567,121.331779 23.926416,121.000000 19.000072,121.000000 
M198.927917,114.779396 
	C202.791840,113.078735 205.363632,110.493355 204.015579,105.944473 
	C202.855560,102.030067 199.755493,100.470001 195.912125,101.029465 
	C191.937103,101.608093 189.872284,104.335571 189.919067,108.306908 
	C189.965759,112.270363 193.090378,114.641014 198.927917,114.779396 
z"/>
<path fill="#F5F5F8" opacity="1.000000" stroke="none" 
	d="
M310.004517,288.174438 
	C292.188263,288.253662 274.371826,288.384491 256.556183,288.312744 
	C255.153442,288.307068 253.513229,287.149719 252.392654,286.093445 
	C231.072968,265.997681 209.833130,245.817230 188.539597,225.693634 
	C157.565811,196.421677 126.561974,167.181534 95.572174,137.926514 
	C84.803177,127.760345 73.899261,117.729919 63.391598,107.300369 
	C61.371773,105.295547 60.914196,101.716782 59.439476,98.146439 
	C95.964767,98.146439 131.053391,98.146439 166.407761,98.146439 
	C166.407761,105.332329 166.407761,112.407585 166.407761,119.863037 
	C147.554779,119.863037 128.972778,119.863037 109.759903,119.863037 
	C114.220306,124.431229 118.065269,128.621948 122.173828,132.535965 
	C149.039093,158.129059 175.914383,183.712006 202.880676,209.198532 
	C222.832306,228.055359 242.898712,246.791290 263.024261,265.462219 
	C264.278107,266.625427 266.488281,267.258179 268.263550,267.278870 
	C281.257599,267.430481 294.254181,267.362610 307.638184,267.943756 
	C308.685791,275.073822 309.345154,281.624146 310.004517,288.174438 
z"/>
<path fill="#F3F3F6" opacity="1.000000" stroke="none" 
	d="
M543.054565,125.127838 
	C545.499817,122.844910 547.945007,120.561981 550.696289,118.523148 
	C553.959656,125.936462 556.935547,133.091019 564.892883,136.298676 
	C549.694580,151.228775 534.496216,166.158890 519.356445,181.031509 
	C519.356445,141.102539 519.356445,100.631416 519.356445,59.727066 
	C526.497437,59.727066 533.715149,59.727066 541.663696,59.727066 
	C541.663696,80.903534 541.663696,101.992355 541.686646,123.854599 
	C541.845581,125.037140 541.981567,125.446251 542.117554,125.855362 
	C542.429871,125.612846 542.742249,125.370331 543.054565,125.127838 
z"/>
<path fill="#6E47B6" opacity="1.000000" stroke="none" 
	d="
M655.197754,120.665222 
	C645.763245,129.539093 636.328735,138.412949 625.921997,148.201279 
	C635.875732,157.851501 644.550720,166.261932 653.157349,175.452698 
	C652.766663,177.845123 652.898743,179.765762 652.047791,181.018875 
	C646.832581,188.698807 650.192078,195.030548 654.809326,201.302963 
	C655.780762,202.622574 656.686279,204.089905 657.164795,205.631180 
	C657.402832,206.398010 656.605286,207.486359 656.276245,208.429260 
	C651.200378,203.668793 646.015442,199.018600 641.069580,194.126663 
	C627.457153,180.662537 613.939026,167.102997 600.401306,153.563492 
	C598.885681,152.047699 597.483459,150.418518 595.795166,148.588974 
	C616.416138,127.925644 636.843567,107.456253 657.608093,87.308823 
	C657.373718,93.682716 656.755188,99.730705 656.245605,105.787857 
	C655.828918,110.741295 655.542114,115.705666 655.197754,120.665222 
z"/>
<path fill="#74EACB" opacity="1.000000" stroke="none" 
	d="
M58.040607,242.136917 
	C58.235634,241.844116 58.430660,241.551300 59.058239,241.024200 
	C59.731167,240.598801 59.905590,240.359573 60.014065,240.072266 
	C60.014065,240.072266 60.006481,240.005188 60.238373,239.899963 
	C60.717861,239.607452 60.899055,239.369583 61.013847,239.081131 
	C61.208630,238.794983 61.403412,238.508835 62.148796,238.071350 
	C62.988235,237.453506 63.277077,236.987015 63.565918,236.520538 
	C63.565914,236.520538 63.835533,236.666611 63.988911,236.618149 
	C64.280952,236.229919 64.419617,235.890137 64.558289,235.550369 
	C64.558289,235.550369 64.770538,235.935699 64.953850,235.766724 
	C65.437080,235.107025 65.736992,234.616318 66.036903,234.125595 
	C66.242226,233.838028 66.447548,233.550476 67.224335,233.215424 
	C68.603928,235.718842 64.438324,243.084167 61.742947,245.051849 
	C60.119125,246.237259 59.238308,248.429169 57.991352,250.145340 
	C56.775593,251.818604 55.513252,253.457947 54.282299,255.120285 
	C53.680813,255.932571 53.104195,256.763275 52.516319,257.585632 
	C53.611820,257.644348 54.718098,257.827118 55.800312,257.733063 
	C57.472279,257.587708 59.127785,257.253052 60.790268,256.998688 
	C61.026096,258.670288 61.733391,260.441162 61.406479,261.994324 
	C60.538803,266.116638 59.224575,270.145020 58.087982,274.210754 
	C52.763924,279.610565 47.526276,285.100891 42.044323,290.335358 
	C40.921852,291.407135 38.898643,291.941010 37.265244,291.998230 
	C31.818186,292.189056 26.359591,292.050629 20.447021,291.508270 
	C19.998606,278.984894 20.008583,266.991638 20.428741,255.010590 
	C27.597242,254.679581 34.355564,254.336380 41.113884,253.993179 
	C41.411484,255.218155 41.709087,256.443146 42.651783,257.698669 
	C44.080574,256.679230 44.864265,255.629227 45.647957,254.579224 
	C45.647957,254.579224 45.710487,254.694992 45.942886,254.646759 
	C46.332085,254.261978 46.488892,253.925430 46.645699,253.588867 
	C46.645699,253.588867 46.710903,253.709732 46.942902,253.654068 
	C47.331867,253.261429 47.488834,252.924454 47.645802,252.587479 
	C47.645805,252.587479 47.705532,252.705353 47.939857,252.651917 
	C48.331154,252.261093 48.488132,251.923721 48.645111,251.586349 
	C48.645115,251.586349 48.703201,251.703430 48.938286,251.650909 
	C49.330379,251.260895 49.487381,250.923401 49.644382,250.585892 
	C49.644382,250.585892 49.712536,250.707077 49.943680,250.655029 
	C50.346207,250.271973 50.517586,249.940948 50.688965,249.609924 
	C50.688965,249.609924 50.738659,249.736969 50.965126,249.677368 
	C51.362106,249.287857 51.532623,248.957947 51.703140,248.628021 
	C51.703136,248.628021 51.749557,248.750641 51.976131,248.685638 
	C52.369457,248.290207 52.536205,247.959778 52.702957,247.629333 
	C52.702957,247.629333 52.749664,247.751114 52.977058,247.685760 
	C53.372505,247.289368 53.540565,246.958313 53.708626,246.627274 
	C53.708626,246.627274 53.753139,246.758362 53.977646,246.687744 
	C54.355766,246.278122 54.509373,245.939117 54.662979,245.600098 
	C54.662975,245.600098 54.714394,245.720123 54.948524,245.662598 
	C55.339005,245.266724 55.495358,244.928391 55.651707,244.590042 
	C55.651703,244.590042 55.706821,244.708054 55.942226,244.655289 
	C56.335209,244.264465 56.492790,243.926392 56.650368,243.588333 
	C56.650368,243.588333 56.689709,243.721069 56.931614,243.674133 
	C57.462547,243.130447 57.751575,242.633682 58.040607,242.136917 
z"/>
<path fill="#7B43CE" opacity="1.000000" stroke="none" 
	d="
M555.817017,194.510803 
	C556.359863,187.215866 562.141052,180.347839 569.698853,178.019287 
	C578.434021,175.328003 587.886963,177.971771 593.170471,184.684525 
	C598.884033,191.943588 599.822937,200.042923 595.635681,208.074402 
	C590.968872,217.025894 582.908020,220.276932 572.186523,218.993713 
	C570.627747,218.350281 569.642944,217.924500 569.151611,217.175186 
	C565.926086,212.256683 562.870789,207.226242 559.626648,202.320480 
	C558.003845,199.866501 555.051819,198.114502 555.817017,194.510803 
z"/>
<path fill="#72E7C6" opacity="1.000000" stroke="none" 
	d="
M108.937508,225.151306 
	C107.204254,226.100067 105.471001,227.048828 103.246811,227.710602 
	C100.977791,223.298203 99.035439,219.232742 97.498230,215.019470 
	C96.834045,213.199081 97.018341,211.072006 96.796799,209.086533 
	C96.481743,206.263153 98.880966,202.127396 94.310410,201.241943 
	C90.973938,200.595566 90.927528,198.810974 90.868225,196.442780 
	C90.868225,196.442780 90.770432,196.185425 91.124161,195.893570 
	C91.624527,194.990616 91.771172,194.379517 91.917816,193.768417 
	C95.915817,185.746704 104.184967,181.686935 113.887733,182.982193 
	C121.840111,184.043808 129.362198,190.927612 131.199173,198.824692 
	C133.367828,208.147659 130.024139,217.284409 122.681450,221.921661 
	C121.430107,222.711945 120.029099,223.265244 118.093872,223.696625 
	C114.639511,224.027252 111.788506,224.589279 108.937508,225.151306 
z"/>
<path fill="#77E7C8" opacity="1.000000" stroke="none" 
	d="
M90.569305,196.730621 
	C90.927528,198.810974 90.973938,200.595566 94.310410,201.241943 
	C98.880966,202.127396 96.481743,206.263153 96.796799,209.086533 
	C97.018341,211.072006 96.834045,213.199081 97.498230,215.019470 
	C99.035439,219.232742 100.977791,223.298203 102.915024,227.788757 
	C102.506752,229.124390 102.111641,230.265350 101.345741,231.039459 
	C91.664009,240.824646 81.924049,250.552200 72.209442,260.304901 
	C67.696838,264.835236 63.207005,269.388245 58.397415,274.070862 
	C59.224575,270.145020 60.538803,266.116638 61.406479,261.994324 
	C61.733391,260.441162 61.026096,258.670288 60.790268,256.998688 
	C59.127785,257.253052 57.472279,257.587708 55.800312,257.733063 
	C54.718098,257.827118 53.611820,257.644348 52.516319,257.585632 
	C53.104195,256.763275 53.680813,255.932571 54.282299,255.120285 
	C55.513252,253.457947 56.775593,251.818604 57.991352,250.145340 
	C59.238308,248.429169 60.119125,246.237259 61.742947,245.051849 
	C64.438324,243.084167 68.603928,235.718842 67.469971,233.105576 
	C72.902710,227.143295 78.661278,221.243378 84.882614,215.495316 
	C86.629822,215.475525 87.914268,215.303894 89.198723,215.132263 
	C88.648712,214.238495 88.098694,213.344742 87.548683,212.450974 
	C88.143089,210.166611 88.895836,207.909271 89.291397,205.590973 
	C89.774399,202.760208 89.957558,199.878265 90.569305,196.730621 
z"/>
<path fill="#6848AA" opacity="1.000000" stroke="none" 
	d="
M490.952026,266.855042 
	C503.045807,254.876419 515.139587,242.897812 527.619873,231.187164 
	C529.641113,237.147415 531.638367,242.772324 532.716064,248.568192 
	C533.098511,250.625107 531.242493,253.097763 530.410034,255.381241 
	C529.652405,257.459229 528.896851,259.537994 528.140381,261.616394 
	C519.722839,270.010437 511.305267,278.404449 502.182587,286.923309 
	C500.182526,286.100952 498.253418,285.429199 497.701843,284.159180 
	C495.237213,278.484406 493.165588,272.638916 490.952026,266.855042 
z"/>
<path fill="#873ADA" opacity="1.000000" stroke="none" 
	d="
M724.098755,291.751953 
	C710.234680,291.788788 696.370667,291.825653 682.340942,291.256409 
	C683.805054,287.936432 685.211304,285.050903 687.127319,282.557068 
	C689.040405,280.067200 691.119385,276.643127 693.732544,275.964050 
	C700.035217,274.326263 706.686951,273.456879 713.207947,273.398621 
	C719.522827,273.342163 722.286255,269.849854 720.397278,263.642822 
	C717.936951,255.558060 716.119263,247.275772 714.137146,239.051483 
	C713.994995,238.461487 714.768616,237.650787 715.116394,236.942703 
	C719.965027,241.646484 724.813721,246.350250 729.866333,251.736176 
	C730.145325,254.070786 729.979309,255.777039 730.333923,257.367157 
	C733.017395,269.401672 733.032227,280.898438 724.134460,290.776154 
	C723.967407,290.961670 724.103882,291.420593 724.098755,291.751953 
z"/>
<path fill="#F2F2F6" opacity="1.000000" stroke="none" 
	d="
M526.916504,48.372925 
	C516.943420,44.408627 512.939575,38.995991 513.102051,30.210201 
	C513.251831,22.110310 517.946350,15.301482 525.289246,12.534092 
	C535.670532,8.621596 547.236450,14.290895 550.266235,24.777174 
	C553.301147,35.281330 547.000671,46.043629 536.164795,48.337078 
	C533.339722,48.935020 530.278748,48.418606 526.916504,48.372925 
M536.842102,24.624130 
	C533.848633,22.569057 530.437683,21.724918 527.715698,24.316078 
	C526.052795,25.899019 524.543945,29.015902 524.955139,31.039705 
	C525.413940,33.297825 527.821411,36.206356 529.942505,36.789997 
	C532.120544,37.389317 535.584534,36.202042 537.398987,34.580540 
	C540.356262,31.937798 539.802734,28.329260 536.842102,24.624130 
z"/>
<path fill="#893ADB" opacity="1.000000" stroke="none" 
	d="
M715.148010,60.071507 
	C710.351501,64.980423 705.554932,69.889343 700.190063,74.712601 
	C699.672180,73.016029 700.154663,71.267029 699.692078,69.820152 
	C698.313354,65.507355 699.922241,62.703224 702.498413,59.087017 
	C706.909729,52.894855 710.218689,45.738998 706.818359,37.631432 
	C707.793884,36.532169 708.769409,35.432915 710.134460,34.053810 
	C710.692200,33.452858 710.621948,33.176655 710.313354,32.945351 
	C710.313354,32.945351 710.117493,32.980255 709.804077,32.667816 
	C708.331543,32.225174 707.172546,32.094978 706.050049,31.619049 
	C705.561401,29.189613 705.201355,27.044422 704.456482,25.042473 
	C703.903625,23.556835 702.988037,22.147860 701.991272,20.898411 
	C700.153137,18.594126 698.449707,15.987449 696.105774,14.336431 
	C693.781555,12.699273 690.737061,12.084611 688.008484,11.021473 
	C692.041931,10.975864 696.075317,10.930255 700.873596,11.241554 
	C705.759766,11.736426 709.881104,11.874390 714.080811,12.370040 
	C715.863037,14.936993 720.589355,13.782059 720.098206,18.678337 
	C719.732300,22.325438 720.663635,26.083319 720.716675,29.796156 
	C720.804871,35.964924 722.298645,42.151352 718.229065,48.048424 
	C716.059143,51.192863 715.651611,55.557175 714.497986,59.385784 
	C714.452881,59.535484 714.919678,59.839432 715.148010,60.071507 
z"/>
<path fill="#8E37E1" opacity="1.000000" stroke="none" 
	d="
M715.447083,59.931236 
	C714.919678,59.839432 714.452881,59.535484 714.497986,59.385784 
	C715.651611,55.557175 716.059143,51.192863 718.229065,48.048424 
	C722.298645,42.151352 720.804871,35.964924 720.716675,29.796156 
	C720.663635,26.083319 719.732300,22.325438 720.098206,18.678337 
	C720.589355,13.782059 715.863037,14.936993 714.518066,12.366131 
	C717.174011,12.179669 719.521606,12.113036 721.757812,12.579895 
	C726.524109,13.574939 731.179504,15.218799 735.979187,15.904856 
	C741.200989,16.651245 745.047058,19.078133 745.612793,23.652241 
	C745.907288,26.033949 745.230530,28.535784 744.992493,30.983356 
	C744.992493,30.983356 745.000000,31.001928 744.785400,31.115658 
	C744.314331,31.425007 744.121582,31.670641 743.992554,31.966282 
	C743.810669,32.247631 743.628784,32.528992 742.813049,32.905392 
	C738.493958,32.696114 737.789001,34.934319 737.972961,37.930897 
	C737.972961,37.930897 737.990845,37.995075 737.764038,38.115627 
	C737.296570,38.439224 737.116455,38.686375 736.996765,38.977627 
	C736.996765,38.977627 737.003357,39.002041 736.783325,39.124050 
	C736.306335,39.455448 736.120911,39.715786 736.006958,40.027065 
	C735.534851,40.620857 735.062744,41.214661 733.948242,41.918503 
	C732.538757,43.020794 731.771667,44.013042 731.004639,45.005295 
	C731.004639,45.005302 731.000000,45.000000 730.792236,45.116920 
	C730.320862,45.430096 730.125122,45.679661 729.997375,45.982544 
	C729.997375,45.982544 730.002441,46.002289 729.787842,46.113209 
	C729.316650,46.413586 729.120483,46.652721 728.984924,46.941544 
	C728.984924,46.941544 728.995117,47.001411 728.793335,47.081398 
	C728.368469,47.303474 728.188721,47.487793 728.052368,47.714336 
	C723.950317,51.739876 719.848206,55.765415 715.447083,59.931236 
z"/>
<path fill="#6B44B3" opacity="1.000000" stroke="none" 
	d="
M528.466614,261.460815 
	C528.896851,259.537994 529.652405,257.459229 530.410034,255.381241 
	C531.242493,253.097763 533.098511,250.625107 532.716064,248.568192 
	C531.638367,242.772324 529.641113,237.147415 527.934998,231.049896 
	C533.689392,224.826889 539.515137,219.009140 545.863159,213.337860 
	C547.252075,214.790436 548.339111,216.003220 548.939575,217.421936 
	C550.208252,220.419388 551.273254,223.507156 552.326294,226.590469 
	C553.318542,229.495605 554.188232,232.442596 555.111816,235.371185 
	C548.925659,241.266220 542.696899,247.117447 536.572937,253.076416 
	C533.869934,255.706650 531.379700,258.555573 528.466614,261.460815 
z"/>
<path fill="#7D3ECD" opacity="1.000000" stroke="none" 
	d="
M687.013306,32.631298 
	C686.852051,32.665699 686.688721,32.737804 686.529846,32.729122 
	C676.107910,32.159580 665.898865,32.233910 658.099121,41.840935 
	C655.948669,33.281021 654.487122,24.675213 653.025513,16.069408 
	C654.508057,14.540585 655.990601,13.011758 657.890869,11.482437 
	C658.663879,11.548434 658.894409,11.388371 659.000000,11.001755 
	C661.045959,10.957013 663.091980,10.912271 665.623901,11.316056 
	C666.916809,12.482162 667.670410,13.741374 668.539612,13.827008 
	C673.219360,14.288063 676.487000,16.353582 678.573181,20.713015 
	C679.260620,22.149509 681.112366,23.329514 682.697205,23.977272 
	C686.812317,25.659157 688.928284,28.067438 687.013306,32.631298 
z"/>
<path fill="#823DD4" opacity="1.000000" stroke="none" 
	d="
M714.608826,267.195190 
	C711.802185,264.447571 708.995483,261.699951 705.957642,258.378601 
	C705.409973,257.576202 705.093384,257.347504 704.776855,257.118805 
	C704.776855,257.118805 704.863770,257.151215 704.891724,256.786041 
	C704.239746,251.037064 697.422729,244.645142 692.499817,244.775528 
	C692.499817,244.775528 692.351013,244.663574 692.506287,244.187500 
	C692.325562,241.945206 692.075073,240.157593 691.639465,238.416275 
	C689.176270,228.569748 686.109131,218.817398 687.206238,208.445496 
	C691.427795,212.586746 695.649292,216.728012 699.974976,221.585999 
	C700.724304,227.763092 702.227417,232.543137 708.134094,234.762665 
	C709.191956,235.160156 710.162537,237.428238 710.133850,238.811066 
	C709.957397,247.324661 708.091370,256.184967 716.563782,262.358490 
	C717.438965,262.996246 718.360596,264.245667 718.373230,265.222778 
	C718.389404,266.475769 717.506470,267.740387 716.862549,268.717560 
	C716.012329,268.021790 715.310608,267.608490 714.608826,267.195190 
z"/>
<path fill="#7A41CA" opacity="1.000000" stroke="none" 
	d="
M687.067627,208.168076 
	C686.109131,218.817398 689.176270,228.569748 691.639465,238.416275 
	C692.075073,240.157593 692.325562,241.945206 692.454407,244.110168 
	C686.887512,239.317490 681.527832,234.126053 676.050232,228.220718 
	C674.691223,223.269562 674.092957,218.694244 672.078369,214.863754 
	C667.553040,206.259384 667.521301,196.853607 666.096924,187.675629 
	C673.041016,194.413971 679.985046,201.152313 687.067627,208.168076 
z"/>
<path fill="#843DD7" opacity="1.000000" stroke="none" 
	d="
M717.010925,269.000000 
	C717.506470,267.740387 718.389404,266.475769 718.373230,265.222778 
	C718.360596,264.245667 717.438965,262.996246 716.563782,262.358490 
	C708.091370,256.184967 709.957397,247.324661 710.133850,238.811066 
	C710.162537,237.428238 709.191956,235.160156 708.134094,234.762665 
	C702.227417,232.543137 700.724304,227.763092 700.113037,221.866272 
	C705.071716,226.385086 709.996338,231.340347 715.018677,236.619156 
	C714.768616,237.650787 713.994995,238.461487 714.137146,239.051483 
	C716.119263,247.275772 717.936951,255.558060 720.397278,263.642822 
	C722.286255,269.849854 719.522827,273.342163 713.207947,273.398621 
	C706.686951,273.456879 700.035217,274.326263 693.732544,275.964050 
	C691.119385,276.643127 689.040405,280.067200 687.127319,282.557068 
	C685.211304,285.050903 683.805054,287.936432 682.009888,290.984833 
	C679.848389,289.490021 677.852356,287.660645 676.042114,285.359711 
	C679.017273,280.788330 681.858398,276.721954 684.548401,272.557953 
	C685.034424,271.805725 684.899841,270.652679 685.051819,269.684631 
	C694.774780,269.581665 704.497681,269.478699 714.873413,269.585022 
	C716.021118,269.529541 716.515991,269.264771 717.010925,269.000000 
z"/>
<path fill="#7A48C5" opacity="1.000000" stroke="none" 
	d="
M652.724976,16.206684 
	C654.487122,24.675213 655.948669,33.281021 657.795898,41.983303 
	C654.344238,46.281162 650.507019,50.482548 646.011475,54.833424 
	C643.776123,53.654278 642.046448,52.467686 640.651672,50.969288 
	C637.039673,47.088970 633.575317,43.071255 630.052002,39.108383 
	C637.509460,31.520243 644.966858,23.932100 652.724976,16.206684 
z"/>
<path fill="#7343C1" opacity="1.000000" stroke="none" 
	d="
M665.951050,187.390106 
	C667.521301,196.853607 667.553040,206.259384 672.078369,214.863754 
	C674.092957,218.694244 674.691223,223.269562 675.893188,227.937592 
	C669.398254,221.934769 662.942505,215.501144 656.381470,208.748413 
	C656.605286,207.486359 657.402832,206.398010 657.164795,205.631180 
	C656.686279,204.089905 655.780762,202.622574 654.809326,201.302963 
	C650.192078,195.030548 646.832581,188.698807 652.047791,181.018875 
	C652.898743,179.765762 652.766663,177.845123 653.152344,175.779510 
	C657.412231,179.252213 661.608643,183.178391 665.951050,187.390106 
z"/>
<path fill="#8E37E1" opacity="1.000000" stroke="none" 
	d="
M724.499939,291.827515 
	C724.103882,291.420593 723.967407,290.961670 724.134460,290.776154 
	C733.032227,280.898438 733.017395,269.401672 730.333923,257.367157 
	C729.979309,255.777039 730.145325,254.070786 730.103760,251.942932 
	C735.348022,256.741241 740.558716,262.014893 745.852905,267.963989 
	C745.932617,270.373047 745.920898,272.106720 745.927917,273.840302 
	C745.933594,275.238892 746.420471,276.846771 745.895203,277.997131 
	C744.254272,281.591187 745.657898,284.337463 747.627441,287.177704 
	C748.612915,288.598785 749.224182,290.279358 750.004761,291.842560 
	C741.636902,291.862732 733.268982,291.882904 724.499939,291.827515 
z"/>
<path fill="#843DD7" opacity="1.000000" stroke="none" 
	d="
M687.420044,32.706017 
	C688.928284,28.067438 686.812317,25.659157 682.697205,23.977272 
	C681.112366,23.329514 679.260620,22.149509 678.573181,20.713015 
	C676.487000,16.353582 673.219360,14.288063 668.539612,13.827008 
	C667.670410,13.741374 666.916809,12.482162 666.056030,11.396660 
	C673.028748,10.971790 680.055237,10.914844 687.545105,10.939684 
	C690.737061,12.084611 693.781555,12.699273 696.105774,14.336431 
	C698.449707,15.987449 700.153137,18.594126 701.991272,20.898411 
	C702.988037,22.147860 703.903625,23.556835 704.456482,25.042473 
	C705.201355,27.044422 705.561401,29.189613 705.614563,31.629351 
	C702.446167,32.239964 699.749939,32.494545 697.053650,32.749123 
	C693.978027,32.759663 690.902466,32.770199 687.420044,32.706017 
z"/>
<path fill="#7942C6" opacity="1.000000" stroke="none" 
	d="
M683.159912,92.080421 
	C677.641296,97.957138 672.122742,103.833847 666.303406,109.417854 
	C666.338013,101.625481 666.531677,94.115654 667.068726,86.630463 
	C667.335022,82.919167 668.232605,79.253174 668.844666,75.566681 
	C673.927124,70.426659 679.009583,65.286636 684.677917,60.196869 
	C684.734619,62.138943 684.609375,64.283813 683.609070,65.880409 
	C678.157593,74.581253 678.227478,83.260361 683.159912,92.080421 
z"/>
<path fill="#7145BC" opacity="1.000000" stroke="none" 
	d="
M555.407715,235.190033 
	C554.188232,232.442596 553.318542,229.495605 552.326294,226.590469 
	C551.273254,223.507156 550.208252,220.419388 548.939575,217.421936 
	C548.339111,216.003220 547.252075,214.790436 546.163574,213.188385 
	C546.577454,212.139862 547.113770,211.264786 547.865173,210.654556 
	C552.784180,206.659683 556.563354,202.152649 555.538696,194.852768 
	C555.051819,198.114502 558.003845,199.866501 559.626648,202.320480 
	C562.870789,207.226242 565.926086,212.256683 569.151611,217.175186 
	C569.642944,217.924500 570.627747,218.350281 571.733887,218.982254 
	C566.623474,224.362183 561.163452,229.685532 555.407715,235.190033 
z"/>
<path fill="#6E52A7" opacity="1.000000" stroke="none" 
	d="
M490.682098,266.927979 
	C493.165588,272.638916 495.237213,278.484406 497.701843,284.159180 
	C498.253418,285.429199 500.182526,286.100952 501.898865,287.080933 
	C501.942810,287.442749 501.565338,287.771759 500.840271,288.115051 
	C500.492615,288.129333 500.561584,288.165588 500.561584,288.165588 
	C492.690308,288.214752 484.819031,288.263947 476.480347,287.797485 
	C476.012970,281.425446 476.012970,275.569031 476.012970,269.617859 
	C480.035553,269.065491 484.506073,268.451599 488.976593,267.837708 
	C489.455139,267.558777 489.933655,267.279846 490.682098,266.927979 
z"/>
<path fill="#7EE7CD" opacity="1.000000" stroke="none" 
	d="
M41.229546,253.544632 
	C34.355564,254.336380 27.597242,254.679581 20.394741,254.714935 
	C19.625164,253.941208 19.299767,253.475327 18.974367,253.009460 
	C18.917204,247.977570 18.860043,242.945679 19.317059,237.469543 
	C26.928492,237.347641 34.025749,237.669983 41.123009,237.992340 
	C41.192627,238.754822 41.262245,239.517288 41.052582,240.730835 
	C40.705639,241.283890 40.560051,241.449463 40.582958,241.477570 
	C40.730949,241.658936 40.915722,241.810303 41.088425,241.971512 
	C41.174015,245.679703 41.259609,249.387894 41.229546,253.544632 
z"/>
<path fill="#BFEAE0" opacity="1.000000" stroke="none" 
	d="
M41.049248,162.001434 
	C41.125343,167.030823 41.201431,172.060211 40.691750,177.544861 
	C33.069538,177.998581 26.033100,177.997025 18.996660,177.995468 
	C18.938570,172.486847 18.880478,166.978226 19.448727,161.153336 
	C27.066458,161.225189 34.057854,161.613312 41.049248,162.001434 
z"/>
<path fill="#785FAD" opacity="1.000000" stroke="none" 
	d="
M488.525635,267.777954 
	C484.506073,268.451599 480.035553,269.065491 476.012970,269.617859 
	C476.012970,275.569031 476.012970,281.425446 476.017456,287.724213 
	C470.646759,288.221222 465.271637,288.275848 459.464996,287.826965 
	C458.581665,281.414795 458.129822,275.506104 457.632263,268.999847 
	C459.096680,268.999847 461.542023,269.161743 463.956116,268.956482 
	C466.628937,268.729248 469.273224,268.166168 471.929932,267.749298 
	C477.311523,267.738953 482.693085,267.728577 488.525635,267.777954 
z"/>
<path fill="#39393D" opacity="1.000000" stroke="none" 
	d="
M290.999573,12.238013 
	C291.207794,15.031810 290.835663,17.826275 290.832001,20.621218 
	C290.758636,76.853394 290.727661,133.085617 290.519440,189.694977 
	C289.961823,188.363556 289.234772,186.655365 289.232971,184.946411 
	C289.173553,129.004257 289.171936,73.061996 289.242798,17.119867 
	C289.244843,15.492315 290.121796,13.865868 290.999573,12.238013 
z"/>
<path fill="#B2E9DC" opacity="1.000000" stroke="none" 
	d="
M18.901436,178.453735 
	C26.033100,177.997025 33.069538,177.998581 40.577888,177.999908 
	C41.132755,183.361237 41.215717,188.722763 40.741589,194.541885 
	C33.137493,194.330002 26.090488,193.660538 19.043484,192.991089 
	C18.964392,188.298065 18.885302,183.605042 18.901436,178.453735 
z"/>
<path fill="#7D3ECD" opacity="1.000000" stroke="none" 
	d="
M683.458313,91.933044 
	C678.227478,83.260361 678.157593,74.581253 683.609070,65.880409 
	C684.609375,64.283813 684.734619,62.138943 684.963501,60.039192 
	C689.186218,55.191391 693.709229,50.551525 698.572876,46.140388 
	C697.315674,48.894566 695.594238,51.352100 694.158752,53.966629 
	C692.974060,56.124405 691.288574,58.466526 691.284729,60.729469 
	C691.271790,68.297058 694.672363,75.943512 690.515259,83.400482 
	C690.469788,83.482056 690.931030,83.846085 691.155701,84.078239 
	C688.689331,86.647377 686.223022,89.216522 683.458313,91.933044 
z"/>
<path fill="#96E6D2" opacity="1.000000" stroke="none" 
	d="
M18.993315,222.994080 
	C18.925175,218.298523 18.857033,213.602966 19.318443,208.454681 
	C26.929255,207.335068 34.010509,206.668198 41.091766,206.001312 
	C41.155056,211.360367 41.218346,216.719421 40.744225,222.540222 
	C33.135647,222.999329 26.064482,222.996704 18.993315,222.994080 
z"/>
<path fill="#843DD7" opacity="1.000000" stroke="none" 
	d="
M691.451904,83.930450 
	C690.931030,83.846085 690.469788,83.482056 690.515259,83.400482 
	C694.672363,75.943512 691.271790,68.297058 691.284729,60.729469 
	C691.288574,58.466526 692.974060,56.124405 694.158752,53.966629 
	C695.594238,51.352100 697.315674,48.894566 698.871094,45.966061 
	C701.294250,43.031593 703.759766,40.500179 706.521851,37.800102 
	C710.218689,45.738998 706.909729,52.894855 702.498413,59.087017 
	C699.922241,62.703224 698.313354,65.507355 699.692078,69.820152 
	C700.154663,71.267029 699.672180,73.016029 699.888550,74.854584 
	C697.352966,77.982368 694.550476,80.882507 691.451904,83.930450 
z"/>
<path fill="#923AE6" opacity="1.000000" stroke="none" 
	d="
M745.296753,30.848141 
	C745.230530,28.535784 745.907288,26.033949 745.612793,23.652241 
	C745.047058,19.078133 741.200989,16.651245 735.979187,15.904856 
	C731.179504,15.218799 726.524109,13.574939 721.757812,12.579895 
	C719.521606,12.113036 717.174011,12.179669 714.439697,12.008444 
	C709.881104,11.874390 705.759766,11.736426 701.331482,11.327864 
	C722.086914,11.057263 743.149292,11.057263 765.542480,11.057263 
	C758.437317,18.060627 752.019165,24.386776 745.296753,30.848141 
z"/>
<path fill="#8E7CB8" opacity="1.000000" stroke="none" 
	d="
M444.023682,288.162140 
	C438.660309,288.227814 433.296967,288.293457 427.481567,287.849121 
	C428.736359,282.348083 427.580292,277.932617 424.519165,273.782349 
	C423.463196,272.350708 422.830780,270.606598 422.290283,268.996033 
	C422.765900,268.978027 422.956085,268.969238 423.604980,268.958374 
	C430.053741,268.943115 436.043854,268.929901 442.072083,269.312500 
	C442.748047,275.859589 443.385864,282.010864 444.023682,288.162140 
z"/>
<path fill="#89E5CE" opacity="1.000000" stroke="none" 
	d="
M18.902569,223.451813 
	C26.064482,222.996704 33.135647,222.999329 40.642052,222.998077 
	C41.161308,227.689819 41.245327,232.385437 41.226181,237.536697 
	C34.025749,237.669983 26.928492,237.347641 19.407793,237.009766 
	C18.926844,232.632675 18.869333,228.271118 18.902569,223.451813 
z"/>
<path fill="#CCEEE6" opacity="1.000000" stroke="none" 
	d="
M41.161613,161.548264 
	C34.057854,161.613312 27.066458,161.225189 19.542007,160.727783 
	C18.944040,156.046707 18.879129,151.474930 19.383329,146.450943 
	C26.635941,146.331894 33.319439,146.665024 40.002937,146.998169 
	C40.123169,147.316650 40.324715,147.570572 40.825005,147.875427 
	C41.119614,152.358994 41.196796,156.727036 41.161613,161.548264 
z"/>
<path fill="#826DB2" opacity="1.000000" stroke="none" 
	d="
M444.481262,288.251526 
	C443.385864,282.010864 442.748047,275.859589 442.507324,269.335632 
	C445.678253,268.473450 448.452118,267.984009 451.225952,267.494568 
	C457.831512,267.486542 464.437042,267.478546 471.486267,267.609924 
	C469.273224,268.166168 466.628937,268.729248 463.956116,268.956482 
	C461.542023,269.161743 459.096680,268.999847 457.632263,268.999847 
	C458.129822,275.506104 458.581665,281.414795 459.027863,287.745361 
	C454.327759,288.225128 449.633301,288.283020 444.481262,288.251526 
z"/>
<path fill="#7343C1" opacity="1.000000" stroke="none" 
	d="
M668.553101,75.756683 
	C668.232605,79.253174 667.335022,82.919167 667.068726,86.630463 
	C666.531677,94.115654 666.338013,101.625481 666.003540,109.561783 
	C662.617004,113.450043 659.229553,116.901672 655.519897,120.509247 
	C655.542114,115.705666 655.828918,110.741295 656.245605,105.787857 
	C656.755188,99.730705 657.373718,93.682716 657.907959,87.141289 
	C661.334290,83.083435 664.797913,79.515060 668.553101,75.756683 
z"/>
<path fill="#9C8EBF" opacity="1.000000" stroke="none" 
	d="
M417.080109,288.212433 
	C411.624115,288.288727 406.168152,288.364990 400.357971,287.865265 
	C400.066040,283.913666 400.430847,280.507782 400.096161,277.172028 
	C399.822205,274.441467 398.714752,271.794525 398.375305,269.068085 
	C400.568085,268.493011 402.362366,267.960419 404.156677,267.427795 
	C406.152863,267.429779 408.149078,267.431763 410.568970,267.902191 
	C411.561829,270.044037 412.181061,271.702362 412.690765,273.393677 
	C414.177307,278.326202 415.620148,283.271912 417.080109,288.212433 
z"/>
<path fill="#923AE6" opacity="1.000000" stroke="none" 
	d="
M750.467590,291.917664 
	C749.224182,290.279358 748.612915,288.598785 747.627441,287.177704 
	C745.657898,284.337463 744.254272,281.591187 745.895203,277.997131 
	C746.420471,276.846771 745.933594,275.238892 745.927917,273.840302 
	C745.920898,272.106720 745.932617,270.373047 745.986694,268.266907 
	C753.352783,276.342651 760.668518,284.790924 766.904968,291.992767 
	C763.419983,291.992767 757.175232,291.992767 750.467590,291.917664 
z"/>
<path fill="#7F53C3" opacity="1.000000" stroke="none" 
	d="
M629.759644,39.254288 
	C633.575317,43.071255 637.039673,47.088970 640.651672,50.969288 
	C642.046448,52.467686 643.776123,53.654278 645.722778,54.989563 
	C642.936157,58.251213 639.779968,61.506210 636.181580,64.580582 
	C634.316711,62.257057 632.962585,60.064636 631.456726,57.981907 
	C628.624207,54.064396 625.704102,50.210217 622.820435,46.329689 
	C625.036072,44.019859 627.251709,41.710026 629.759644,39.254288 
z"/>
<path fill="#A4E8D7" opacity="1.000000" stroke="none" 
	d="
M41.194717,205.552689 
	C34.010509,206.668198 26.929255,207.335068 19.412794,207.996063 
	C18.928074,203.294815 18.878557,198.599442 18.936262,193.447571 
	C26.090488,193.660538 33.137493,194.330002 40.628983,194.997833 
	C41.148201,198.365494 41.222931,201.734772 41.194717,205.552689 
z"/>
<path fill="#D1CAE3" opacity="1.000000" stroke="none" 
	d="
M584.790283,116.299759 
	C582.079407,119.123055 579.368530,121.946350 576.045654,124.739937 
	C570.180237,119.550537 564.926941,114.390831 559.673584,109.231125 
	C561.918396,106.917336 564.163208,104.603546 567.014771,102.283936 
	C570.038391,104.437500 572.376892,106.693642 574.891846,108.732040 
	C578.117065,111.346207 581.484253,113.785255 584.790283,116.299759 
z"/>
<path fill="#BDAFD9" opacity="1.000000" stroke="none" 
	d="
M577.003357,91.963165 
	C579.043518,89.845566 581.083618,87.727959 583.500854,85.819427 
	C588.603088,91.721931 593.328186,97.415375 598.053345,103.108826 
	C595.245361,105.995171 592.437317,108.881523 589.180298,111.580528 
	C587.667358,109.563423 586.632324,107.716110 585.533752,105.907341 
	C582.705322,101.250175 579.848694,96.610077 577.003357,91.963165 
z"/>
<path fill="#C6BCDD" opacity="1.000000" stroke="none" 
	d="
M576.696411,92.099319 
	C579.848694,96.610077 582.705322,101.250175 585.533752,105.907341 
	C586.632324,107.716110 587.667358,109.563423 588.872803,111.712082 
	C587.781372,113.362122 586.548401,114.693260 585.052856,116.162079 
	C581.484253,113.785255 578.117065,111.346207 574.891846,108.732040 
	C572.376892,106.693642 570.038391,104.437500 567.312622,102.139717 
	C570.132324,98.746040 573.260864,95.490753 576.696411,92.099319 
z"/>
<path fill="#D1CAE3" opacity="1.000000" stroke="none" 
	d="
M348.888184,288.256042 
	C346.522095,288.330811 344.156036,288.405579 341.319855,288.179352 
	C340.580322,287.983795 340.310852,288.089233 340.041412,288.194672 
	C338.308319,288.298950 336.575226,288.403259 334.584778,288.091003 
	C338.169067,286.957397 339.468079,284.424469 338.959900,280.845398 
	C338.405579,276.941620 337.641876,273.067596 337.314484,269.118713 
	C338.121704,268.991272 338.583862,268.925751 339.492371,268.897095 
	C342.639984,268.876465 345.341278,268.818909 348.086426,269.163391 
	C350.504425,275.709625 350.869965,281.935242 348.888184,288.256042 
z"/>
<path fill="#906DC9" opacity="1.000000" stroke="none" 
	d="
M609.776245,59.295876 
	C611.352356,57.642124 612.928528,55.988369 615.091064,54.320671 
	C620.802917,59.575348 625.928345,64.843971 631.053772,70.112579 
	C628.584961,72.678368 626.116089,75.244156 623.199707,77.624741 
	C620.253967,73.578941 617.855957,69.648277 615.220886,65.883499 
	C613.592529,63.557076 611.603394,61.483154 609.776245,59.295876 
z"/>
<path fill="#9787BD" opacity="1.000000" stroke="none" 
	d="
M417.521942,288.304565 
	C415.620148,283.271912 414.177307,278.326202 412.690765,273.393677 
	C412.181061,271.702362 411.561829,270.044037 410.979187,268.023132 
	C411.428375,267.597412 411.890991,267.519226 412.863403,267.869690 
	C416.250397,268.533936 419.127655,268.769592 422.004883,269.005249 
	C422.830780,270.606598 423.463196,272.350708 424.519165,273.782349 
	C427.580292,277.932617 428.736359,282.348083 427.022339,287.754883 
	C423.998016,288.245972 420.980896,288.321320 417.521942,288.304565 
z"/>
<path fill="#DCD7E9" opacity="1.000000" stroke="none" 
	d="
M559.377136,109.414078 
	C564.926941,114.390831 570.180237,119.550537 575.734802,124.862595 
	C574.452515,126.662453 572.869019,128.309952 570.601929,130.038757 
	C568.141724,129.108032 566.141785,128.351517 564.632446,127.033302 
	C560.961365,123.827011 557.518005,120.359924 553.858276,116.778275 
	C553.462463,116.360985 553.191162,116.163315 552.919922,115.965652 
	C554.973511,113.842781 557.027100,111.719910 559.377136,109.414078 
z"/>
<path fill="#E4E1ED" opacity="1.000000" stroke="none" 
	d="
M327.969757,288.202637 
	C324.902191,288.306183 321.834625,288.409729 318.398010,287.970886 
	C317.775391,284.430878 317.710052,281.401917 317.217346,278.444183 
	C316.687103,275.261292 315.756134,272.145233 315.458069,269.000549 
	C319.277527,268.999084 322.638885,268.997040 326.004700,268.964447 
	C326.009155,268.933929 326.065430,268.908569 326.054871,269.308289 
	C326.510834,271.431793 327.255280,273.134216 327.389374,274.883453 
	C327.728943,279.311981 327.794464,283.761505 327.969757,288.202637 
z"/>
<path fill="#7D3ECD" opacity="1.000000" stroke="none" 
	d="
M684.598450,269.544769 
	C684.899841,270.652679 685.034424,271.805725 684.548401,272.557953 
	C681.858398,276.721954 679.017273,280.788330 675.868652,285.063049 
	C671.010132,280.743500 666.510742,276.249023 662.224243,271.419922 
	C663.943787,270.600159 665.450500,270.114990 666.957153,269.629822 
	C672.686462,269.554840 678.415771,269.479858 684.598450,269.544769 
z"/>
<path fill="#D7F0EA" opacity="1.000000" stroke="none" 
	d="
M40.007935,146.544434 
	C33.319439,146.665024 26.635941,146.331894 19.488400,145.997681 
	C18.954149,143.291977 18.883942,140.587372 19.365850,137.442139 
	C26.609518,137.002869 33.301071,137.004211 39.992630,137.005539 
	C39.999393,140.033920 40.006161,143.062317 40.007935,146.544434 
z"/>
<path fill="#DCD7E9" opacity="1.000000" stroke="none" 
	d="
M328.385681,288.335205 
	C327.794464,283.761505 327.728943,279.311981 327.389374,274.883453 
	C327.255280,273.134216 326.510834,271.431793 326.505554,269.341583 
	C330.301025,269.043610 333.635254,269.112091 336.969452,269.180603 
	C337.641876,273.067596 338.405579,276.941620 338.959900,280.845398 
	C339.468079,284.424469 338.169067,286.957397 334.168884,287.954041 
	C332.274078,288.311676 330.537842,288.389740 328.385681,288.335205 
z"/>
<path fill="#B4A4D5" opacity="1.000000" stroke="none" 
	d="
M598.360107,102.967392 
	C593.328186,97.415375 588.603088,91.721931 583.798950,85.634705 
	C585.515381,83.370384 587.310730,81.499840 589.544189,79.810913 
	C592.324463,83.334091 594.398376,86.914543 597.093079,89.942368 
	C599.286499,92.406929 602.223572,94.209671 604.830872,96.305878 
	C602.776184,98.479240 600.721558,100.652603 598.360107,102.967392 
z"/>
<path fill="#ADA2CB" opacity="1.000000" stroke="none" 
	d="
M391.994904,288.098206 
	C389.311829,288.198090 386.628723,288.297974 383.341705,288.028168 
	C382.165680,287.437347 381.593597,287.216217 381.023132,286.600464 
	C380.344330,280.515564 379.663879,274.825317 379.355347,269.079132 
	C382.812897,269.058929 385.898590,269.094696 389.045624,269.505005 
	C390.071320,275.585144 391.035645,281.290741 391.999390,287.271790 
	C391.997498,287.730865 391.996216,287.914520 391.994904,288.098206 
z"/>
<path fill="#8861C5" opacity="1.000000" stroke="none" 
	d="
M631.351990,69.977081 
	C625.928345,64.843971 620.802917,59.575348 615.374023,54.169556 
	C617.442322,51.571339 619.814087,49.110287 622.503174,46.489464 
	C625.704102,50.210217 628.624207,54.064396 631.456726,57.981907 
	C632.962585,60.064636 634.316711,62.257057 635.879761,64.724609 
	C634.563538,66.646706 633.106873,68.244148 631.351990,69.977081 
z"/>
<path fill="#E2F3F0" opacity="1.000000" stroke="none" 
	d="
M39.996895,136.555267 
	C33.301071,137.004211 26.609518,137.002869 19.462940,137.000549 
	C18.930149,134.293381 18.852385,131.587204 19.347988,128.441849 
	C26.611700,128.004150 33.302044,128.005630 39.992386,128.007095 
	C39.995312,130.706390 39.998234,133.405701 39.996895,136.555267 
z"/>
<path fill="#B3AFC3" opacity="1.000000" stroke="none" 
	d="
M381.021515,286.995117 
	C381.593597,287.216217 382.165680,287.437347 382.905579,287.924835 
	C371.979523,288.318176 360.885651,288.445129 349.339966,288.414062 
	C350.869965,281.935242 350.504425,275.709625 348.349182,268.997681 
	C350.385742,268.638000 352.203339,268.846130 354.012878,269.441650 
	C354.648590,271.856812 355.418732,273.854706 355.908234,275.919098 
	C356.757965,279.502808 356.279755,284.627228 358.493835,286.331787 
	C360.917877,288.197968 365.761505,286.921539 369.550690,287.013580 
	C369.715790,287.017578 369.881134,287.010437 370.501709,287.009644 
	C374.311859,287.005554 377.666687,287.000336 381.021515,286.995117 
z"/>
<path fill="#AD99D2" opacity="1.000000" stroke="none" 
	d="
M605.105652,96.152405 
	C602.223572,94.209671 599.286499,92.406929 597.093079,89.942368 
	C594.398376,86.914543 592.324463,83.334091 589.834595,79.630447 
	C591.269897,77.605789 592.852905,75.943199 594.996704,74.345268 
	C598.059265,77.636330 600.610840,80.825607 603.047058,84.100731 
	C605.052246,86.796364 606.920532,89.593826 608.849426,92.346176 
	C607.693115,93.563759 606.536743,94.781342 605.105652,96.152405 
z"/>
<path fill="#A68ED1" opacity="1.000000" stroke="none" 
	d="
M609.118103,92.195267 
	C606.920532,89.593826 605.052246,86.796364 603.047058,84.100731 
	C600.610840,80.825607 598.059265,77.636330 595.291870,74.211853 
	C596.169006,72.772095 597.311707,71.530411 599.035217,70.301201 
	C605.038086,75.329437 610.460083,80.345207 615.882141,85.360962 
	C613.716980,87.588760 611.551880,89.816566 609.118103,92.195267 
z"/>
<path fill="#A79AC6" opacity="1.000000" stroke="none" 
	d="
M392.000000,286.996338 
	C391.035645,281.290741 390.071320,275.585144 389.427368,269.456421 
	C392.490753,269.059052 395.233795,269.084778 397.976807,269.110535 
	C398.714752,271.794525 399.822205,274.441467 400.096161,277.172028 
	C400.430847,280.507782 400.066040,283.913666 399.981598,287.710480 
	C398.580933,288.189484 397.202393,288.247253 395.213715,287.924072 
	C393.735687,287.360870 392.867859,287.178589 392.000000,286.996338 
z"/>
<path fill="#E4E1ED" opacity="1.000000" stroke="none" 
	d="
M553.982910,116.997894 
	C557.518005,120.359924 560.961365,123.827011 564.632446,127.033302 
	C566.141785,128.351517 568.141724,129.108032 570.331543,130.178238 
	C568.975037,132.165588 567.205505,134.094772 565.164429,136.161316 
	C556.935547,133.091019 553.959656,125.936462 551.002258,118.392960 
	C551.158875,117.734055 551.315552,117.449425 552.046570,117.079300 
	C553.074890,116.995171 553.528931,116.996529 553.982910,116.997894 
z"/>
<path fill="#9778C9" opacity="1.000000" stroke="none" 
	d="
M609.478516,59.453026 
	C611.603394,61.483154 613.592529,63.557076 615.220886,65.883499 
	C617.855957,69.648277 620.253967,73.578941 622.892761,77.758713 
	C622.429871,78.753891 621.826355,79.429893 620.557190,80.083450 
	C615.146057,75.891045 610.347778,71.778076 605.712036,67.489525 
	C605.018433,66.847946 605.086609,65.382896 604.802429,64.298798 
	C606.261841,62.735924 607.721313,61.173054 609.478516,59.453026 
z"/>
<path fill="#F2F2F6" opacity="1.000000" stroke="none" 
	d="
M315.000000,269.000000 
	C315.756134,272.145233 316.687103,275.261292 317.217346,278.444183 
	C317.710052,281.401917 317.775391,284.430878 318.024719,287.824158 
	C315.633911,288.295715 313.247314,288.371521 310.432617,288.310913 
	C309.345154,281.624146 308.685791,275.073822 308.024475,268.088287 
	C309.380829,267.573853 310.739105,267.494690 312.657349,267.836029 
	C313.811554,268.504364 314.405792,268.752167 315.000000,269.000000 
z"/>
<path fill="#F2F2F6" opacity="1.000000" stroke="none" 
	d="
M39.994900,127.561806 
	C33.302044,128.005630 26.611700,128.004150 19.451656,128.001465 
	C18.921326,125.952690 18.860695,123.905144 18.900070,121.428802 
	C23.926416,121.000000 28.881567,121.331779 33.771057,120.907288 
	C38.722084,120.477432 40.932156,122.020111 39.994900,127.561806 
z"/>
<path fill="#9E83CC" opacity="1.000000" stroke="none" 
	d="
M604.492065,64.462799 
	C605.086609,65.382896 605.018433,66.847946 605.712036,67.489525 
	C610.347778,71.778076 615.146057,75.891045 620.285828,80.140991 
	C619.256592,81.831047 617.833069,83.441132 616.145874,85.206093 
	C610.460083,80.345207 605.038086,75.329437 599.322205,70.162460 
	C600.746155,68.216438 602.463989,66.421623 604.492065,64.462799 
z"/>
<path fill="#6E6B81" opacity="1.000000" stroke="none" 
	d="
M398.375305,269.068085 
	C395.233795,269.084778 392.490753,269.059052 389.366028,269.081879 
	C385.898590,269.094696 382.812897,269.058929 378.916229,269.032471 
	C375.755768,268.989838 373.406311,268.937897 371.034180,268.607422 
	C370.989990,267.956909 370.968475,267.584930 370.946991,267.212982 
	C381.707642,267.197327 392.468262,267.181671 403.692810,267.296906 
	C402.362366,267.960419 400.568085,268.493011 398.375305,269.068085 
z"/>
<path fill="#898896" opacity="1.000000" stroke="none" 
	d="
M370.484375,267.162170 
	C370.968475,267.584930 370.989990,267.956909 370.655701,268.657898 
	C369.538055,268.984131 368.776245,268.981354 368.009949,268.988434 
	C368.005432,268.998260 368.018372,268.985962 367.925293,268.810181 
	C367.541931,268.749603 367.251648,268.864838 366.501038,269.000000 
	C362.034149,269.031372 358.027557,269.042847 354.020966,269.054291 
	C352.203339,268.846130 350.385742,268.638000 348.305359,268.595612 
	C345.341278,268.818909 342.639984,268.876465 339.474762,268.620087 
	C338.997314,267.934723 338.983734,267.563324 338.970184,267.191895 
	C349.320709,267.165039 359.671265,267.138184 370.484375,267.162170 
z"/>
<path fill="#534C6C" opacity="1.000000" stroke="none" 
	d="
M450.760498,267.343872 
	C448.452118,267.984009 445.678253,268.473450 442.469177,268.939789 
	C436.043854,268.929901 430.053741,268.943115 423.535553,268.703522 
	C422.918060,268.111084 422.828613,267.771454 422.739166,267.431824 
	C431.924438,267.352264 441.109741,267.272736 450.760498,267.343872 
z"/>
<path fill="#7A41CA" opacity="1.000000" stroke="none" 
	d="
M692.589172,245.063400 
	C697.422729,244.645142 704.239746,251.037064 704.858276,256.818207 
	C700.757446,253.260788 696.718018,249.306030 692.589172,245.063400 
z"/>
<path fill="#89E5CE" opacity="1.000000" stroke="none" 
	d="
M18.886448,253.469925 
	C19.299767,253.475327 19.625164,253.941208 19.984562,254.702728 
	C20.008583,266.991638 19.998606,278.984894 19.981098,291.440460 
	C19.578129,290.483551 18.851248,289.066986 18.839766,287.644653 
	C18.749060,276.407196 18.794769,265.168610 18.886448,253.469925 
z"/>
<path fill="#9D9EA2" opacity="1.000000" stroke="none" 
	d="
M338.509277,267.138611 
	C338.983734,267.563324 338.997314,267.934723 339.028442,268.583191 
	C338.583862,268.925751 338.121704,268.991272 337.314484,269.118713 
	C333.635254,269.112091 330.301025,269.043610 326.516113,268.941833 
	C326.065430,268.908569 326.009155,268.933929 325.963745,268.693359 
	C325.889557,268.094421 325.860779,267.736084 325.832031,267.377747 
	C329.904144,267.280273 333.976227,267.182800 338.509277,267.138611 
z"/>
<path fill="#F5F5F8" opacity="1.000000" stroke="none" 
	d="
M325.384766,267.348846 
	C325.860779,267.736084 325.889557,268.094421 325.959290,268.723877 
	C322.638885,268.997040 319.277527,268.999084 315.458069,269.000549 
	C314.405792,268.752167 313.811554,268.504364 313.045410,267.973267 
	C316.894836,267.566650 320.916138,267.443298 325.384766,267.348846 
z"/>
<path fill="#9C8EBF" opacity="1.000000" stroke="none" 
	d="
M422.302673,267.420898 
	C422.828613,267.771454 422.918060,268.111084 423.076904,268.705566 
	C422.956085,268.969238 422.765900,268.978027 422.290283,268.996033 
	C419.127655,268.769592 416.250397,268.533936 413.199951,267.988922 
	C415.973175,267.589691 418.919678,267.499817 422.302673,267.420898 
z"/>
<path fill="#77E7C8" opacity="1.000000" stroke="none" 
	d="
M109.272064,225.278320 
	C111.788506,224.589279 114.639511,224.027252 117.739334,223.726257 
	C115.194313,224.459961 112.400459,224.932663 109.272064,225.278320 
z"/>
<path fill="#923AE6" opacity="1.000000" stroke="none" 
	d="
M738.261108,37.788181 
	C737.789001,34.934319 738.493958,32.696114 742.571777,32.994503 
	C741.492676,34.540871 740.020935,36.093166 738.261108,37.788181 
z"/>
<path fill="#7D3ECD" opacity="1.000000" stroke="none" 
	d="
M697.505737,32.837112 
	C699.749939,32.494545 702.446167,32.239964 705.578003,31.975082 
	C707.172546,32.094978 708.331543,32.225174 709.759094,32.579090 
	C706.004333,32.843571 701.981018,32.884335 697.505737,32.837112 
z"/>
<path fill="#72E7C6" opacity="1.000000" stroke="none" 
	d="
M87.561333,212.465271 
	C88.098694,213.344742 88.648712,214.238495 89.198723,215.132263 
	C87.914268,215.303894 86.629822,215.475525 85.189438,215.365692 
	C85.230064,214.799164 85.426620,214.514130 86.170486,214.071259 
	C86.999725,213.446960 87.281654,212.980484 87.563576,212.514023 
	C87.563576,212.514023 87.573982,212.479553 87.561333,212.465271 
z"/>
<path fill="#843DD7" opacity="1.000000" stroke="none" 
	d="
M666.552612,269.513550 
	C665.450500,270.114990 663.943787,270.600159 662.048096,271.127625 
	C661.659119,271.169952 661.308594,271.070679 661.204346,270.741211 
	C661.141296,270.149139 661.156128,269.885101 661.144714,269.619598 
	C662.812500,269.545471 664.480286,269.471344 666.552612,269.513550 
z"/>
<path fill="#923AE6" opacity="1.000000" stroke="none" 
	d="
M731.291809,44.886185 
	C731.771667,44.013042 732.538757,43.020794 733.677856,42.022629 
	C733.226196,42.933506 732.402588,43.850292 731.291809,44.886185 
z"/>
<path fill="#6E37AE" opacity="1.000000" stroke="none" 
	d="
M716.862549,268.717560 
	C716.515991,269.264771 716.021118,269.529541 715.347534,269.648865 
	C715.086853,268.981903 715.004944,268.460358 714.765930,267.567017 
	C715.310608,267.608490 716.012329,268.021790 716.862549,268.717560 
z"/>
<path fill="#77E7C8" opacity="1.000000" stroke="none" 
	d="
M45.354973,254.723633 
	C44.864265,255.629227 44.080574,256.679230 42.958485,257.808258 
	C43.434055,256.880859 44.248020,255.874466 45.354973,254.723633 
z"/>
<path fill="#B6ACD0" opacity="1.000000" stroke="none" 
	d="
M391.999390,287.271790 
	C392.867859,287.178589 393.735687,287.360870 394.814331,287.806946 
	C394.263885,288.144043 393.502655,288.217285 392.368164,288.194336 
	C391.996216,287.914520 391.997498,287.730865 391.999390,287.271790 
z"/>
<path fill="#F3F3F6" opacity="1.000000" stroke="none" 
	d="
M553.858276,116.778275 
	C553.528931,116.996529 553.074890,116.995171 552.280273,116.986679 
	C552.094788,116.679733 552.249939,116.379929 552.662476,116.022888 
	C553.191162,116.163315 553.462463,116.360985 553.858276,116.778275 
z"/>
<path fill="#77E7C8" opacity="1.000000" stroke="none" 
	d="
M65.782158,234.219131 
	C65.736992,234.616318 65.437080,235.107025 64.829010,235.585632 
	C64.856377,235.153229 65.191895,234.732956 65.782158,234.219131 
z"/>
<path fill="#77E7C8" opacity="1.000000" stroke="none" 
	d="
M63.324684,236.647217 
	C63.277077,236.987015 62.988235,237.453506 62.394760,237.973633 
	C62.421230,237.609512 62.752338,237.191711 63.324684,236.647217 
z"/>
<path fill="#77E7C8" opacity="1.000000" stroke="none" 
	d="
M87.325562,212.642578 
	C87.281654,212.980484 86.999725,213.446960 86.415482,213.971161 
	C86.437958,213.609665 86.762749,213.190399 87.325562,212.642578 
z"/>
<path fill="#77E7C8" opacity="1.000000" stroke="none" 
	d="
M91.681259,193.980774 
	C91.771172,194.379517 91.624527,194.990616 91.228287,195.803528 
	C91.134026,195.401276 91.289368,194.797211 91.681259,193.980774 
z"/>
<path fill="#77E7C8" opacity="1.000000" stroke="none" 
	d="
M57.785744,242.241867 
	C57.751575,242.633682 57.462547,243.130447 56.868484,243.645752 
	C56.885921,243.225113 57.208401,242.785965 57.785744,242.241867 
z"/>
<path fill="#050507" opacity="1.000000" stroke="none" 
	d="
M542.917603,124.889572 
	C542.742249,125.370331 542.429871,125.612846 542.117554,125.855362 
	C541.981567,125.446251 541.845581,125.037140 541.815552,124.306946 
	C542.207764,124.207680 542.494202,124.429504 542.917603,124.889572 
z"/>
<path fill="#6E37AE" opacity="1.000000" stroke="none" 
	d="
M660.942993,269.576904 
	C661.156128,269.885101 661.141296,270.149139 661.078369,270.609558 
	C660.951538,270.383026 660.846436,269.958618 660.942993,269.576904 
z"/>
<path fill="#E4E1ED" opacity="1.000000" stroke="none" 
	d="
M340.271484,288.286987 
	C340.310852,288.089233 340.580322,287.983795 340.900574,288.024475 
	C340.951355,288.170624 340.501587,288.379272 340.271484,288.286987 
z"/>
<path fill="#923AE6" opacity="1.000000" stroke="none" 
	d="
M744.223816,31.882942 
	C744.121582,31.670641 744.314331,31.425007 744.775879,31.112190 
	C744.921204,31.338724 744.745972,31.606924 744.223816,31.882942 
z"/>
<path fill="#923AE6" opacity="1.000000" stroke="none" 
	d="
M730.231812,45.898647 
	C730.125122,45.679661 730.320862,45.430096 730.795349,45.118729 
	C730.941345,45.350624 730.761353,45.621006 730.231812,45.898647 
z"/>
<path fill="#923AE6" opacity="1.000000" stroke="none" 
	d="
M728.265991,47.698372 
	C728.188721,47.487793 728.368469,47.303474 728.764343,47.072277 
	C728.891113,47.285892 728.738647,47.518970 728.265991,47.698372 
z"/>
<path fill="#923AE6" opacity="1.000000" stroke="none" 
	d="
M729.219482,46.868591 
	C729.120483,46.652721 729.316650,46.413586 729.777832,46.110729 
	C729.929321,46.344891 729.753174,46.610992 729.219482,46.868591 
z"/>
<path fill="#843DD7" opacity="1.000000" stroke="none" 
	d="
M658.744629,10.988770 
	C658.894409,11.388371 658.663879,11.548434 658.187744,11.373009 
	C658.207764,11.167975 658.348511,11.071879 658.744629,10.988770 
z"/>
<path fill="#923AE6" opacity="1.000000" stroke="none" 
	d="
M736.237793,39.929462 
	C736.120911,39.715786 736.306335,39.455448 736.770996,39.121925 
	C736.808655,39.275814 736.638672,39.553833 736.237793,39.929462 
z"/>
<path fill="#923AE6" opacity="1.000000" stroke="none" 
	d="
M737.219238,38.885170 
	C737.116455,38.686375 737.296570,38.439224 737.731079,38.110611 
	C737.881897,38.324863 737.720825,38.594086 737.219238,38.885170 
z"/>
<path fill="#7D3ECD" opacity="1.000000" stroke="none" 
	d="
M710.303223,33.199684 
	C710.621948,33.176655 710.692200,33.452858 710.393066,33.868050 
	C710.272461,33.792767 710.282776,33.623394 710.303223,33.199684 
z"/>
<path fill="#B3AFC3" opacity="1.000000" stroke="none" 
	d="
M500.577576,288.247375 
	C500.561584,288.165588 500.492615,288.129333 500.457947,288.146942 
	C500.423248,288.164551 500.593567,288.329193 500.577576,288.247375 
z"/>
<path fill="#77E7C8" opacity="1.000000" stroke="none" 
	d="
M54.418106,245.711456 
	C54.509373,245.939117 54.355766,246.278122 53.910786,246.669861 
	C53.804024,246.422653 53.988628,246.122742 54.418106,245.711456 
z"/>
<path fill="#77E7C8" opacity="1.000000" stroke="none" 
	d="
M47.404343,252.694443 
	C47.488834,252.924454 47.331867,253.261429 46.878563,253.630066 
	C46.775776,253.374954 46.969330,253.088181 47.404343,252.694443 
z"/>
<path fill="#77E7C8" opacity="1.000000" stroke="none" 
	d="
M53.457451,246.728378 
	C53.540565,246.958313 53.372505,247.289368 52.914268,247.668152 
	C52.818150,247.420410 53.012211,247.124954 53.457451,246.728378 
z"/>
<path fill="#77E7C8" opacity="1.000000" stroke="none" 
	d="
M52.452240,247.729431 
	C52.536205,247.959778 52.369457,248.290207 51.913033,248.667831 
	C51.816082,248.419846 52.008804,248.124680 52.452240,247.729431 
z"/>
<path fill="#77E7C8" opacity="1.000000" stroke="none" 
	d="
M51.452019,248.726562 
	C51.532623,248.957947 51.362106,249.287857 50.899376,249.659225 
	C50.805073,249.408813 51.002983,249.116959 51.452019,248.726562 
z"/>
<path fill="#77E7C8" opacity="1.000000" stroke="none" 
	d="
M50.440948,249.708694 
	C50.517586,249.940948 50.346207,250.271973 49.878437,250.631027 
	C49.785675,250.375183 49.989300,250.091324 50.440948,249.708694 
z"/>
<path fill="#77E7C8" opacity="1.000000" stroke="none" 
	d="
M49.403259,250.693665 
	C49.487381,250.923401 49.330379,251.260895 48.876472,251.629730 
	C48.773754,251.374512 48.967945,251.087967 49.403259,250.693665 
z"/>
<path fill="#77E7C8" opacity="1.000000" stroke="none" 
	d="
M48.403839,251.693939 
	C48.488132,251.923721 48.331154,252.261093 47.877483,252.630127 
	C47.774715,252.375015 47.968643,252.088257 48.403839,251.693939 
z"/>
<path fill="#77E7C8" opacity="1.000000" stroke="none" 
	d="
M55.409027,244.698471 
	C55.495358,244.928391 55.339005,245.266724 54.886616,245.641846 
	C54.782497,245.388062 54.974422,245.097473 55.409027,244.698471 
z"/>
<path fill="#77E7C8" opacity="1.000000" stroke="none" 
	d="
M56.407810,243.695541 
	C56.492790,243.926392 56.335209,244.264465 55.880386,244.634888 
	C55.777176,244.379105 55.971214,244.090927 56.407810,243.695541 
z"/>
<path fill="#77E7C8" opacity="1.000000" stroke="none" 
	d="
M46.404091,253.695068 
	C46.488892,253.925430 46.332085,254.261978 45.879280,254.629974 
	C45.776348,254.374710 45.969418,254.087997 46.404091,253.695068 
z"/>
<path fill="#7A41CA" opacity="1.000000" stroke="none" 
	d="
M704.867249,257.399353 
	C705.093384,257.347504 705.409973,257.576202 705.802368,258.097382 
	C705.571411,258.153198 705.264526,257.916534 704.867249,257.399353 
z"/>
<path fill="#96E6D2" opacity="1.000000" stroke="none" 
	d="
M41.175869,241.735107 
	C40.915722,241.810303 40.730949,241.658936 40.582958,241.477570 
	C40.560051,241.449463 40.705639,241.283890 40.940315,241.100616 
	C41.159328,241.179123 41.211323,241.338913 41.175869,241.735107 
z"/>
<path fill="#77E7C8" opacity="1.000000" stroke="none" 
	d="
M59.788235,240.146042 
	C59.905590,240.359573 59.731167,240.598801 59.297459,240.903412 
	C59.117874,240.671280 59.270634,240.405579 59.788235,240.146042 
z"/>
<path fill="#77E7C8" opacity="1.000000" stroke="none" 
	d="
M60.786514,239.152527 
	C60.899055,239.369583 60.717861,239.607452 60.271919,239.903717 
	C60.108624,239.671661 60.270496,239.408737 60.786514,239.152527 
z"/>
<path fill="#77E7C8" opacity="1.000000" stroke="none" 
	d="
M64.334595,235.661713 
	C64.419617,235.890137 64.280952,236.229919 63.842163,236.573730 
	C63.639462,236.244354 63.829086,235.976120 64.334595,235.661713 
z"/>
<path fill="#39393D" opacity="1.000000" stroke="none" 
	d="
M290.060181,191.210724 
	C290.117401,191.484085 289.910736,191.845612 289.361725,192.147888 
	C289.278381,191.825378 289.537354,191.562134 290.060181,191.210724 
z"/>
<path fill="#141416" opacity="1.000000" stroke="none" 
	d="
M313.223114,188.953888 
	C313.203308,138.295792 313.183502,87.637695 313.484192,36.461441 
	C314.224091,35.407104 314.643463,34.870930 315.062866,34.334751 
	C317.070923,34.283684 319.078949,34.232616 321.677460,34.583988 
	C323.354126,35.264553 324.440094,35.784611 325.526611,35.785809 
	C363.768524,35.828014 402.010468,35.836430 440.252258,35.756313 
	C441.519928,35.753658 442.785553,34.783703 444.052155,34.264641 
	C447.690613,34.366428 451.405365,34.038040 454.950439,34.666573 
	C460.894592,35.720451 462.903503,38.128109 462.964935,44.114353 
	C463.111877,58.439358 463.126221,72.768257 462.957581,87.092796 
	C462.883636,93.372513 457.982513,97.414925 451.345123,97.404083 
	C426.857758,97.364067 402.370270,97.330101 377.883118,97.396469 
	C375.687286,97.402420 373.674957,97.016502 371.560944,99.673958 
	C370.063904,101.555832 365.372528,101.802940 362.581512,98.066841 
	C358.814117,93.023842 351.913635,91.476662 345.904510,93.624603 
	C340.286316,95.632797 336.713043,100.747299 336.546265,107.019348 
	C336.374115,113.491920 339.403015,118.226387 345.316467,120.728081 
	C350.961517,123.116219 357.517609,121.736633 361.764832,117.266846 
	C365.787292,113.033592 367.784668,113.062805 372.887451,116.662842 
	C374.067719,117.495529 376.079285,117.317429 377.708862,117.320427 
	C399.864075,117.361237 422.019379,117.351982 444.684631,117.709610 
	C445.788116,117.902321 446.381653,117.740501 446.975189,117.578690 
	C458.310516,116.248833 463.904633,121.158424 463.906647,132.501923 
	C463.909607,149.435791 463.991028,166.371429 463.723633,183.301346 
	C463.688477,185.529175 461.794006,187.727661 460.049194,189.762848 
	C457.527954,189.454346 455.718262,189.209213 453.908447,189.208008 
	C422.642181,189.187149 391.375916,189.222763 360.109680,189.187714 
	C344.480774,189.170181 328.851959,189.035553 313.223114,188.953888 
z"/>
<path fill="#39393D" opacity="1.000000" stroke="none" 
	d="
M313.183289,189.358841 
	C328.851959,189.035553 344.480774,189.170181 360.109680,189.187714 
	C391.375916,189.222763 422.642181,189.187149 453.908447,189.208008 
	C455.718262,189.209213 457.527954,189.454346 459.676117,189.818420 
	C458.417084,190.297363 456.819733,190.758194 455.222137,190.759186 
	C409.738770,190.787537 364.255310,190.781479 318.772003,190.717224 
	C316.895386,190.714569 315.019592,190.095612 313.183289,189.358841 
z"/>
<path fill="#39393D" opacity="1.000000" stroke="none" 
	d="
M443.590149,34.161896 
	C442.785553,34.783703 441.519928,35.753658 440.252258,35.756313 
	C402.010468,35.836430 363.768524,35.828014 325.526611,35.785809 
	C324.440094,35.784611 323.354126,35.264553 322.104248,34.644211 
	C343.381409,34.224350 364.822113,34.121391 386.263000,34.076664 
	C405.217957,34.037121 424.173065,34.062458 443.590149,34.161896 
z"/>
<path fill="#050507" opacity="1.000000" stroke="none" 
	d="
M446.654480,117.470337 
	C446.381653,117.740501 445.788116,117.902321 445.112549,117.848831 
	C445.464966,117.543015 445.899384,117.452499 446.654480,117.470337 
z"/>
<path fill="#39393D" opacity="1.000000" stroke="none" 
	d="
M314.740906,34.243473 
	C314.643463,34.870930 314.224091,35.407104 313.543823,35.999844 
	C313.661652,35.421669 314.040314,34.786930 314.740906,34.243473 
z"/>
<path fill="#141416" opacity="1.000000" stroke="none" 
	d="
M198.545319,114.852005 
	C193.090378,114.641014 189.965759,112.270363 189.919067,108.306908 
	C189.872284,104.335571 191.937103,101.608093 195.912125,101.029465 
	C199.755493,100.470001 202.855560,102.030067 204.015579,105.944473 
	C205.363632,110.493355 202.791840,113.078735 198.545319,114.852005 
z"/>
<path fill="#141416" opacity="1.000000" stroke="none" 
	d="
M537.148621,24.890160 
	C539.802734,28.329260 540.356262,31.937798 537.398987,34.580540 
	C535.584534,36.202042 532.120544,37.389317 529.942505,36.789997 
	C527.821411,36.206356 525.413940,33.297825 524.955139,31.039705 
	C524.543945,29.015902 526.052795,25.899019 527.715698,24.316078 
	C530.437683,21.724918 533.848633,22.569057 537.148621,24.890160 
z"/>
<path fill="#B6ACD0" opacity="1.000000" stroke="none" 
	d="
M368.014435,268.978607 
	C368.776245,268.981354 369.538055,268.984131 370.678345,268.936462 
	C373.406311,268.937897 375.755768,268.989838 378.544373,269.088440 
	C379.663879,274.825317 380.344330,280.515564 381.023132,286.600464 
	C377.666687,287.000336 374.311859,287.005554 370.533630,286.626709 
	C370.183777,284.662415 370.512390,283.043915 370.282013,281.509399 
	C369.652100,277.313568 368.786621,273.153076 368.014435,268.978607 
z"/>
<path fill="#C0B8D7" opacity="1.000000" stroke="none" 
	d="
M368.009949,268.988434 
	C368.786621,273.153076 369.652100,277.313568 370.282013,281.509399 
	C370.512390,283.043915 370.183777,284.662415 370.078308,286.625549 
	C369.881134,287.010437 369.715790,287.017578 369.550690,287.013580 
	C365.761505,286.921539 360.917877,288.197968 358.493835,286.331787 
	C356.279755,284.627228 356.757965,279.502808 355.908234,275.919098 
	C355.418732,273.854706 354.648590,271.856812 354.012878,269.441650 
	C358.027557,269.042847 362.034149,269.031372 366.765411,269.004944 
	C367.666168,268.988647 367.842255,268.987305 368.018372,268.985962 
	C368.018372,268.985962 368.005432,268.998260 368.009949,268.988434 
z"/>
<path fill="#B6ACD0" opacity="1.000000" stroke="none" 
	d="
M367.925293,268.810181 
	C367.842255,268.987305 367.666168,268.988647 367.225708,268.984985 
	C367.251648,268.864838 367.541931,268.749603 367.925293,268.810181 
z"/>
</svg>